SplineFontDB: 3.2
FontName: Inconsolata-SemiCondensedBold
FullName: Inconsolata Semi Condensed Bold
FamilyName: Inconsolata Semi Condensed Bold
Weight: Bold
Copyright: Copyright 2006 The Inconsolata Project Authors (https://github.com/cyrealtype/Inconsolata)
Version: 3.000; ttfautohint (v1.8.3)
ItalicAngle: -9
UnderlinePosition: -297
UnderlineWidth: 102
Ascent: 1802
Descent: 246
InvalidEm: 0
sfntRevision: 0x00030000
LayerCount: 2
Layer: 0 1 "Back" 1
Layer: 1 1 "Fore" 0
XUID: [1021 89 -1257786482 14312]
StyleMap: 0x0040
FSType: 0
OS2Version: 4
OS2_WeightWidthSlopeOnly: 0
OS2_UseTypoMetrics: 1
CreationTime: 1576097233
ModificationTime: 1732402468
PfmFamily: 81
TTFWeight: 700
TTFWidth: 4
LineGap: 0
VLineGap: 0
Panose: 0 0 0 0 0 0 0 0 0 0
OS2TypoAscent: 1759
OS2TypoAOffset: 0
OS2TypoDescent: -389
OS2TypoDOffset: 0
OS2TypoLinegap: 0
OS2WinAscent: 2056
OS2WinAOffset: 0
OS2WinDescent: 930
OS2WinDOffset: 0
HheadAscent: 1759
HheadAOffset: 0
HheadDescent: -389
HheadDOffset: 0
OS2SubXSize: 1331
OS2SubYSize: 1229
OS2SubXOff: 0
OS2SubYOff: 154
OS2SupXSize: 1331
OS2SupYSize: 1229
OS2SupXOff: 0
OS2SupYOff: 717
OS2StrikeYSize: 102
OS2StrikeYPos: 571
OS2CapHeight: 1276
OS2XHeight: 952
OS2Vendor: 'CYRE'
OS2CodePages: 60000193.cdd40000
OS2UnicodeRanges: a00000ff.0000f9eb.00000020.00000000
Lookup: 1 0 0 "'aalt' Access All Alternates in Latin lookup 0" { "'aalt' Access All Alternates in Latin lookup 0 subtable"  } ['aalt' ('DFLT' <'dflt' > 'latn' <'AZE ' 'CAT ' 'CRT ' 'KAZ ' 'MOL ' 'ROM ' 'TAT ' 'TRK ' 'dflt' > ) ]
Lookup: 3 0 0 "'aalt' Access All Alternates in Latin lookup 1" { "'aalt' Access All Alternates in Latin lookup 1 subtable"  } ['aalt' ('DFLT' <'dflt' > 'latn' <'AZE ' 'CAT ' 'CRT ' 'KAZ ' 'MOL ' 'ROM ' 'TAT ' 'TRK ' 'dflt' > ) ]

StartChar: A
Encoding: 65 65 1
Width: 922
VWidth: 2424
GlyphClass: 2
Flags: HW
AnchorPoint: "Anchor-3" 617 0 basechar 0
AnchorPoint: "Anchor-2" 374 0 basechar 0
AnchorPoint: "Anchor-0" 613.319 1511 basechar 0
LayerCount: 2
Fore
SplineSet
533.809570312 1009 m 1,0,-1
 354.002929688 543 l 1,1,-1
 564.002929688 543 l 1,2,-1
 533.809570312 1009 l 1,0,-1
599 0 m 1,3,-1
 576.384765625 356 l 1,4,-1
 282.384765625 356 l 1,5,-1
 146 0 l 1,6,-1
 -71 0 l 1,7,-1
 562.536132812 1525 l 1,8,-1
 671.536132812 1525 l 1,9,-1
 819 0 l 1,10,-1
 599 0 l 1,3,-1
EndSplineSet
Substitution2: "Single Substitution lookup 29 subtable" ordfeminine
Substitution2: "'aalt' Access All Alternates in Latin lookup 0 subtable" ordfeminine
EndChar

StartChar: AE
Encoding: 198 198 26
Width: 922
VWidth: 2424
GlyphClass: 1
Flags: HW
LayerCount: 2
Fore
SplineSet
305.189453125 601 m 1,0,-1
 417.189453125 601 l 1,1,-1
 531.1796875 1226 l 1,2,-1
 527.1796875 1226 l 1,3,-1
 305.189453125 601 l 1,0,-1
-104 0 m 1,4,-1
 480.319335938 1511 l 1,5,-1
 1025.31933594 1511 l 1,6,-1
 991.424804688 1297 l 1,7,-1
 717.424804688 1297 l 1,8,-1
 653.75390625 895 l 1,9,-1
 882.75390625 895 l 1,10,-1
 848.384765625 678 l 1,11,-1
 619.384765625 678 l 1,12,-1
 545.736328125 213 l 1,13,-1
 814.736328125 213 l 1,14,-1
 781 0 l 1,15,-1
 322 0 l 1,16,-1
 383.13671875 386 l 1,17,-1
 233.13671875 386 l 1,18,-1
 92 0 l 1,19,-1
 -104 0 l 1,4,-1
EndSplineSet
EndChar

StartChar: B
Encoding: 66 66 28
Width: 922
VWidth: 2424
GlyphClass: 2
Flags: HW
AnchorPoint: "Anchor-2" 420 0 basechar 0
AnchorPoint: "Anchor-0" 659.319 1511 basechar 0
LayerCount: 2
Fore
SplineSet
256.52734375 218 m 1,0,-1
 428.52734375 218 l 2,1,2
 535.52734375 218 535.52734375 218 606.397460938 274 c 128,-1,3
 677.266601562 330 677.266601562 330 695.005859375 442 c 0,4,5
 713.061523438 556 713.061523438 556 664.990234375 625 c 128,-1,6
 616.918945312 694 616.918945312 694 472.918945312 694 c 2,7,-1
 331.918945312 694 l 1,8,-1
 256.52734375 218 l 1,0,-1
365.654296875 907 m 1,9,-1
 498.654296875 907 l 2,10,11
 631.654296875 907 631.654296875 907 688.4453125 962.5 c 128,-1,12
 745.235351562 1018 745.235351562 1018 759.490234375 1108 c 0,13,14
 772.953125 1193 772.953125 1193 732.030273438 1244 c 128,-1,15
 691.107421875 1295 691.107421875 1295 582.107421875 1295 c 2,16,-1
 427.107421875 1295 l 1,17,-1
 365.654296875 907 l 1,9,-1
-16 0 m 1,18,-1
 223.319335938 1511 l 1,19,-1
 613.319335938 1511 l 2,20,21
 835.319335938 1511 835.319335938 1511 933.322265625 1410 c 128,-1,22
 1031.32519531 1309 1031.32519531 1309 1003.29101562 1132 c 0,23,24
 986.02734375 1023 986.02734375 1023 924.693359375 932.5 c 128,-1,25
 863.359375 842 863.359375 842 768.499023438 805 c 1,26,27
 865.73828125 756 865.73828125 756 914.05859375 657 c 128,-1,28
 962.37890625 558 962.37890625 558 942.739257812 434 c 0,29,30
 910.903320312 233 910.903320312 233 766.952148438 116.5 c 128,-1,31
 623 0 623 0 372 0 c 2,32,-1
 -16 0 l 1,18,-1
EndSplineSet
EndChar

StartChar: C
Encoding: 67 67 29
Width: 922
VWidth: 2424
GlyphClass: 2
Flags: HW
AnchorPoint: "Anchor-2" 450 0 basechar 0
AnchorPoint: "Anchor-0" 680.319 1511 basechar 0
LayerCount: 2
Fore
SplineSet
456.723632812 -27 m 0,0,1
 322.723632812 -27 322.723632812 -27 222.736328125 52 c 128,-1,2
 122.748046875 131 122.748046875 131 82.2529296875 301.5 c 128,-1,3
 41.7578125 472 41.7578125 472 85.3134765625 747 c 0,4,5
 121.424804688 975 121.424804688 975 190.840820312 1126 c 128,-1,6
 260.256835938 1277 260.256835938 1277 349.353515625 1366 c 128,-1,7
 438.44921875 1455 438.44921875 1455 531.809570312 1492 c 128,-1,8
 625.169921875 1529 625.169921875 1529 711.169921875 1529 c 0,9,10
 852.169921875 1529 852.169921875 1529 938.345703125 1457.5 c 128,-1,11
 1024.52050781 1386 1024.52050781 1386 1056.24804688 1258 c 1,12,-1
 898.07421875 1118 l 1,13,-1
 879.698242188 1103 l 1,14,-1
 869.390625 1120 l 1,15,16
 874.083007812 1137 874.083007812 1137 873.830078125 1157.5 c 128,-1,17
 873.577148438 1178 873.577148438 1178 859.961914062 1212 c 1,18,19
 827.1484375 1270 827.1484375 1270 784.6328125 1292 c 128,-1,20
 742.1171875 1314 742.1171875 1314 691.1171875 1314 c 0,21,22
 616.1171875 1314 616.1171875 1314 540.53515625 1253.5 c 128,-1,23
 464.953125 1193 464.953125 1193 405.55078125 1070.5 c 128,-1,24
 346.1484375 948 346.1484375 948 316.213867188 759 c 0,25,26
 272.5 483 272.5 483 328.11328125 338.5 c 128,-1,27
 383.7265625 194 383.7265625 194 501.7265625 194 c 0,28,29
 642.7265625 194 642.7265625 194 750.384765625 356 c 1,30,-1
 873.944335938 208 l 1,31,32
 785.512695312 79 785.512695312 79 684.118164062 26 c 128,-1,33
 582.723632812 -27 582.723632812 -27 456.723632812 -27 c 0,0,1
EndSplineSet
EndChar

StartChar: D
Encoding: 68 68 36
Width: 922
VWidth: 2424
GlyphClass: 2
Flags: HW
AnchorPoint: "Anchor-4" 540.738 756 basechar 0
AnchorPoint: "Anchor-2" 412 0 basechar 0
AnchorPoint: "Anchor-0" 599.319 1511 basechar 0
LayerCount: 2
Fore
SplineSet
259.944335938 208 m 1,0,-1
 329.944335938 208 l 2,1,2
 519.944335938 208 519.944335938 208 622.171875 351.5 c 128,-1,3
 724.400390625 495 724.400390625 495 763.204101562 740 c 0,4,5
 790.446289062 912 790.446289062 912 780.165039062 1036.5 c 128,-1,6
 769.884765625 1161 769.884765625 1161 709.891601562 1230.5 c 128,-1,7
 649.899414062 1300 649.899414062 1300 526.899414062 1300 c 2,8,-1
 432.899414062 1300 l 1,9,-1
 259.944335938 208 l 1,0,-1
-9.31640625 -2 m 1,10,-1
 230.319335938 1511 l 1,11,-1
 562.319335938 1511 l 2,12,13
 732.319335938 1511 732.319335938 1511 818.741210938 1460 c 128,-1,14
 905.1640625 1409 905.1640625 1409 954.008789062 1307 c 0,15,16
 1001.85351562 1205 1001.85351562 1205 1014.91699219 1066.5 c 128,-1,17
 1027.98046875 928 1027.98046875 928 999.313476562 747 c 0,18,19
 939.561523438 395 939.561523438 395 772.122070312 196.5 c 128,-1,20
 604.68359375 -2 604.68359375 -2 296.68359375 -2 c 2,21,-1
 -9.31640625 -2 l 1,10,-1
EndSplineSet
EndChar

StartChar: Eth
Encoding: 208 208 37
Width: 922
VWidth: 2424
GlyphClass: 1
Flags: HW
LayerCount: 2
Fore
SplineSet
256.052734375 215 m 1,0,-1
 325.052734375 215 l 2,1,2
 491.052734375 215 491.052734375 215 590.118164062 348 c 128,-1,3
 689.182617188 481 689.182617188 481 730.204101562 740 c 0,4,5
 771.701171875 1002 771.701171875 1002 723.033203125 1143 c 128,-1,6
 674.365234375 1284 674.365234375 1284 510.365234375 1284 c 2,7,-1
 425.365234375 1284 l 1,8,-1
 365.1796875 904 l 1,9,-1
 538.1796875 904 l 1,10,-1
 504.918945312 694 l 1,11,-1
 331.918945312 694 l 1,12,-1
 256.052734375 215 l 1,0,-1
10 0 m 1,13,-1
 119.918945312 694 l 1,14,-1
 47.9189453125 694 l 1,15,-1
 81.1796875 904 l 1,16,-1
 153.1796875 904 l 1,17,-1
 249.319335938 1511 l 1,18,-1
 553.319335938 1511 l 2,19,20
 670.319335938 1511 670.319335938 1511 748.299804688 1473 c 128,-1,21
 826.28125 1435 826.28125 1435 871.857421875 1375.5 c 128,-1,22
 917.43359375 1316 917.43359375 1316 939.138671875 1251 c 0,23,24
 967.259765625 1176 967.259765625 1176 970.169921875 1046 c 128,-1,25
 973.080078125 916 973.080078125 916 946.313476562 747 c 0,26,27
 888.819335938 384 888.819335938 384 731.91015625 192 c 128,-1,28
 575 0 575 0 293 0 c 2,29,-1
 10 0 l 1,13,-1
EndSplineSet
EndChar

StartChar: E
Encoding: 69 69 42
Width: 922
VWidth: 2424
GlyphClass: 2
Flags: HW
AnchorPoint: "Anchor-3" 812.218 14 basechar 0
AnchorPoint: "Anchor-2" 452 0 basechar 0
AnchorPoint: "Anchor-0" 724.319 1511 basechar 0
LayerCount: 2
Fore
SplineSet
17 0 m 1,0,-1
 256.635742188 1513 l 1,1,-1
 1139.63574219 1513 l 1,2,-1
 1105.10742188 1295 l 1,3,-1
 470.107421875 1295 l 1,4,-1
 407.071289062 897 l 1,5,-1
 928.071289062 897 l 1,6,-1
 893.384765625 678 l 1,7,-1
 372.384765625 678 l 1,8,-1
 299.052734375 215 l 1,9,-1
 930.052734375 215 l 1,10,-1
 896 0 l 1,11,-1
 17 0 l 1,0,-1
EndSplineSet
EndChar

StartChar: uni01B8
Encoding: 440 440 65
Width: 922
VWidth: 2424
GlyphClass: 1
Flags: HW
LayerCount: 2
Fore
SplineSet
481.505859375 -41 m 0,0,1
 338.505859375 -41 338.505859375 -41 240.088867188 19.5 c 128,-1,2
 141.670898438 80 141.670898438 80 100.221679688 184.5 c 128,-1,3
 58.7734375 289 58.7734375 289 79.36328125 419 c 0,4,5
 110.564453125 616 110.564453125 616 234.837890625 744 c 128,-1,6
 359.111328125 872 359.111328125 872 539.080078125 916 c 1,7,-1
 263.80078125 1312 l 1,8,-1
 295.319335938 1511 l 1,9,-1
 1047.31933594 1511 l 1,10,-1
 1011.04882812 1282 l 1,11,-1
 558.048828125 1282 l 1,12,-1
 785.772460938 933 l 1,13,-1
 752.353515625 722 l 1,14,15
 730.633789062 722.915039062 730.633789062 722.915039062 710.161132812 722.915039062 c 0,16,17
 529.3125 722.915039062 529.3125 722.915039062 445.6875 651.5 c 0,18,19
 352.595703125 572 352.595703125 572 330.421875 432 c 0,20,21
 310.624023438 307 310.624023438 307 372.962890625 246 c 128,-1,22
 435.30078125 185 435.30078125 185 536.30078125 185 c 0,23,24
 679.30078125 185 679.30078125 185 769.021484375 259 c 1,25,26
 795.08984375 291 795.08984375 291 804.044921875 306.5 c 128,-1,27
 813 322 813 322 814.166992188 342 c 1,28,-1
 830.860351562 359 l 1,29,-1
 845.484375 344 l 1,30,-1
 912.33203125 141 l 1,31,32
 817.286132812 46 817.286132812 46 713.895507812 2.5 c 128,-1,33
 610.505859375 -41 610.505859375 -41 481.505859375 -41 c 0,0,1
EndSplineSet
EndChar

StartChar: F
Encoding: 70 70 66
Width: 922
VWidth: 2424
GlyphClass: 2
Flags: HW
AnchorPoint: "Anchor-2" 452 0 basechar 0
AnchorPoint: "Anchor-0" 691.319 1511 basechar 0
LayerCount: 2
Fore
SplineSet
49 0 m 1,0,-1
 288.635742188 1513 l 1,1,-1
 1135.63574219 1513 l 1,2,-1
 1101.10742188 1295 l 1,3,-1
 486.107421875 1295 l 1,4,-1
 426.872070312 921 l 1,5,-1
 923.872070312 921 l 1,6,-1
 889.819335938 706 l 1,7,-1
 392.819335938 706 l 1,8,-1
 281 0 l 1,9,-1
 49 0 l 1,0,-1
EndSplineSet
EndChar

StartChar: G
Encoding: 71 71 67
Width: 922
VWidth: 2424
GlyphClass: 2
Flags: HW
AnchorPoint: "Anchor-2" 433 0 basechar 0
AnchorPoint: "Anchor-0" 684.319 1511 basechar 0
LayerCount: 2
Fore
SplineSet
453.723632812 -27 m 0,0,1
 216.723632812 -27 216.723632812 -27 117.588867188 180.5 c 128,-1,2
 18.453125 388 18.453125 388 75.3134765625 747 c 0,3,4
 113.325195312 987 113.325195312 987 187.216796875 1141 c 128,-1,5
 261.107421875 1295 261.107421875 1295 352.728515625 1381 c 128,-1,6
 444.349609375 1467 444.349609375 1467 535.65625 1500.5 c 0,7,8
 621.817382812 1532.11230469 621.817382812 1532.11230469 689.615234375 1532.11230469 c 0,9,10
 693.663085938 1532.11230469 693.663085938 1532.11230469 697.64453125 1532 c 0,11,12
 821.64453125 1532 821.64453125 1532 915.349609375 1467 c 128,-1,13
 1009.0546875 1402 1009.0546875 1402 1046.36523438 1284 c 1,14,-1
 893.81640625 1129 l 1,15,-1
 874.806640625 1110 l 1,16,-1
 862.499023438 1127 l 1,17,18
 865.508789062 1146 865.508789062 1146 863.938476562 1164.5 c 128,-1,19
 862.369140625 1183 862.369140625 1183 844.75390625 1217 c 0,20,21
 817.72265625 1261 817.72265625 1261 778.419921875 1287.5 c 128,-1,22
 739.1171875 1314 739.1171875 1314 670.1171875 1314 c 0,23,24
 596.1171875 1314 596.1171875 1314 525.380859375 1262 c 128,-1,25
 454.645507812 1210 454.645507812 1210 397.956054688 1092 c 128,-1,26
 341.266601562 974 341.266601562 974 309.431640625 773 c 0,27,28
 262.549804688 477 262.549804688 477 313.7421875 333 c 128,-1,29
 364.934570312 189 364.934570312 189 484.934570312 189 c 0,30,31
 533.934570312 189 533.934570312 189 582.889648438 204.5 c 128,-1,32
 631.844726562 220 631.844726562 220 678.021484375 259 c 1,33,-1
 724.903320312 555 l 1,34,-1
 527.903320312 555 l 1,35,-1
 562.431640625 773 l 1,36,-1
 969.431640625 773 l 1,37,-1
 867.431640625 129 l 1,38,39
 762.96875 44 762.96875 44 659.346679688 8.5 c 128,-1,40
 555.723632812 -27 555.723632812 -27 453.723632812 -27 c 0,0,1
EndSplineSet
EndChar

StartChar: H
Encoding: 72 72 74
Width: 922
VWidth: 2424
GlyphClass: 2
Flags: HW
AnchorPoint: "Anchor-4" 602.738 756 basechar 0
AnchorPoint: "Anchor-2" 483 0 basechar 0
AnchorPoint: "Anchor-0" 687.319 1511 basechar 0
LayerCount: 2
Fore
SplineSet
224.319335938 1511 m 1,0,-1
 486.319335938 1511 l 1,1,-1
 482.67578125 1488 l 1,2,3
 469.458984375 1474 469.458984375 1474 463.345703125 1457.5 c 128,-1,4
 457.232421875 1441 457.232421875 1441 450.580078125 1399 c 2,5,-1
 371.071289062 897 l 1,6,-1
 754.071289062 897 l 1,7,-1
 851.319335938 1511 l 1,8,-1
 1114.31933594 1511 l 1,9,-1
 1110.67578125 1488 l 1,10,11
 1097.45898438 1474 1097.45898438 1474 1091.34570312 1457.5 c 128,-1,12
 1085.23242188 1441 1085.23242188 1441 1078.58007812 1399 c 2,13,-1
 857 0 l 1,14,-1
 612 0 l 1,15,-1
 720.334960938 684 l 1,16,-1
 337.334960938 684 l 1,17,-1
 229 0 l 1,18,-1
 -15 0 l 1,19,-1
 224.319335938 1511 l 1,0,-1
EndSplineSet
EndChar

StartChar: Hbar
Encoding: 294 294 75
Width: 922
VWidth: 2424
GlyphClass: 2
Flags: HW
AnchorPoint: "Anchor-4" 527.738 756 basechar 0
AnchorPoint: "Anchor-2" 408 0 basechar 0
AnchorPoint: "Anchor-0" 616.319 1511 basechar 0
LayerCount: 2
Fore
SplineSet
327.071289062 897 m 1,0,-1
 664.071289062 897 l 1,1,-1
 707.467773438 1171 l 1,2,-1
 370.467773438 1171 l 1,3,-1
 327.071289062 897 l 1,0,-1
96.4677734375 1171 m 1,4,-1
 129.412109375 1379 l 1,5,-1
 188.412109375 1379 l 1,6,-1
 209.319335938 1511 l 1,7,-1
 440.319335938 1511 l 1,8,-1
 436.67578125 1488 l 1,9,10
 424.458984375 1474 424.458984375 1474 418.845703125 1457.5 c 128,-1,11
 413.232421875 1441 413.232421875 1441 406.580078125 1399 c 2,12,-1
 403.412109375 1379 l 1,13,-1
 740.412109375 1379 l 1,14,-1
 761.319335938 1511 l 1,15,-1
 991.319335938 1511 l 1,16,-1
 987.67578125 1488 l 1,17,18
 975.458984375 1474 975.458984375 1474 970.345703125 1457.5 c 128,-1,19
 965.232421875 1441 965.232421875 1441 958.580078125 1399 c 2,20,-1
 955.412109375 1379 l 1,21,-1
 1019.41210938 1379 l 1,22,-1
 986.467773438 1171 l 1,23,-1
 922.467773438 1171 l 1,24,-1
 737 0 l 1,25,-1
 522 0 l 1,26,-1
 630.334960938 684 l 1,27,-1
 293.334960938 684 l 1,28,-1
 185 0 l 1,29,-1
 -30 0 l 1,30,-1
 155.467773438 1171 l 1,31,-1
 96.4677734375 1171 l 1,4,-1
EndSplineSet
EndChar

StartChar: I
Encoding: 73 73 79
Width: 922
VWidth: 2424
GlyphClass: 2
Flags: HW
AnchorPoint: "Anchor-3" 679 0 basechar 0
AnchorPoint: "Anchor-2" 452 0 basechar 0
AnchorPoint: "Anchor-0" 679.319 1511 basechar 0
LayerCount: 2
Fore
SplineSet
56 0 m 1,0,-1
 90.052734375 215 l 1,1,-1
 354.052734375 215 l 1,2,-1
 525.107421875 1295 l 1,3,-1
 276.107421875 1295 l 1,4,-1
 310.319335938 1511 l 1,5,-1
 1064.31933594 1511 l 1,6,-1
 1030.10742188 1295 l 1,7,-1
 768.107421875 1295 l 1,8,-1
 596.736328125 213 l 1,9,-1
 867.736328125 213 l 1,10,-1
 834 0 l 1,11,-1
 56 0 l 1,0,-1
EndSplineSet
EndChar

StartChar: J
Encoding: 74 74 94
Width: 922
VWidth: 2424
GlyphClass: 2
Flags: HW
AnchorPoint: "Anchor-2" 353 0 basechar 0
AnchorPoint: "Anchor-0" 794.319 1511 basechar 0
LayerCount: 2
Fore
SplineSet
292.615234375 -34 m 0,0,1
 197.615234375 -34 197.615234375 -34 116.791992188 5 c 128,-1,2
 35.96875 44 35.96875 44 -11.2021484375 125 c 1,3,-1
 134.375976562 337 l 1,4,-1
 148.384765625 356 l 1,5,-1
 162.958984375 347 l 1,6,7
 166.950195312 328 166.950195312 328 169.624023438 307 c 128,-1,8
 172.297851562 286 172.297851562 286 191.705078125 257 c 1,9,10
 242.626953125 206 242.626953125 206 313.626953125 206 c 0,11,12
 391.626953125 206 391.626953125 206 442.90234375 283.5 c 128,-1,13
 494.176757812 361 494.176757812 361 521.260742188 532 c 2,14,-1
 642.107421875 1295 l 1,15,-1
 408.107421875 1295 l 1,16,-1
 442.319335938 1511 l 1,17,-1
 1098.31933594 1511 l 1,18,-1
 1064.10742188 1295 l 1,19,-1
 880.107421875 1295 l 1,20,-1
 756.409179688 514 l 2,21,22
 755.376953125 507.018554688 755.376953125 507.018554688 754.28515625 500.129882812 c 0,23,24
 725.375976562 317.599609375 725.375976562 317.599609375 655.834960938 201 c 0,25,26
 583.670898438 80 583.670898438 80 488.142578125 23 c 128,-1,27
 392.615234375 -34 392.615234375 -34 292.615234375 -34 c 0,0,1
EndSplineSet
EndChar

StartChar: K
Encoding: 75 75 96
Width: 922
VWidth: 2424
GlyphClass: 1
Flags: HW
LayerCount: 2
Fore
SplineSet
384.750976562 674 m 1,0,-1
 290.903320312 555 l 1,1,-1
 205 0 l 1,2,-1
 -22 0 l 1,3,-1
 217.319335938 1511 l 1,4,-1
 461.319335938 1511 l 1,5,-1
 457.67578125 1488 l 1,6,7
 442.458984375 1474 442.458984375 1474 437.845703125 1457.5 c 128,-1,8
 433.232421875 1441 433.232421875 1441 426.580078125 1399 c 2,9,-1
 347.545898438 900 l 1,10,-1
 837.061523438 1522 l 1,11,12
 867.26953125 1517 867.26953125 1517 914.793945312 1514 c 128,-1,13
 962.319335938 1511 962.319335938 1511 988.319335938 1511 c 2,14,-1
 1084.31933594 1511 l 1,15,-1
 575.477539062 868 l 1,16,-1
 868 0 l 1,17,-1
 610.57421875 -9 l 1,18,-1
 384.750976562 674 l 1,0,-1
EndSplineSet
EndChar

StartChar: uni0198
Encoding: 408 408 98
Width: 922
VWidth: 2424
GlyphClass: 1
Flags: HW
LayerCount: 2
Fore
SplineSet
226.319335938 1511 m 1,0,-1
 482.319335938 1511 l 1,1,-1
 478.67578125 1488 l 1,2,3
 465.458984375 1474 465.458984375 1474 459.345703125 1457.5 c 128,-1,4
 453.232421875 1441 453.232421875 1441 446.580078125 1399 c 2,5,-1
 374.040039062 941 l 1,6,7
 522.092773438 1156 522.092773438 1156 631.286132812 1283.5 c 128,-1,8
 740.48046875 1411 740.48046875 1411 827.770507812 1466.5 c 128,-1,9
 915.061523438 1522 915.061523438 1522 1003.06152344 1522 c 0,10,11
 1035.06152344 1522 1035.06152344 1522 1063.19042969 1516.5 c 128,-1,12
 1091.31933594 1511 1091.31933594 1511 1104.94335938 1496 c 1,13,-1
 1068.50585938 1247 l 1,14,-1
 1064.86230469 1224 l 1,15,-1
 1043.86230469 1224 l 1,16,17
 1035.08007812 1238 1035.08007812 1238 1024.71777344 1251.5 c 128,-1,18
 1014.35644531 1265 1014.35644531 1265 984.940429688 1275 c 0,19,20
 978.256835938 1277 978.256835938 1277 960.256835938 1277 c 0,21,22
 917.256835938 1277 917.256835938 1277 864.213867188 1242 c 128,-1,23
 811.169921875 1207 811.169921875 1207 737.182617188 1125 c 128,-1,24
 663.1953125 1043 663.1953125 1043 556.071289062 897 c 1,25,-1
 877.31640625 2 l 1,26,-1
 616.099609375 -12 l 1,27,-1
 383.05859375 657 l 1,28,29
 348.297851562 608 348.297851562 608 312.586914062 553 c 1,30,-1
 225 0 l 1,31,-1
 -13 0 l 1,32,-1
 226.319335938 1511 l 1,0,-1
EndSplineSet
EndChar

StartChar: L
Encoding: 76 76 99
Width: 922
VWidth: 2424
GlyphClass: 2
Flags: HW
AnchorPoint: "Anchor-4" 284.738 756 basechar 0
AnchorPoint: "Anchor-2" 452 0 basechar 0
AnchorPoint: "Anchor-1" 515.391 1120 basechar 0
AnchorPoint: "Anchor-0" 640.319 1511 basechar 0
LayerCount: 2
Fore
SplineSet
268.319335938 1511 m 1,0,-1
 545.319335938 1511 l 1,1,-1
 541.67578125 1488 l 1,2,3
 525.458984375 1474 525.458984375 1474 520.345703125 1457.5 c 128,-1,4
 515.232421875 1441 515.232421875 1441 508.580078125 1399 c 2,5,-1
 321.52734375 218 l 1,6,-1
 937.52734375 218 l 1,7,-1
 903 0 l 1,8,-1
 29 0 l 1,9,-1
 268.319335938 1511 l 1,0,-1
EndSplineSet
EndChar

StartChar: uni01C7
Encoding: 455 455 100
Width: 922
VWidth: 2338
GlyphClass: 1
Flags: HW
LayerCount: 2
Fore
SplineSet
22.33203125 141 m 1,0,-1
 239.319335938 1511 l 1,1,-1
 488.319335938 1511 l 1,2,3
 485.943359375 1496 485.943359375 1496 480.809570312 1492 c 128,-1,4
 475.67578125 1488 475.67578125 1488 469.671875 1478.5 c 128,-1,5
 463.666992188 1469 463.666992188 1469 457.96484375 1433 c 2,6,-1
 283.900390625 334 l 1,7,-1
 521.900390625 334 l 1,8,-1
 491.33203125 141 l 1,9,-1
 22.33203125 141 l 1,0,-1
430.037109375 -246 m 0,10,11
 260.037109375 -246 260.037109375 -246 174.578125 -110 c 1,12,-1
 337.344726562 59 l 1,13,14
 355.334960938 40 355.334960938 40 350.171875 29.5 c 128,-1,15
 345.009765625 19 345.009765625 19 358.68359375 -2 c 0,16,17
 368.990234375 -19 368.990234375 -19 392.639648438 -37 c 128,-1,18
 416.2890625 -55 416.2890625 -55 457.2890625 -55 c 0,19,20
 522.2890625 -55 522.2890625 -55 565.4296875 18.5 c 128,-1,21
 608.571289062 92 608.571289062 92 635.497070312 262 c 2,22,-1
 802.909179688 1319 l 1,23,-1
 611.909179688 1319 l 1,24,-1
 642.319335938 1511 l 1,25,-1
 1062.31933594 1511 l 1,26,-1
 860.853515625 239 l 2,27,28
 833.294921875 65 833.294921875 65 769.005859375 -41 c 128,-1,29
 704.717773438 -147 704.717773438 -147 616.877929688 -196.5 c 128,-1,30
 529.037109375 -246 529.037109375 -246 430.037109375 -246 c 0,10,11
EndSplineSet
EndChar

StartChar: Lcaron
Encoding: 317 317 102
Width: 922
VWidth: 2424
GlyphClass: 2
Flags: HW
AnchorPoint: "Anchor-4" 284.738 756 basechar 0
AnchorPoint: "Anchor-2" 452 0 basechar 0
AnchorPoint: "Anchor-1" 515.391 1120 basechar 0
AnchorPoint: "Anchor-0" 640.319 1511 basechar 0
LayerCount: 2
Fore
SplineSet
268.319335938 1511 m 1,0,-1
 545.319335938 1511 l 1,1,-1
 541.67578125 1488 l 1,2,3
 525.458984375 1474 525.458984375 1474 520.345703125 1457.5 c 128,-1,4
 515.232421875 1441 515.232421875 1441 508.580078125 1399 c 2,5,-1
 321.52734375 218 l 1,6,-1
 937.52734375 218 l 1,7,-1
 903 0 l 1,8,-1
 29 0 l 1,9,-1
 268.319335938 1511 l 1,0,-1
811.6328125 970 m 1,10,-1
 711.887695312 1060 l 1,11,12
 770.96484375 1111 770.96484375 1111 805.463867188 1161.5 c 128,-1,13
 839.961914062 1212 839.961914062 1212 845.505859375 1247 c 0,14,15
 850.256835938 1277 850.256835938 1277 833.478515625 1300.5 c 128,-1,16
 816.701171875 1324 816.701171875 1324 801.556640625 1351.5 c 128,-1,17
 786.412109375 1379 786.412109375 1379 793.380859375 1423 c 0,18,19
 802.883789062 1483 802.883789062 1483 849.848632812 1517.5 c 128,-1,20
 896.8125 1552 896.8125 1552 951.8125 1552 c 0,21,22
 1016.8125 1552 1016.8125 1552 1051.97265625 1502.5 c 128,-1,23
 1087.1328125 1453 1087.1328125 1453 1073.98632812 1370 c 0,24,25
 1044.68554688 1185 1044.68554688 1185 811.6328125 970 c 1,10,-1
EndSplineSet
EndChar

StartChar: uni01C8
Encoding: 456 456 106
Width: 922
VWidth: 2352
GlyphClass: 1
Flags: HW
LayerCount: 2
Fore
SplineSet
388.037109375 -246 m 0,0,1
 317.037109375 -246 317.037109375 -246 257.892578125 -218.5 c 128,-1,2
 198.749023438 -191 198.749023438 -191 160.142578125 -138 c 1,3,-1
 325.869140625 56 l 1,4,5
 336.734375 43.0908203125 336.734375 43.0908203125 333.1171875 20.251953125 c 0,0,0
 330.17578125 1.681640625 330.17578125 1.681640625 365.881835938 -26 c 0,7,8
 377.931640625 -32 377.931640625 -32 391.71875 -36.5 c 128,-1,9
 405.505859375 -41 405.505859375 -41 424.505859375 -41 c 0,10,11
 485.505859375 -41 485.505859375 -41 537.7421875 11 c 128,-1,12
 589.978515625 63 589.978515625 63 609.618164062 187 c 2,13,-1
 735.216796875 980 l 1,14,-1
 531.216796875 980 l 1,15,-1
 562.259765625 1176 l 1,16,-1
 992.259765625 1176 l 1,17,-1
 836.884765625 195 l 2,18,19
 812.176757812 39 812.176757812 39 746.234375 -58.5 c 128,-1,20
 680.291992188 -156 680.291992188 -156 588.165039062 -201 c 128,-1,21
 496.037109375 -246 496.037109375 -246 388.037109375 -246 c 0,0,1
48.9658203125 145 m 1,22,-1
 266.90234375 1521 l 1,23,-1
 511.90234375 1521 l 1,24,25
 508.41796875 1499 508.41796875 1499 499.859375 1486 c 128,-1,26
 491.299804688 1473 491.299804688 1473 486.70703125 1444 c 2,27,-1
 312.642578125 345 l 1,28,-1
 515.642578125 345 l 1,29,-1
 483.965820312 145 l 1,30,-1
 48.9658203125 145 l 1,22,-1
897.185546875 1346 m 128,-1,32
 838.185546875 1346 838.185546875 1346 801.416992188 1388.5 c 128,-1,33
 764.6484375 1431 764.6484375 1431 773.67578125 1488 c 0,34,35
 783.337890625 1549 783.337890625 1549 831.831054688 1590 c 128,-1,36
 880.325195312 1631 880.325195312 1631 942.325195312 1631 c 0,37,38
 1001.32519531 1631 1001.32519531 1631 1039.17285156 1589 c 128,-1,39
 1077.02050781 1547 1077.02050781 1547 1067.67578125 1488 c 0,40,41
 1058.6484375 1431 1058.6484375 1431 1007.41699219 1388.5 c 128,-1,31
 956.185546875 1346 956.185546875 1346 897.185546875 1346 c 128,-1,32
EndSplineSet
EndChar

StartChar: Lslash
Encoding: 321 321 108
Width: 922
VWidth: 2424
GlyphClass: 1
Flags: HW
LayerCount: 2
Fore
SplineSet
35 0 m 1,0,-1
 119.89453125 536 l 1,1,-1
 5.400390625 495 l 1,2,-1
 41.353515625 722 l 1,3,-1
 156.322265625 766 l 1,4,-1
 274.319335938 1511 l 1,5,-1
 521.319335938 1511 l 1,6,7
 524.52734375 1506 524.52734375 1506 523.735351562 1501 c 0,8,9
 522.309570312 1492 522.309570312 1492 512.98828125 1480.5 c 128,-1,10
 503.666992188 1469 503.666992188 1469 492.698242188 1425 c 1,11,-1
 403.369140625 861 l 1,12,-1
 689.6328125 970 l 2,13,14
 711.741210938 977 711.741210938 977 729.587890625 985.5 c 128,-1,15
 747.434570312 994 747.434570312 994 764.809570312 1009 c 1,16,-1
 724.73828125 756 l 1,17,-1
 367.673828125 623 l 1,18,-1
 303.52734375 218 l 1,19,-1
 851.52734375 218 l 1,20,-1
 817 0 l 1,21,-1
 35 0 l 1,0,-1
EndSplineSet
EndChar

StartChar: M
Encoding: 77 77 109
Width: 922
VWidth: 2424
GlyphClass: 2
Flags: HW
AnchorPoint: "Anchor-2" 412 0 basechar 0
AnchorPoint: "Anchor-0" 651.319 1511 basechar 0
LayerCount: 2
Fore
SplineSet
-29 0 m 1,0,-1
 210.319335938 1511 l 1,1,-1
 413.319335938 1511 l 1,2,-1
 549.993164062 846 l 1,3,-1
 898.635742188 1513 l 1,4,-1
 1100.63574219 1513 l 1,5,-1
 861 0 l 1,6,-1
 659 0 l 1,7,-1
 825.303710938 1050 l 1,8,-1
 541.934570312 511 l 1,9,-1
 436.934570312 511 l 1,10,-1
 337.51171875 1045 l 1,11,-1
 172 0 l 1,12,-1
 -29 0 l 1,0,-1
EndSplineSet
EndChar

StartChar: N
Encoding: 78 78 111
Width: 922
VWidth: 2424
GlyphClass: 2
Flags: HW
AnchorPoint: "Anchor-2" 419 0 basechar 0
AnchorPoint: "Anchor-0" 658.319 1511 basechar 0
LayerCount: 2
Fore
SplineSet
221.319335938 1511 m 1,0,-1
 464.319335938 1511 l 1,1,-1
 735.89453125 536 l 1,2,-1
 878.319335938 1511 l 1,3,-1
 1111.31933594 1511 l 1,4,-1
 1107.67578125 1488 l 1,5,6
 1092.45898438 1474 1092.45898438 1474 1087.34570312 1457.5 c 128,-1,7
 1082.23242188 1441 1082.23242188 1441 1075.58007812 1399 c 2,8,-1
 854 0 l 1,9,-1
 637 0 l 1,10,-1
 359.403320312 1038 l 1,11,-1
 195 0 l 1,12,-1
 -18 0 l 1,13,-1
 221.319335938 1511 l 1,0,-1
EndSplineSet
EndChar

StartChar: Eng
Encoding: 330 330 117
Width: 922
VWidth: 2317
GlyphClass: 2
Flags: HW
AnchorPoint: "Anchor-2" 416.559 174 basechar 0
AnchorPoint: "Anchor-0" 638.319 1511 basechar 0
LayerCount: 2
Fore
SplineSet
851.319335938 1511 m 1,0,-1
 1056.31933594 1511 l 1,1,2
 1052.20117188 1485 1052.20117188 1485 1043.66699219 1469 c 128,-1,3
 1035.1328125 1453 1035.1328125 1453 1030.69824219 1425 c 2,4,-1
 832.55859375 174 l 2,5,6
 799.931640625 -32 799.931640625 -32 692.984375 -139 c 128,-1,7
 586.037109375 -246 586.037109375 -246 457.037109375 -246 c 0,8,9
 346.037109375 -246 346.037109375 -246 248.866210938 -165 c 1,10,-1
 376.80078125 24 l 1,11,12
 397.484375 22 397.484375 22 404.108398438 7 c 128,-1,13
 410.733398438 -8 410.733398438 -8 424.278320312 -23.5 c 128,-1,14
 437.823242188 -39 437.823242188 -39 476.823242188 -39 c 0,15,16
 596.823242188 -39 596.823242188 -39 633.142578125 184 c 1,17,-1
 349.114257812 1093 l 1,18,-1
 203.55859375 174 l 1,19,-1
 2.55859375 174 l 1,20,-1
 214.319335938 1511 l 1,21,-1
 437.319335938 1511 l 1,22,-1
 714.791015625 649 l 1,23,-1
 851.319335938 1511 l 1,0,-1
EndSplineSet
EndChar

StartChar: O
Encoding: 79 79 120
Width: 922
VWidth: 2424
GlyphClass: 2
Flags: HW
AnchorPoint: "Anchor-4" 504.738 756 basechar 0
AnchorPoint: "Anchor-3" 450.068 32 basechar 0
AnchorPoint: "Anchor-2" 387 0 basechar 0
AnchorPoint: "Anchor-1" 901.688 1406 basechar 0
AnchorPoint: "Anchor-0" 626.952 1515 basechar 0
LayerCount: 2
Fore
SplineSet
416.618164062 187 m 128,-1,1
 522.618164062 187 522.618164062 187 602.920898438 321.5 c 128,-1,2
 683.223632812 456 683.223632812 456 730.421875 754 c 0,3,4
 775.0859375 1036 775.0859375 1036 738.1015625 1175 c 128,-1,5
 701.1171875 1314 701.1171875 1314 595.1171875 1314 c 128,-1,6
 489.1171875 1314 489.1171875 1314 408.522460938 1174.5 c 128,-1,7
 327.927734375 1035 327.927734375 1035 283.421875 754 c 0,8,9
 236.223632812 456 236.223632812 456 273.420898438 321.5 c 128,-1,0
 310.618164062 187 310.618164062 187 416.618164062 187 c 128,-1,1
382.723632812 -27 m 0,10,11
 -62.2763671875 -27 -62.2763671875 -27 61.10546875 752 c 0,12,13
 121.924804688 1136 121.924804688 1136 266.046875 1332.5 c 128,-1,14
 410.169921875 1529 410.169921875 1529 629.169921875 1529 c 128,-1,15
 848.169921875 1529 848.169921875 1529 929.888671875 1331.5 c 128,-1,16
 1011.60839844 1134 1011.60839844 1134 951.10546875 752 c 0,17,18
 889.176757812 361 889.176757812 361 745.291992188 166 c 0,19,20
 602.8671875 -27.0205078125 602.8671875 -27.0205078125 387.15625 -27.0205078125 c 0,21,22
 384.943359375 -27.0205078125 384.943359375 -27.0205078125 382.723632812 -27 c 0,10,11
EndSplineSet
Substitution2: "Single Substitution lookup 29 subtable" ordmasculine
Substitution2: "'aalt' Access All Alternates in Latin lookup 0 subtable" ordmasculine
EndChar

StartChar: Oslash
Encoding: 216 216 148
Width: 922
VWidth: 2424
GlyphClass: 2
Flags: HW
AnchorPoint: "Anchor-4" 504.738 756 basechar 0
AnchorPoint: "Anchor-3" 450.068 32 basechar 0
AnchorPoint: "Anchor-2" 387 0 basechar 0
AnchorPoint: "Anchor-1" 901.688 1406 basechar 0
AnchorPoint: "Anchor-0" 626.952 1515 basechar 0
LayerCount: 2
Fore
SplineSet
416.618164062 187 m 0,0,1
 522.618164062 187 522.618164062 187 602.920898438 321.5 c 128,-1,2
 683.223632812 456 683.223632812 456 730.421875 754 c 0,3,4
 761.624023438 951 761.624023438 951 751.73828125 1078 c 1,5,-1
 289.921875 271 l 1,6,7
 329.618164062 187 329.618164062 187 416.618164062 187 c 0,0,1
283.421875 754 m 0,8,9
 255.86328125 580 255.86328125 580 257.540039062 458 c 1,10,-1
 710.505859375 1247 l 1,11,12
 670.1171875 1314 670.1171875 1314 595.1171875 1314 c 0,13,14
 489.1171875 1314 489.1171875 1314 408.6015625 1175 c 128,-1,15
 328.0859375 1036 328.0859375 1036 283.421875 754 c 0,8,9
60.568359375 -129 m 1,16,-1
 -43.294921875 -65 l 1,17,-1
 86.8662109375 157 l 1,18,19
 -1.931640625 354 -1.931640625 354 61.10546875 752 c 0,20,21
 121.924804688 1136 121.924804688 1136 266.046875 1332.5 c 128,-1,22
 410.169921875 1529 410.169921875 1529 629.169921875 1529 c 0,23,24
 755.169921875 1529 755.169921875 1529 834.875 1464 c 1,25,-1
 942.967773438 1654 l 1,26,-1
 1043.35644531 1587 l 1,27,-1
 916.194335938 1365 l 1,28,29
 1016.99316406 1168 1016.99316406 1168 951.10546875 752 c 0,30,31
 889.176757812 361 889.176757812 361 745.712890625 165.5 c 0,32,33
 604.416992188 -27.044921875 604.416992188 -27.044921875 389.341796875 -27.044921875 c 0,34,35
 386.041015625 -27.044921875 386.041015625 -27.044921875 382.723632812 -27 c 0,36,37
 246.723632812 -27 246.723632812 -27 163.760742188 49 c 1,38,-1
 60.568359375 -129 l 1,16,-1
EndSplineSet
EndChar

StartChar: OE
Encoding: 338 338 154
Width: 922
VWidth: 2424
GlyphClass: 1
Flags: HW
LayerCount: 2
Fore
SplineSet
279.626953125 206 m 0,0,1
 314.626953125 206 314.626953125 206 340.408203125 242.5 c 128,-1,2
 366.189453125 279 366.189453125 279 382.484375 344 c 1,3,-1
 511.567382812 1159 l 1,4,5
 512.654296875 1229 512.654296875 1229 497.043945312 1272.5 c 128,-1,6
 481.43359375 1316 481.43359375 1316 441.43359375 1316 c 0,7,8
 406.43359375 1316 406.43359375 1316 370.751953125 1267.5 c 128,-1,9
 335.0703125 1219 335.0703125 1219 300.40625 1098 c 128,-1,10
 265.741210938 977 265.741210938 977 231.213867188 759 c 0,11,12
 188.291992188 488 188.291992188 488 197.458984375 347 c 128,-1,13
 206.626953125 206 206.626953125 206 279.626953125 206 c 0,0,1
218.307617188 -17 m 0,14,15
 79.3076171875 -17 79.3076171875 -17 21.3955078125 163.5 c 128,-1,16
 -36.515625 344 -36.515625 344 28.73828125 756 c 0,17,18
 91.775390625 1154 91.775390625 1154 204.709960938 1343 c 128,-1,19
 317.64453125 1532 317.64453125 1532 469.64453125 1532 c 0,20,21
 496.64453125 1532 496.64453125 1532 524.190429688 1516.5 c 128,-1,22
 551.735351562 1501 551.735351562 1501 570.983398438 1471 c 1,23,-1
 577.635742188 1513 l 1,24,-1
 1038.63574219 1513 l 1,25,-1
 1004.89941406 1300 l 1,26,-1
 729.899414062 1300 l 1,27,-1
 665.75390625 895 l 1,28,-1
 898.75390625 895 l 1,29,-1
 864.384765625 678 l 1,30,-1
 631.384765625 678 l 1,31,-1
 557.736328125 213 l 1,32,-1
 828.736328125 213 l 1,33,-1
 795 0 l 1,34,-1
 336 0 l 1,35,-1
 342.494140625 41 l 1,36,37
 283.307617188 -17 283.307617188 -17 218.307617188 -17 c 0,14,15
EndSplineSet
EndChar

StartChar: P
Encoding: 80 80 155
Width: 922
VWidth: 2424
GlyphClass: 2
Flags: HW
AnchorPoint: "Anchor-2" 283 0 basechar 0
AnchorPoint: "Anchor-0" 671.319 1511 basechar 0
LayerCount: 2
Fore
SplineSet
389.260742188 854 m 1,0,-1
 578.260742188 854 l 2,1,2
 676.260742188 854 676.260742188 854 738.60546875 913 c 128,-1,3
 800.94921875 972 800.94921875 972 815.99609375 1067 c 0,4,5
 831.67578125 1166 831.67578125 1166 788.362304688 1224 c 128,-1,6
 745.048828125 1282 745.048828125 1282 649.048828125 1282 c 2,7,-1
 457.048828125 1282 l 1,8,-1
 389.260742188 854 l 1,0,-1
6 0 m 1,9,-1
 245.319335938 1511 l 1,10,-1
 689.319335938 1511 l 2,11,12
 916.319335938 1511 916.319335938 1511 1005.78320312 1384.5 c 128,-1,13
 1095.24804688 1258 1095.24804688 1258 1065.3125 1069 c 0,14,15
 1035.6953125 882 1035.6953125 882 907.9765625 757.5 c 128,-1,16
 780.2578125 633 780.2578125 633 559.2578125 633 c 2,17,-1
 354.2578125 633 l 1,18,-1
 254 0 l 1,19,-1
 6 0 l 1,9,-1
EndSplineSet
EndChar

StartChar: Thorn
Encoding: 222 222 156
Width: 922
VWidth: 2424
GlyphClass: 1
Flags: HW
LayerCount: 2
Fore
SplineSet
346.595703125 572 m 1,0,-1
 538.595703125 572 l 2,1,2
 645.595703125 572 645.595703125 572 704.57421875 635 c 128,-1,3
 763.552734375 698 763.552734375 698 778.598632812 793 c 0,4,5
 792.853515625 883 792.853515625 883 754.098632812 954 c 128,-1,6
 715.34375 1025 715.34375 1025 608.34375 1025 c 2,7,-1
 421.34375 1025 l 1,8,-1
 346.595703125 572 l 1,0,-1
9 0 m 1,9,-1
 248.319335938 1511 l 1,10,-1
 512.319335938 1511 l 1,11,12
 516.52734375 1506 516.52734375 1506 515.735351562 1501 c 0,13,14
 514.309570312 1492 514.309570312 1492 503.830078125 1479.5 c 128,-1,15
 493.349609375 1467 493.349609375 1467 485.806640625 1432 c 2,16,-1
 456.030273438 1244 l 1,17,-1
 652.030273438 1244 l 2,18,19
 806.030273438 1244 806.030273438 1244 894.606445312 1184.5 c 128,-1,20
 983.182617188 1125 983.182617188 1125 1014.18554688 1024 c 128,-1,21
 1045.18847656 923 1045.18847656 923 1025.390625 798 c 0,22,23
 995.456054688 609 995.456054688 609 870.658203125 484 c 128,-1,24
 745.860351562 359 745.860351562 359 518.860351562 359 c 2,25,-1
 312.860351562 359 l 1,26,-1
 256 0 l 1,27,-1
 9 0 l 1,9,-1
EndSplineSet
EndChar

StartChar: Q
Encoding: 81 81 157
Width: 922
VWidth: 2372
GlyphClass: 2
Flags: HW
AnchorPoint: "Anchor-2" 401.621 86 basechar 0
AnchorPoint: "Anchor-0" 627.478 1512 basechar 0
LayerCount: 2
Fore
SplineSet
436.2890625 267 m 0,0,1
 526.2890625 267 526.2890625 267 611.13671875 386 c 128,-1,2
 695.984375 505 695.984375 505 739.540039062 780 c 0,3,4
 772.166992188 986 772.166992188 986 759.33203125 1107 c 128,-1,5
 746.49609375 1228 746.49609375 1228 702.994140625 1278.5 c 128,-1,6
 659.493164062 1329 659.493164062 1329 602.493164062 1329 c 0,7,8
 495.493164062 1329 495.493164062 1329 414.665039062 1197.5 c 128,-1,9
 333.837890625 1066 333.837890625 1066 294.875 820 c 0,10,11
 250.685546875 541 250.685546875 541 291.487304688 404 c 128,-1,12
 332.2890625 267 332.2890625 267 436.2890625 267 c 0,0,1
600.037109375 -246 m 1,13,14
 589.850585938 -246.220703125 589.850585938 -246.220703125 580.017578125 -246.220703125 c 0,15,16
 411.616210938 -246.220703125 411.616210938 -246.220703125 346.752929688 -181.5 c 0,17,18
 278.102539062 -113 278.102539062 -113 302.5625 73 c 1,19,20
 152.055664062 114 152.055664062 114 86.14453125 294.5 c 128,-1,21
 20.232421875 475 20.232421875 475 71.07421875 796 c 0,22,23
 114.629882812 1071 114.629882812 1071 202.05078125 1231.5 c 128,-1,24
 289.470703125 1392 289.470703125 1392 402.057617188 1462 c 128,-1,25
 514.64453125 1532 514.64453125 1532 632.64453125 1532 c 0,26,27
 758.64453125 1532 758.64453125 1532 848.50390625 1458.5 c 128,-1,28
 938.362304688 1385 938.362304688 1385 970.862304688 1224 c 128,-1,29
 1003.36230469 1063 1003.36230469 1063 961.390625 798 c 0,30,31
 907.064453125 455 907.064453125 455 789.21875 285.5 c 128,-1,32
 671.373046875 116 671.373046875 116 511.87890625 75 c 1,33,34
 504.534179688 16 504.534179688 16 522.728515625 -17.5 c 0,35,36
 539.897460938 -49.1123046875 539.897460938 -49.1123046875 593.686523438 -49.1123046875 c 0,37,38
 596.897460938 -49.1123046875 596.897460938 -49.1123046875 600.239257812 -49 c 2,39,-1
 755.665039062 -40 l 1,40,-1
 716.037109375 -246 l 1,41,-1
 600.037109375 -246 l 1,13,14
EndSplineSet
EndChar

StartChar: R
Encoding: 82 82 158
Width: 922
VWidth: 2424
GlyphClass: 2
Flags: HW
AnchorPoint: "Anchor-2" 421 0 basechar 0
AnchorPoint: "Anchor-0" 660.319 1511 basechar 0
LayerCount: 2
Fore
SplineSet
376.46875 849 m 1,0,-1
 553.46875 849 l 2,1,2
 745.46875 849 745.46875 849 779.521484375 1064 c 0,3,4
 794.884765625 1161 794.884765625 1161 754.966796875 1221.5 c 128,-1,5
 715.048828125 1282 715.048828125 1282 622.048828125 1282 c 2,6,-1
 445.048828125 1282 l 1,7,-1
 376.46875 849 l 1,0,-1
0 0 m 1,8,-1
 239.319335938 1511 l 1,9,-1
 641.319335938 1511 l 2,10,11
 874.319335938 1511 874.319335938 1511 965.470703125 1392 c 128,-1,12
 1056.62304688 1273 1056.62304688 1273 1024.3125 1069 c 0,13,14
 1002.29785156 930 1002.29785156 930 919.321289062 816.5 c 128,-1,15
 836.344726562 703 836.344726562 703 719.05859375 657 c 1,16,-1
 890 0 l 1,17,-1
 642 0 l 1,18,-1
 483.782226562 630 l 1,19,-1
 341.782226562 630 l 1,20,-1
 242 0 l 1,21,-1
 0 0 l 1,8,-1
EndSplineSet
EndChar

StartChar: S
Encoding: 83 83 166
Width: 922
VWidth: 2424
GlyphClass: 2
Flags: HW
AnchorPoint: "Anchor-2" 429 0 basechar 0
AnchorPoint: "Anchor-0" 675.319 1511 basechar 0
LayerCount: 2
Fore
SplineSet
403.723632812 -27 m 0,0,1
 271.723632812 -27 271.723632812 -27 166.955078125 15.5 c 128,-1,2
 62.1865234375 58 62.1865234375 58 0.1240234375 146 c 1,3,-1
 149.760742188 371 l 1,4,-1
 161.928710938 391 l 1,5,-1
 180.344726562 381 l 1,6,7
 184.334960938 362 184.334960938 362 187.008789062 341 c 128,-1,8
 189.682617188 320 189.682617188 320 210.08984375 291 c 1,9,10
 254.12109375 247 254.12109375 247 311.923828125 220.5 c 128,-1,11
 369.7265625 194 369.7265625 194 441.7265625 194 c 0,12,13
 538.7265625 194 538.7265625 194 606.462890625 246 c 128,-1,14
 674.198242188 298 674.198242188 298 690.037109375 398 c 0,15,16
 698.114257812 449 698.114257812 449 687.50390625 492.5 c 128,-1,17
 676.89453125 536 676.89453125 536 631.442382812 580.5 c 128,-1,18
 585.990234375 625 585.990234375 625 488.859375 681 c 0,19,20
 306.540039062 780 306.540039062 780 246.487304688 887 c 128,-1,21
 186.434570312 994 186.434570312 994 210.666992188 1147 c 0,22,23
 228.72265625 1261 228.72265625 1261 295.001953125 1348 c 128,-1,24
 361.28125 1435 361.28125 1435 462.622070312 1484.5 c 128,-1,25
 563.961914062 1534 563.961914062 1534 680.961914062 1534 c 0,26,27
 924.961914062 1534 924.961914062 1534 1045.97753906 1351 c 1,28,-1
 885.359375 1164 l 1,29,-1
 870.350585938 1145 l 1,30,-1
 854.567382812 1159 l 1,31,32
 853.259765625 1176 853.259765625 1176 853.165039062 1197.5 c 128,-1,33
 853.0703125 1219 853.0703125 1219 831.822265625 1249 c 0,34,35
 799.31640625 1290 799.31640625 1290 756.375 1303 c 128,-1,36
 713.43359375 1316 713.43359375 1316 653.43359375 1316 c 0,37,38
 570.43359375 1316 570.43359375 1316 514.806640625 1271 c 128,-1,39
 459.1796875 1226 459.1796875 1226 448.250976562 1157 c 0,40,41
 440.172851562 1106 440.172851562 1106 452.100585938 1064.5 c 128,-1,42
 464.02734375 1023 464.02734375 1023 514.137695312 979.5 c 128,-1,43
 564.248046875 936 564.248046875 936 668.5859375 875 c 0,44,45
 786.974609375 808 786.974609375 808 849.521484375 742 c 128,-1,46
 912.068359375 676 912.068359375 676 930.634765625 597.5 c 128,-1,47
 949.201171875 519 949.201171875 519 933.045898438 417 c 0,48,49
 914.673828125 301 914.673828125 301 849.018554688 199 c 128,-1,50
 783.36328125 97 783.36328125 97 670.54296875 35 c 128,-1,51
 557.723632812 -27 557.723632812 -27 403.723632812 -27 c 0,0,1
EndSplineSet
EndChar

StartChar: uni1E9E
Encoding: 7838 7838 177
Width: 922
VWidth: 2424
GlyphClass: 1
Flags: HW
LayerCount: 2
Fore
SplineSet
512.248046875 -30 m 0,0,1
 445.248046875 -30 445.248046875 -30 393.678710938 -11.5 c 128,-1,2
 342.108398438 7 342.108398438 7 305.494140625 41 c 1,3,-1
 409.012695312 240 l 1,4,5
 449.426757812 191.98046875 449.426757812 191.98046875 511.852539062 191.98046875 c 0,0,0
 513.126953125 191.98046875 513.126953125 191.98046875 514.41015625 192 c 0,6,7
 581.41015625 192 581.41015625 192 640.234375 263.5 c 128,-1,8
 699.05859375 335 699.05859375 335 717.748046875 453 c 0,9,10
 729.626953125 528 729.626953125 528 717.842773438 592.5 c 128,-1,11
 706.05859375 657 706.05859375 657 659.235351562 696 c 128,-1,12
 612.412109375 735 612.412109375 735 519.412109375 735 c 2,13,-1
 459.412109375 735 l 1,14,-1
 492.83203125 946 l 1,15,-1
 760.853515625 1205 l 1,16,17
 773.424804688 1297 773.424804688 1297 745.348632812 1356.5 c 128,-1,18
 717.272460938 1416 717.272460938 1416 639.272460938 1416 c 0,19,20
 568.272460938 1416 568.272460938 1416 501.106445312 1345.5 c 128,-1,21
 433.940429688 1275 433.940429688 1275 410.499023438 1127 c 2,22,-1
 232 0 l 1,23,-1
 -8 0 l 1,24,-1
 164.797851562 1091 l 2,25,26
 195.524414062 1285 195.524414062 1285 271.79296875 1403.5 c 128,-1,27
 348.061523438 1522 348.061523438 1522 451.53515625 1575.5 c 128,-1,28
 555.0078125 1629 555.0078125 1629 668.0078125 1629 c 0,29,30
 855.0078125 1629 855.0078125 1629 932.997070312 1499.5 c 128,-1,31
 1010.98632812 1370 1010.98632812 1370 979.78515625 1173 c 1,32,-1
 714.188476562 923 l 1,33,34
 864.219726562 879 864.219726562 879 922.208984375 749.5 c 128,-1,35
 980.198242188 620 980.198242188 620 951.53125 439 c 0,36,37
 917.002929688 221 917.002929688 221 797.625976562 95.5 c 128,-1,38
 678.248046875 -30 678.248046875 -30 512.248046875 -30 c 0,0,1
EndSplineSet
EndChar

StartChar: T
Encoding: 84 84 179
Width: 922
VWidth: 2424
GlyphClass: 2
Flags: HW
AnchorPoint: "Anchor-4" 506.738 756 basechar 0
AnchorPoint: "Anchor-2" 398 0 basechar 0
AnchorPoint: "Anchor-0" 637.319 1511 basechar 0
LayerCount: 2
Fore
SplineSet
277 0 m 1,0,-1
 480.840820312 1287 l 1,1,-1
 155.840820312 1287 l 1,2,-1
 191.635742188 1513 l 1,3,-1
 1081.63574219 1513 l 1,4,-1
 1045.84082031 1287 l 1,5,-1
 701.840820312 1287 l 1,6,-1
 498 0 l 1,7,-1
 277 0 l 1,0,-1
EndSplineSet
EndChar

StartChar: Tbar
Encoding: 358 358 180
Width: 922
VWidth: 2424
GlyphClass: 2
Flags: HW
AnchorPoint: "Anchor-4" 506.738 756 basechar 0
AnchorPoint: "Anchor-2" 398 0 basechar 0
AnchorPoint: "Anchor-0" 637.319 1511 basechar 0
LayerCount: 2
Fore
SplineSet
277 0 m 1,0,-1
 383.750976562 674 l 1,1,-1
 152.750976562 674 l 1,2,-1
 180.78515625 851 l 1,3,-1
 411.78515625 851 l 1,4,-1
 480.840820312 1287 l 1,5,-1
 155.840820312 1287 l 1,6,-1
 191.635742188 1513 l 1,7,-1
 1081.63574219 1513 l 1,8,-1
 1045.84082031 1287 l 1,9,-1
 701.840820312 1287 l 1,10,-1
 632.78515625 851 l 1,11,-1
 860.78515625 851 l 1,12,-1
 832.750976562 674 l 1,13,-1
 604.750976562 674 l 1,14,-1
 498 0 l 1,15,-1
 277 0 l 1,0,-1
EndSplineSet
EndChar

StartChar: U
Encoding: 85 85 186
Width: 922
VWidth: 2424
GlyphClass: 2
Flags: HW
AnchorPoint: "Anchor-3" 501.801 24 basechar 0
AnchorPoint: "Anchor-2" 427 0 basechar 0
AnchorPoint: "Anchor-1" 1101.32 1511 basechar 0
AnchorPoint: "Anchor-0" 666.319 1511 basechar 0
LayerCount: 2
Fore
SplineSet
422.248046875 -30 m 0,0,1
 419.241210938 -30.02734375 419.241210938 -30.02734375 416.2578125 -30.02734375 c 0,2,3
 200.71484375 -30.02734375 200.71484375 -30.02734375 112.818359375 112.5 c 0,4,5
 23.705078125 257 23.705078125 257 64.7265625 516 c 2,6,-1
 222.319335938 1511 l 1,7,-1
 483.319335938 1511 l 1,8,-1
 479.67578125 1488 l 1,9,10
 466.458984375 1474 466.458984375 1474 460.345703125 1457.5 c 128,-1,11
 454.232421875 1441 454.232421875 1441 447.580078125 1399 c 2,12,-1
 307.409179688 514 l 2,13,14
 282.860351562 359 282.860351562 359 312.581054688 272 c 128,-1,15
 342.30078125 185 342.30078125 185 458.30078125 185 c 0,16,17
 575.30078125 185 575.30078125 185 633.397460938 274 c 128,-1,18
 691.493164062 363 691.493164062 363 716.518554688 521 c 2,19,-1
 873.319335938 1511 l 1,20,-1
 1112.31933594 1511 l 1,21,-1
 955.834960938 523 l 2,22,23
 910.061523438 234 910.061523438 234 767.655273438 102 c 128,-1,24
 625.248046875 -30 625.248046875 -30 422.248046875 -30 c 0,0,1
EndSplineSet
EndChar

StartChar: V
Encoding: 86 86 209
Width: 922
VWidth: 2424
GlyphClass: 2
Flags: HW
AnchorPoint: "Anchor-2" 378 0 basechar 0
AnchorPoint: "Anchor-0" 617.319 1511 basechar 0
LayerCount: 2
Fore
SplineSet
309.208007812 -5 m 1,0,-1
 177.635742188 1513 l 1,1,-1
 395.635742188 1513 l 1,2,-1
 467.33203125 463 l 1,3,-1
 857.319335938 1511 l 1,4,-1
 1067.31933594 1511 l 1,5,-1
 460.208007812 -5 l 1,6,-1
 309.208007812 -5 l 1,0,-1
EndSplineSet
EndChar

StartChar: W
Encoding: 87 87 210
Width: 922
VWidth: 2424
GlyphClass: 2
Flags: HW
AnchorPoint: "Anchor-2" 364 0 basechar 0
AnchorPoint: "Anchor-0" 612.319 1511 basechar 0
LayerCount: 2
Fore
SplineSet
71 0 m 1,0,-1
 158.319335938 1511 l 1,1,-1
 341.319335938 1511 l 1,2,-1
 272.655273438 585 l 1,3,-1
 540.620117188 1374 l 1,4,-1
 650.620117188 1374 l 1,5,-1
 670.971679688 587 l 1,6,-1
 874.319335938 1511 l 1,7,-1
 1048.31933594 1511 l 1,8,-1
 660 0 l 1,9,-1
 529 0 l 1,10,-1
 511.545898438 900 l 1,11,-1
 206 0 l 1,12,-1
 71 0 l 1,0,-1
EndSplineSet
EndChar

StartChar: X
Encoding: 88 88 215
Width: 922
VWidth: 2424
GlyphClass: 2
Flags: HW
AnchorPoint: "Anchor-2" 398 0 basechar 0
AnchorPoint: "Anchor-0" 637.319 1511 basechar 0
LayerCount: 2
Fore
SplineSet
-35 0 m 1,0,-1
 402.114257812 771 l 1,1,-1
 208.635742188 1513 l 1,2,-1
 437.635742188 1513 l 1,3,-1
 562.918945312 1016 l 1,4,-1
 838.635742188 1513 l 1,5,-1
 1056.63574219 1513 l 1,6,-1
 649.431640625 773 l 1,7,-1
 855 0 l 1,8,-1
 619 0 l 1,9,-1
 484.518554688 521 l 1,10,-1
 194 0 l 1,11,-1
 -35 0 l 1,0,-1
EndSplineSet
EndChar

StartChar: Y
Encoding: 89 89 216
Width: 922
VWidth: 2424
GlyphClass: 2
Flags: HW
AnchorPoint: "Anchor-2" 399 0 basechar 0
AnchorPoint: "Anchor-0" 620.319 1511 basechar 0
LayerCount: 2
Fore
SplineSet
288 0 m 1,0,-1
 380.971679688 587 l 1,1,-1
 179.319335938 1511 l 1,2,-1
 405.319335938 1511 l 1,3,-1
 539.903320312 877 l 1,4,-1
 852.319335938 1511 l 1,5,-1
 1069.31933594 1511 l 1,6,-1
 600.655273438 585 l 1,7,-1
 508 0 l 1,8,-1
 288 0 l 1,0,-1
EndSplineSet
EndChar

StartChar: Z
Encoding: 90 90 226
Width: 922
VWidth: 2424
GlyphClass: 2
Flags: HW
AnchorPoint: "Anchor-2" 451 0 basechar 0
AnchorPoint: "Anchor-0" 673.319 1511 basechar 0
LayerCount: 2
Fore
SplineSet
10.658203125 162 m 1,0,-1
 769.840820312 1287 l 1,1,-1
 210.840820312 1287 l 1,2,-1
 246.319335938 1511 l 1,3,-1
 1082.31933594 1511 l 1,4,-1
 1056.50195312 1348 l 1,5,-1
 308.844726562 220 l 1,6,-1
 805.844726562 220 l 2,7,8
 841.844726562 220 841.844726562 220 859.715820312 225.5 c 128,-1,9
 877.586914062 231 877.586914062 231 892.803710938 245 c 1,10,-1
 913.803710938 245 l 1,11,-1
 875 0 l 1,12,-1
 -15 0 l 1,13,-1
 10.658203125 162 l 1,0,-1
EndSplineSet
EndChar

StartChar: a
Encoding: 97 97 232
Width: 922
VWidth: 2424
GlyphClass: 2
Flags: HW
AnchorPoint: "Anchor-3" 716 0 basechar 0
AnchorPoint: "Anchor-2" 435 0 basechar 0
AnchorPoint: "Anchor-0" 609.599 1115 basechar 0
LayerCount: 2
Fore
SplineSet
282.31640625 324 m 0,0,1
 269.962890625 246 269.962890625 246 307.077148438 212 c 128,-1,2
 344.192382812 178 344.192382812 178 409.192382812 178 c 0,3,4
 523.192382812 178 523.192382812 178 597.284179688 257.5 c 128,-1,5
 671.375976562 337 671.375976562 337 712.409179688 514 c 1,6,7
 685.409179688 514 685.409179688 514 660.409179688 514 c 128,-1,8
 635.409179688 514 635.409179688 514 614.409179688 514 c 0,9,10
 450.409179688 514 450.409179688 514 373.33203125 463 c 128,-1,11
 296.25390625 412 296.25390625 412 282.31640625 324 c 0,0,1
326.723632812 -27 m 0,12,13
 160.723632812 -27 160.723632812 -27 83.740234375 61.5 c 128,-1,14
 6.7578125 150 6.7578125 150 29.08984375 291 c 0,15,16
 59.0244140625 480 59.0244140625 480 219.421875 593 c 128,-1,17
 379.819335938 706 379.819335938 706 646.819335938 706 c 0,18,19
 687.819335938 706 687.819335938 706 739.02734375 701 c 1,20,21
 748.46875 849 748.46875 849 702.30859375 898.5 c 128,-1,22
 656.1484375 948 656.1484375 948 561.1484375 948 c 0,23,24
 492.1484375 948 492.1484375 948 428.34765625 924 c 128,-1,25
 364.545898438 900 364.545898438 900 295.567382812 837 c 1,26,-1
 186.1171875 992 l 1,27,28
 283.580078125 1077 283.580078125 1077 391.177734375 1115.5 c 128,-1,29
 498.775390625 1154 498.775390625 1154 607.775390625 1154 c 0,30,31
 736.775390625 1154 736.775390625 1154 830.6484375 1109 c 128,-1,32
 924.521484375 1064 924.521484375 1064 965.440429688 953 c 128,-1,33
 1006.359375 842 1006.359375 842 974.048828125 638 c 2,34,-1
 873 0 l 1,35,-1
 618 0 l 1,36,-1
 636.689453125 118 l 1,37,38
 568.54296875 35 568.54296875 35 493.133789062 4 c 128,-1,39
 417.723632812 -27 417.723632812 -27 326.723632812 -27 c 0,12,13
EndSplineSet
Substitution2: "Single Substitution lookup 29 subtable" ordfeminine
Substitution2: "'aalt' Access All Alternates in Latin lookup 0 subtable" ordfeminine
EndChar

StartChar: ae
Encoding: 230 230 257
Width: 922
VWidth: 2424
GlyphClass: 1
Flags: HW
LayerCount: 2
Fore
SplineSet
188.450195312 167 m 0,0,1
 245.450195312 167 245.450195312 167 278.595703125 250 c 128,-1,2
 311.7421875 333 311.7421875 333 340.409179688 514 c 1,3,4
 236.618164062 509 236.618164062 509 186.08984375 452 c 128,-1,5
 135.561523438 395 135.561523438 395 122.099609375 310 c 0,6,7
 100.450195312 167 100.450195312 167 188.450195312 167 c 0,0,1
535.453125 710 m 1,8,-1
 739.561523438 717 l 1,9,10
 758.7265625 838 758.7265625 838 741.229492188 898 c 128,-1,11
 723.732421875 958 723.732421875 958 677.732421875 958 c 0,12,13
 633.732421875 958 633.732421875 958 593.779296875 892 c 128,-1,14
 553.825195312 826 553.825195312 826 535.453125 710 c 1,8,-1
146.248046875 -30 m 0,15,16
 38.248046875 -30 38.248046875 -30 -21.1552734375 59 c 128,-1,17
 -80.5595703125 148 -80.5595703125 148 -54.900390625 310 c 0,18,19
 -26.7080078125 488 -26.7080078125 488 84.3671875 589.5 c 128,-1,20
 195.443359375 691 195.443359375 691 366.02734375 701 c 1,21,22
 385.825195312 826 385.825195312 826 364.279296875 892 c 128,-1,23
 342.732421875 958 342.732421875 958 292.732421875 958 c 0,24,25
 222.732421875 958 222.732421875 958 151.260742188 854 c 1,26,-1
 83.017578125 1004 l 1,27,28
 193.385742188 1149.00683594 193.385742188 1149.00683594 341.947265625 1149.00683594 c 0,29,30
 342.96484375 1149.00683594 342.96484375 1149.00683594 343.983398438 1149 c 0,31,32
 402.983398438 1149 402.983398438 1149 451.490234375 1108 c 128,-1,33
 499.99609375 1067 499.99609375 1067 515.443359375 1013 c 1,34,35
 550.629882812 1071 550.629882812 1071 603.306640625 1110 c 128,-1,36
 655.983398438 1149 655.983398438 1149 707.983398438 1149 c 0,37,38
 837.983398438 1149 837.983398438 1149 876.577148438 1017 c 128,-1,39
 915.169921875 885 915.169921875 885 878.266601562 652 c 2,40,-1
 861.477539062 546 l 1,41,-1
 506.310546875 526 l 1,42,-1
 490.947265625 429 l 2,43,44
 472.2578125 311 472.2578125 311 498.458007812 236.5 c 128,-1,45
 524.658203125 162 524.658203125 162 591.658203125 162 c 0,46,47
 669.658203125 162 669.658203125 162 736.497070312 262 c 1,48,-1
 804.055664062 114 l 1,49,50
 688.407226562 -29 688.407226562 -29 551.248046875 -30 c 0,51,52
 490.248046875 -30 490.248046875 -30 441.266601562 8 c 128,-1,53
 392.286132812 46 392.286132812 46 367.055664062 114 c 1,54,55
 324.760742188 49 324.760742188 49 264.004882812 9.5 c 128,-1,56
 203.248046875 -30 203.248046875 -30 146.248046875 -30 c 0,15,16
EndSplineSet
EndChar

StartChar: b
Encoding: 98 98 259
Width: 922
VWidth: 2424
GlyphClass: 2
Flags: HW
AnchorPoint: "Anchor-2" 506 0 basechar 0
AnchorPoint: "Anchor-0" 683.391 1120 basechar 0
LayerCount: 2
Fore
SplineSet
470.508789062 180 m 0,0,1
 528.508789062 180 528.508789062 180 580.815429688 213.5 c 128,-1,2
 633.12109375 247 633.12109375 247 675.1875 329.5 c 128,-1,3
 717.25390625 412 717.25390625 412 739.903320312 555 c 0,4,5
 771.73828125 756 771.73828125 756 732.83984375 854.5 c 128,-1,6
 693.940429688 953 693.940429688 953 596.940429688 953 c 0,7,8
 505.940429688 953 505.940429688 953 437.180664062 853.5 c 128,-1,9
 368.421875 754 368.421875 754 338.803710938 567 c 0,10,11
 338.161132812 563.071289062 338.161132812 563.071289062 337.545898438 559.181640625 c 0,12,13
 277.489257812 180 277.489257812 180 470.508789062 180 c 0,0,1
485.723632812 -27 m 0,14,15
 406.723632812 -27 406.723632812 -27 344.7421875 11 c 128,-1,16
 282.760742188 49 282.760742188 49 248.797851562 125 c 1,17,-1
 191 0 l 1,18,-1
 3 0 l 1,19,-1
 260.216796875 1624 l 1,20,-1
 524.216796875 1624 l 1,21,-1
 520.890625 1603 l 1,22,23
 504.672851562 1589 504.672851562 1589 498.743164062 1570.5 c 128,-1,24
 492.8125 1552 492.8125 1552 486.635742188 1513 c 2,25,-1
 404.909179688 997 l 1,26,27
 458.788085938 1072 458.788085938 1072 535.01953125 1114.5 c 0,28,29
 606.224609375 1154.19824219 606.224609375 1154.19824219 676.813476562 1154.19824219 c 0,30,31
 681.795898438 1154.19824219 681.795898438 1154.19824219 686.775390625 1154 c 0,32,33
 863.775390625 1154 863.775390625 1154 948.077148438 1017 c 128,-1,34
 1032.37792969 880 1032.37792969 880 984.705078125 579 c 0,35,36
 950.65234375 364 950.65234375 364 873.849609375 229.5 c 128,-1,37
 797.046875 95 797.046875 95 694.384765625 34 c 128,-1,38
 591.723632812 -27 591.723632812 -27 485.723632812 -27 c 0,14,15
EndSplineSet
EndChar

StartChar: c
Encoding: 99 99 261
Width: 922
VWidth: 2424
GlyphClass: 2
Flags: HW
AnchorPoint: "Anchor-2" 486 0 basechar 0
AnchorPoint: "Anchor-0" 664.183 1125 basechar 0
LayerCount: 2
Fore
SplineSet
485.723632812 -27 m 0,0,1
 341.723632812 -27 341.723632812 -27 239.547851562 44.5 c 128,-1,2
 137.373046875 116 137.373046875 116 93.62109375 247 c 128,-1,3
 49.869140625 378 49.869140625 378 77.9033203125 555 c 0,4,5
 106.412109375 735 106.412109375 735 193.21484375 869.5 c 128,-1,6
 280.017578125 1004 280.017578125 1004 404.396484375 1079 c 128,-1,7
 528.775390625 1154 528.775390625 1154 670.775390625 1154 c 0,8,9
 805.775390625 1154 805.775390625 1154 896.643554688 1099.5 c 128,-1,10
 987.51171875 1045 987.51171875 1045 1030.1484375 948 c 1,11,-1
 877.173828125 784 l 1,12,-1
 859.322265625 766 l 1,13,-1
 845.22265625 778 l 1,14,15
 846.232421875 797 846.232421875 797 846.05859375 818 c 128,-1,16
 845.884765625 839 845.884765625 839 824.477539062 868 c 0,17,18
 793.654296875 907 793.654296875 907 748.688476562 923 c 128,-1,19
 703.72265625 939 703.72265625 939 643.72265625 939 c 0,20,21
 541.72265625 939 541.72265625 939 448.4140625 845.5 c 128,-1,22
 355.10546875 752 355.10546875 752 324.37890625 558 c 0,23,24
 295.869140625 378 295.869140625 378 360.243164062 282.5 c 128,-1,25
 424.618164062 187 424.618164062 187 531.618164062 187 c 0,26,27
 596.618164062 187 596.618164062 187 662.7109375 216 c 128,-1,28
 728.803710938 245 728.803710938 245 793.208007812 317 c 1,29,-1
 890.649414062 143 l 1,30,31
 801.39453125 53 801.39453125 53 695.55859375 13 c 128,-1,32
 589.723632812 -27 589.723632812 -27 485.723632812 -27 c 0,0,1
EndSplineSet
EndChar

StartChar: d
Encoding: 100 100 268
Width: 922
VWidth: 2424
GlyphClass: 2
Flags: HW
AnchorPoint: "Anchor-4" 868.502 1348 basechar 0
AnchorPoint: "Anchor-2" 425 0 basechar 0
AnchorPoint: "Anchor-1" 1060.39 1120 basechar 0
AnchorPoint: "Anchor-0" 602.391 1120 basechar 0
LayerCount: 2
Fore
SplineSet
442.618164062 187 m 0,0,1
 630.623046875 187 630.623046875 187 689.864257812 561.03125 c 0,2,3
 751.62890625 951 751.62890625 951 558.624023438 951 c 0,4,5
 461.624023438 951 461.624023438 951 395.918945312 855 c 128,-1,6
 330.213867188 759 330.213867188 759 301.387695312 577 c 0,7,8
 270.661132812 383 270.661132812 383 313.639648438 285 c 128,-1,9
 356.618164062 187 356.618164062 187 442.618164062 187 c 0,0,1
365.723632812 -27 m 0,10,11
 259.723632812 -27 259.723632812 -27 179.54296875 35 c 128,-1,12
 99.36328125 97 99.36328125 97 65.611328125 228 c 128,-1,13
 31.8603515625 359 31.8603515625 359 64.8037109375 567 c 0,14,15
 97.431640625 773 97.431640625 773 169.942382812 902.5 c 128,-1,16
 242.453125 1032 242.453125 1032 341.8515625 1094.5 c 128,-1,17
 441.250976562 1157 441.250976562 1157 555.250976562 1157 c 0,18,19
 632.250976562 1157 632.250976562 1157 688.524414062 1124 c 128,-1,20
 744.797851562 1091 744.797851562 1091 765.918945312 1016 c 1,21,-1
 862.216796875 1624 l 1,22,-1
 1119.21679688 1624 l 1,23,-1
 1115.890625 1603 l 1,24,25
 1102.67285156 1589 1102.67285156 1589 1096.24316406 1570.5 c 128,-1,26
 1089.8125 1552 1089.8125 1552 1083.63574219 1513 c 2,27,-1
 865.549804688 155 l 2,28,29
 859.373046875 116 859.373046875 116 857.274414062 77.5 c 128,-1,30
 855.176757812 39 855.176757812 39 865 0 c 1,31,-1
 627 0 l 1,32,33
 618.860351562 37 618.860351562 37 619.661132812 61 c 128,-1,34
 620.462890625 85 620.462890625 85 626.481445312 123 c 1,35,36
 575.602539062 48 575.602539062 48 507.663085938 10.5 c 128,-1,37
 439.723632812 -27 439.723632812 -27 365.723632812 -27 c 0,10,11
EndSplineSet
EndChar

StartChar: eth
Encoding: 240 240 269
Width: 922
VWidth: 2424
GlyphClass: 1
Flags: HW
LayerCount: 2
Fore
SplineSet
460.508789062 180 m 0,0,1
 542.508789062 180 542.508789062 180 615.842773438 270.5 c 128,-1,2
 689.176757812 361 689.176757812 361 720.37890625 558 c 0,3,4
 750.313476562 747 750.313476562 747 700.750976562 835 c 128,-1,5
 651.188476562 923 651.188476562 923 573.188476562 923 c 128,-1,6
 495.188476562 923 495.188476562 923 416.35546875 832.5 c 128,-1,7
 337.521484375 742 337.521484375 742 308.37890625 558 c 0,8,9
 280.186523438 380 280.186523438 380 326.84765625 280 c 128,-1,10
 373.508789062 180 373.508789062 180 460.508789062 180 c 0,0,1
423.615234375 -34 m 0,11,12
 293.615234375 -34 293.615234375 -34 201.989257812 31.5 c 128,-1,13
 110.36328125 97 110.36328125 97 71.0576171875 224.5 c 128,-1,14
 31.7509765625 352 31.7509765625 352 60.89453125 536 c 0,15,16
 89.4033203125 716 89.4033203125 716 165.864257812 851.5 c 128,-1,17
 242.325195312 987 242.325195312 987 345.283203125 1062.5 c 128,-1,18
 448.241210938 1138 448.241210938 1138 557.241210938 1138 c 0,19,20
 689.241210938 1138 689.241210938 1138 748.620117188 1052 c 1,21,22
 732.915039062 1117 732.915039062 1117 708.209960938 1182 c 128,-1,23
 683.505859375 1247 683.505859375 1247 648.107421875 1295 c 1,24,-1
 416.545898438 1222 l 1,25,-1
 383.470703125 1392 l 1,26,-1
 548.232421875 1441 l 1,27,28
 511.725585938 1482 511.725585938 1482 476.427734375 1518 c 128,-1,29
 441.129882812 1554 441.129882812 1554 386.247070312 1580 c 1,30,-1
 635.383789062 1644 l 1,31,32
 673.315429688 1612 673.315429688 1612 706.22265625 1583 c 128,-1,33
 739.129882812 1554 739.129882812 1554 771.635742188 1513 c 1,34,-1
 1010.0390625 1585 l 1,35,-1
 1040.58886719 1418 l 1,36,-1
 880.194335938 1365 l 1,37,38
 953.862304688 1224 953.862304688 1224 976.927734375 1035 c 128,-1,39
 999.993164062 846 999.993164062 846 962.772460938 611 c 0,40,41
 913.673828125 301 913.673828125 301 774.14453125 133.5 c 128,-1,42
 634.615234375 -34 634.615234375 -34 423.615234375 -34 c 0,11,12
EndSplineSet
EndChar

StartChar: dcaron
Encoding: 271 271 270
Width: 922
VWidth: 2424
GlyphClass: 1
Flags: HW
LayerCount: 2
Fore
SplineSet
303.826171875 182 m 0,0,1
 435.826171875 182 435.826171875 182 496.01171875 562 c 0,2,3
 528.639648438 768 528.639648438 768 512.185546875 863 c 128,-1,4
 495.732421875 958 495.732421875 958 428.732421875 958 c 0,5,6
 367.732421875 958 367.732421875 958 318.111328125 872 c 128,-1,7
 268.490234375 786 268.490234375 786 236.655273438 585 c 0,8,9
 202.126953125 367 202.126953125 367 226.4765625 274.5 c 128,-1,10
 250.826171875 182 250.826171875 182 303.826171875 182 c 0,0,1
993.424804688 1619 m 0,11,12
 1042.42480469 1619 1042.42480469 1619 1065.90625 1581 c 128,-1,13
 1089.38671875 1543 1089.38671875 1543 1077.98339844 1471 c 0,14,15
 1064.52050781 1386 1064.52050781 1386 1017.1875 1295.5 c 128,-1,16
 969.853515625 1205 969.853515625 1205 897.380859375 1101 c 1,17,-1
 809.78515625 1173 l 1,18,19
 849.862304688 1224 849.862304688 1224 876.990234375 1269 c 128,-1,20
 904.1171875 1314 904.1171875 1314 910.611328125 1355 c 0,21,22
 914.412109375 1379 914.412109375 1379 902.341796875 1397.5 c 128,-1,23
 890.272460938 1416 890.272460938 1416 879.573242188 1440 c 128,-1,24
 868.875 1464 868.875 1464 876.319335938 1511 c 0,25,26
 883.604492188 1557 883.604492188 1557 917.014648438 1588 c 128,-1,27
 950.424804688 1619 950.424804688 1619 993.424804688 1619 c 0,11,12
231.19921875 -24 m 0,28,29
 154.19921875 -24 154.19921875 -24 99.671875 29.5 c 128,-1,30
 45.1455078125 83 45.1455078125 83 26.998046875 211.5 c 128,-1,31
 8.8505859375 340 8.8505859375 340 44.8037109375 567 c 0,32,33
 79.33203125 785 79.33203125 785 135.921875 915 c 128,-1,34
 192.51171875 1045 192.51171875 1045 265.380859375 1101 c 128,-1,35
 338.250976562 1157 338.250976562 1157 420.250976562 1157 c 0,36,37
 481.250976562 1157 481.250976562 1157 520.866210938 1123 c 128,-1,38
 560.48046875 1089 560.48046875 1089 569.126953125 1011 c 1,39,-1
 665.424804688 1619 l 1,40,-1
 878.424804688 1619 l 1,41,-1
 875.098632812 1598 l 1,42,43
 860.880859375 1584 860.880859375 1584 854.688476562 1567 c 128,-1,44
 848.49609375 1550 848.49609375 1550 843.84375 1508 c 2,45,-1
 628.658203125 162 l 2,46,47
 622.1640625 121 622.1640625 121 617.829101562 81 c 128,-1,48
 613.494140625 41 613.494140625 41 618 0 c 1,49,-1
 429 0 l 1,50,51
 424.384765625 34 424.384765625 34 423.265625 58.5 c 128,-1,52
 422.145507812 83 422.145507812 83 428.481445312 123 c 1,53,54
 389.077148438 51 389.077148438 51 335.638671875 13.5 c 128,-1,55
 282.19921875 -24 282.19921875 -24 231.19921875 -24 c 0,28,29
EndSplineSet
EndChar

StartChar: e
Encoding: 101 101 274
Width: 922
VWidth: 2424
GlyphClass: 2
Flags: HW
AnchorPoint: "Anchor-3" 567.801 24 basechar 0
AnchorPoint: "Anchor-2" 482 0 basechar 0
AnchorPoint: "Anchor-0" 631.391 1120 basechar 0
LayerCount: 2
Fore
SplineSet
341.443359375 691 m 1,0,-1
 747.443359375 691 l 1,1,2
 788.1484375 948 788.1484375 948 594.1484375 948 c 0,3,4
 511.1484375 948 511.1484375 948 443.06640625 887.5 c 128,-1,5
 374.984375 827 374.984375 827 341.443359375 691 c 1,0,-1
477.723632812 -27 m 0,6,7
 260.723632812 -27 260.723632812 -27 145.1640625 121 c 128,-1,8
 29.60546875 269 29.60546875 269 74.9033203125 555 c 0,9,10
 106.10546875 752 106.10546875 752 188.169921875 885 c 128,-1,11
 270.235351562 1018 270.235351562 1018 387.005859375 1086 c 128,-1,12
 503.775390625 1154 503.775390625 1154 636.775390625 1154 c 0,13,14
 754.775390625 1154 754.775390625 1154 841.8515625 1094.5 c 128,-1,15
 928.927734375 1035 928.927734375 1035 965.3671875 911.5 c 128,-1,16
 1001.80664062 788 1001.80664062 788 972.189453125 601 c 0,17,18
 967.913085938 574 967.913085938 574 963.161132812 544 c 128,-1,19
 958.409179688 514 958.409179688 514 951.608398438 490 c 1,20,-1
 305.608398438 490 l 1,21,22
 286.474609375 325 286.474609375 325 352.650390625 253.5 c 128,-1,23
 418.826171875 182 418.826171875 182 520.826171875 182 c 0,24,25
 588.826171875 182 588.826171875 182 650.706054688 206.5 c 128,-1,26
 712.586914062 231 712.586914062 231 768.297851562 286 c 1,27,-1
 873.7578125 150 l 1,28,29
 791.502929688 60 791.502929688 60 690.11328125 16.5 c 128,-1,30
 588.723632812 -27 588.723632812 -27 477.723632812 -27 c 0,6,7
EndSplineSet
EndChar

StartChar: uni029A
Encoding: 666 666 296
Width: 922
VWidth: 2424
GlyphClass: 1
Flags: HW
LayerCount: 2
Fore
SplineSet
407.192382812 178 m 0,0,1
 534.192382812 178 534.192382812 178 610.026367188 268.5 c 128,-1,2
 685.860351562 359 685.860351562 359 718.01171875 562 c 0,3,4
 747.629882812 749 747.629882812 749 710.072265625 846.5 c 128,-1,5
 672.514648438 944 672.514648438 944 546.514648438 944 c 0,6,7
 462.514648438 944 462.514648438 944 417.942382812 902.5 c 128,-1,8
 373.369140625 861 373.369140625 861 364.499023438 805 c 0,9,10
 356.421875 754 356.421875 754 381.745117188 715 c 128,-1,11
 407.068359375 676 407.068359375 676 488.068359375 676 c 0,12,13
 510.068359375 676 510.068359375 676 526.2265625 677 c 128,-1,14
 542.384765625 678 542.384765625 678 568.334960938 684 c 1,15,-1
 536.5 483 l 1,16,17
 497.81640625 485 497.81640625 485 488.553710938 486.5 c 128,-1,18
 479.291992188 488 479.291992188 488 447.291992188 488 c 0,19,20
 355.291992188 488 355.291992188 488 306.481445312 445 c 128,-1,21
 257.670898438 402 257.670898438 402 247.850585938 340 c 0,22,23
 237.872070312 277 237.872070312 277 276.532226562 227.5 c 128,-1,24
 315.192382812 178 315.192382812 178 407.192382812 178 c 0,0,1
366.139648438 -37 m 0,25,26
 164.139648438 -37 164.139648438 -37 78.3994140625 62.5 c 128,-1,27
 -7.341796875 162 -7.341796875 162 17.6826171875 320 c 0,28,29
 33.837890625 422 33.837890625 422 91.9248046875 492 c 128,-1,30
 150.01171875 562 150.01171875 562 235.189453125 601 c 1,31,32
 175.158203125 645 175.158203125 645 152.453125 710 c 128,-1,33
 129.748046875 775 129.748046875 775 142.577148438 856 c 0,34,35
 155.248046875 936 155.248046875 936 210.938476562 1003.5 c 128,-1,36
 266.629882812 1071 266.629882812 1071 355.940429688 1114 c 128,-1,37
 445.250976562 1157 445.250976562 1157 558.250976562 1157 c 0,38,39
 790.250976562 1157 790.250976562 1157 890.305664062 999.5 c 128,-1,40
 990.359375 842 990.359375 842 946.01171875 562 c 0,41,42
 900.713867188 276 900.713867188 276 749.426757812 119.5 c 128,-1,43
 598.139648438 -37 598.139648438 -37 366.139648438 -37 c 0,25,26
EndSplineSet
EndChar

StartChar: f
Encoding: 102 102 300
Width: 922
VWidth: 2424
GlyphClass: 1
Flags: HW
LayerCount: 2
Fore
SplineSet
322.872070312 921 m 1,0,-1
 124.872070312 921 l 1,1,-1
 157.499023438 1127 l 1,2,-1
 355.499023438 1127 l 1,3,-1
 366.744140625 1198 l 2,4,5
 390.501953125 1348 390.501953125 1348 459.603515625 1446.5 c 128,-1,6
 528.704101562 1545 528.704101562 1545 623.306640625 1593 c 128,-1,7
 717.909179688 1641 717.909179688 1641 818.909179688 1641 c 0,8,9
 910.909179688 1641 910.909179688 1641 986.311523438 1602.5 c 128,-1,10
 1061.71289062 1564 1061.71289062 1564 1105.30957031 1492 c 1,11,-1
 992.325195312 1309 l 1,12,-1
 979.31640625 1290 l 1,13,-1
 964.899414062 1300 l 1,14,15
 961.592773438 1317 961.592773438 1317 957.6015625 1336 c 128,-1,16
 953.611328125 1355 953.611328125 1355 929.887695312 1382 c 0,17,18
 881.905273438 1432.01953125 881.905273438 1432.01953125 804.83984375 1432.01953125 c 0,0,0
 803.329101562 1432.01953125 803.329101562 1432.01953125 801.806640625 1432 c 0,19,20
 722.806640625 1432 722.806640625 1432 667.120117188 1374 c 128,-1,21
 611.43359375 1316 611.43359375 1316 592.744140625 1198 c 2,22,-1
 581.499023438 1127 l 1,23,-1
 856.499023438 1127 l 1,24,-1
 823.872070312 921 l 1,25,-1
 548.872070312 921 l 1,26,-1
 403 0 l 1,27,-1
 177 0 l 1,28,-1
 322.872070312 921 l 1,0,-1
EndSplineSet
EndChar

StartChar: g
Encoding: 103 103 301
Width: 922
VWidth: 2278
GlyphClass: 2
Flags: HW
AnchorPoint: "Anchor-2" 338.313 -219 basechar 0
AnchorPoint: "Anchor-0" 532.183 1125 basechar 0
LayerCount: 2
Fore
SplineSet
145.444335938 47 m 0,0,1
 136.2578125 -11 136.2578125 -11 201.40234375 -38.5 c 128,-1,2
 266.546875 -66 266.546875 -66 374.546875 -66 c 0,3,4
 481.546875 -66 481.546875 -66 543.7734375 -33 c 128,-1,5
 606 0 606 0 614.552734375 54 c 0,6,7
 622.947265625 107 622.947265625 107 589.010742188 129.5 c 128,-1,8
 555.07421875 152 555.07421875 152 452.07421875 152 c 0,9,10
 394.07421875 152 394.07421875 152 337.866210938 157 c 128,-1,11
 281.658203125 162 281.658203125 162 234.55859375 174 c 1,12,13
 200.124023438 146 200.124023438 146 176.189453125 118 c 128,-1,14
 152.254882812 90 152.254882812 90 145.444335938 47 c 0,0,1
451.208007812 639 m 0,15,16
 515.208007812 639 515.208007812 639 562.572265625 685.5 c 128,-1,17
 609.9375 732 609.9375 732 622.450195312 811 c 0,18,19
 635.120117188 891 635.120117188 891 602.40625 937 c 128,-1,20
 569.692382812 983 569.692382812 983 505.692382812 983 c 0,21,22
 447.692382812 983 447.692382812 983 398.748046875 936 c 128,-1,23
 349.803710938 889 349.803710938 889 337.450195312 811 c 0,24,25
 325.571289062 736 325.571289062 736 358.389648438 687.5 c 128,-1,26
 391.208007812 639 391.208007812 639 451.208007812 639 c 0,15,16
426.124023438 468 m 0,27,28
 360.124023438 468 360.124023438 468 305.608398438 490 c 1,29,30
 285.916015625 473 285.916015625 473 271.4609375 457.5 c 128,-1,31
 257.005859375 442 257.005859375 442 253.521484375 420 c 0,32,33
 247.661132812 383 247.661132812 383 312.231445312 364.5 c 128,-1,34
 376.80078125 346 376.80078125 346 542.80078125 346 c 0,35,36
 714.80078125 346 714.80078125 346 769.184570312 269.5 c 128,-1,37
 823.568359375 193 823.568359375 193 805.353515625 78 c 0,38,39
 792.049804688 -6 792.049804688 -6 735.829101562 -80 c 128,-1,40
 679.608398438 -154 679.608398438 -154 578.323242188 -200 c 128,-1,41
 477.037109375 -246 477.037109375 -246 330.037109375 -246 c 0,42,43
 137.037109375 -246 137.037109375 -246 39.544921875 -176.5 c 128,-1,44
 -57.947265625 -107 -57.947265625 -107 -38.6240234375 15 c 0,45,46
 -28.1708984375 81 -28.1708984375 81 17.3818359375 135 c 128,-1,47
 62.9345703125 189 62.9345703125 189 123.319335938 223 c 1,48,49
 92.12109375 247 92.12109375 247 77.5849609375 281.5 c 0,50,51
 64.37109375 312.86328125 64.37109375 312.86328125 71.236328125 356.2109375 c 0,52,53
 71.9228515625 360.545898438 71.9228515625 360.545898438 72.810546875 365 c 0,54,55
 81.6796875 421 81.6796875 421 119.703125 468.5 c 128,-1,56
 157.7265625 516 157.7265625 516 206.745117188 554 c 1,57,58
 167.189453125 601 167.189453125 601 149.063476562 666.5 c 128,-1,59
 130.9375 732 130.9375 732 143.450195312 811 c 0,60,61
 159.763671875 914 159.763671875 914 215.196289062 992.5 c 128,-1,62
 270.629882812 1071 270.629882812 1071 354.256835938 1116 c 128,-1,63
 437.884765625 1161 437.884765625 1161 535.884765625 1161 c 0,64,65
 666.884765625 1161 666.884765625 1161 747.055664062 1080 c 1,66,67
 804.548828125 1121 804.548828125 1121 869.216796875 1141 c 0,68,69
 918.9609375 1156.38476562 918.9609375 1156.38476562 971.297851562 1156.38476562 c 0,70,71
 986.999023438 1156.38476562 986.999023438 1156.38476562 1002.93359375 1155 c 1,72,-1
 999.1171875 992 l 1,73,74
 971.61328125 996.661132812 971.61328125 996.661132812 945.100585938 996.661132812 c 0,75,76
 874.919921875 996.661132812 874.919921875 996.661132812 811.682617188 964 c 1,77,78
 828.4375 893 828.4375 893 815.450195312 811 c 0,79,80
 799.135742188 708 799.135742188 708 743.440429688 631 c 128,-1,81
 687.745117188 554 687.745117188 554 603.934570312 511 c 128,-1,82
 520.124023438 468 520.124023438 468 426.124023438 468 c 0,27,28
EndSplineSet
EndChar

StartChar: h
Encoding: 104 104 308
Width: 922
VWidth: 2424
GlyphClass: 2
Flags: HW
AnchorPoint: "Anchor-4" 411.443 1335 basechar 0
AnchorPoint: "Anchor-2" 452 0 basechar 0
AnchorPoint: "Anchor-0" 420.217 1624 basechar 0
LayerCount: 2
Fore
SplineSet
281.216796875 1624 m 1,0,-1
 556.216796875 1624 l 1,1,-1
 552.890625 1603 l 1,2,3
 538.672851562 1589 538.672851562 1589 531.743164062 1570.5 c 128,-1,4
 524.8125 1552 524.8125 1552 518.635742188 1513 c 2,5,-1
 433.741210938 977 l 1,6,7
 500.99609375 1067 500.99609375 1067 589.885742188 1110.5 c 128,-1,8
 678.775390625 1154 678.775390625 1154 759.775390625 1154 c 0,9,10
 907.775390625 1154 907.775390625 1154 976.249023438 1046.5 c 128,-1,11
 1044.72265625 939 1044.72265625 939 1004.33496094 684 c 2,12,-1
 896 0 l 1,13,-1
 644 0 l 1,14,-1
 751.859375 681 l 2,15,16
 775.30078125 829 775.30078125 829 747.724609375 888.5 c 128,-1,17
 720.1484375 948 720.1484375 948 655.1484375 948 c 0,18,19
 563.1484375 948 563.1484375 948 483.71484375 869.5 c 128,-1,20
 404.282226562 791 404.282226562 791 381.158203125 645 c 2,21,-1
 279 0 l 1,22,-1
 24 0 l 1,23,-1
 281.216796875 1624 l 1,0,-1
EndSplineSet
EndChar

StartChar: i
Encoding: 105 105 313
Width: 922
VWidth: 2424
GlyphClass: 2
Flags: HW
AnchorPoint: "Anchor-3" 653 0 basechar 0
AnchorPoint: "Anchor-2" 452 0 basechar 0
AnchorPoint: "Anchor-0" 687.676 1488 basechar 0
LayerCount: 2
Fore
SplineSet
86 0 m 1,0,-1
 118.944335938 208 l 1,1,-1
 367.944335938 208 l 1,2,-1
 480.555664062 919 l 1,3,-1
 243.555664062 919 l 1,4,-1
 276.499023438 1127 l 1,5,-1
 768.499023438 1127 l 1,6,-1
 622.944335938 208 l 1,7,-1
 850.944335938 208 l 1,8,-1
 818 0 l 1,9,-1
 86 0 l 1,0,-1
662.017578125 1326 m 0,10,11
 595.017578125 1326 595.017578125 1326 555.803710938 1372 c 128,-1,12
 516.588867188 1418 516.588867188 1418 526.567382812 1481 c 0,13,14
 536.862304688 1546 536.862304688 1546 588.489257812 1591 c 128,-1,15
 640.1171875 1636 640.1171875 1636 711.1171875 1636 c 0,16,17
 774.1171875 1636 774.1171875 1636 815.41015625 1590.5 c 128,-1,18
 856.704101562 1545 856.704101562 1545 846.567382812 1481 c 0,19,20
 836.588867188 1418 836.588867188 1418 780.803710938 1372 c 128,-1,21
 725.017578125 1326 725.017578125 1326 662.017578125 1326 c 0,10,11
EndSplineSet
Substitution2: "'locl' Localized Forms in Latin lookup 18 subtable" i.loclTRK
Substitution2: "'locl' Localized Forms in Latin lookup 17 subtable" i.loclTRK
Substitution2: "'locl' Localized Forms in Latin lookup 16 subtable" i.loclTRK
Substitution2: "'locl' Localized Forms in Latin lookup 15 subtable" i.loclTRK
Substitution2: "'locl' Localized Forms in Latin lookup 14 subtable" i.loclTRK
Substitution2: "Single Substitution lookup 4 subtable" dotlessi
Substitution2: "Single Substitution lookup 3 subtable" dotlessi
AlternateSubs2: "'aalt' Access All Alternates in Latin lookup 1 subtable" dotlessi i.loclTRK
EndChar

StartChar: dotlessi
Encoding: 305 305 314
Width: 922
VWidth: 2424
GlyphClass: 2
Flags: HW
AnchorPoint: "Anchor-3" 653 0 basechar 0
AnchorPoint: "Anchor-2" 452 0 basechar 0
AnchorPoint: "Anchor-0" 629.707 1122 basechar 0
LayerCount: 2
Fore
SplineSet
86 0 m 1,0,-1
 118.944335938 208 l 1,1,-1
 367.944335938 208 l 1,2,-1
 480.555664062 919 l 1,3,-1
 243.555664062 919 l 1,4,-1
 276.499023438 1127 l 1,5,-1
 768.499023438 1127 l 1,6,-1
 622.944335938 208 l 1,7,-1
 850.944335938 208 l 1,8,-1
 818 0 l 1,9,-1
 86 0 l 1,0,-1
EndSplineSet
EndChar

StartChar: j
Encoding: 106 106 329
Width: 922
VWidth: 2355
GlyphClass: 2
Flags: HW
AnchorPoint: "Anchor-2" 364.652 -280 basechar 0
AnchorPoint: "Anchor-0" 777.735 1501 basechar 0
LayerCount: 2
Fore
SplineSet
248.037109375 -246 m 0,0,1
 60.037109375 -246 60.037109375 -246 -44.4716796875 -104 c 1,2,-1
 105.5625 73 l 1,3,-1
 119.254882812 90 l 1,4,-1
 135.670898438 80 l 1,5,6
 134.978515625 63 134.978515625 63 137.626953125 45 c 128,-1,7
 140.276367188 27 140.276367188 27 158 0 c 1,8,9
 179.515625 -22 179.515625 -22 208.536132812 -34.5 c 128,-1,10
 237.555664062 -47 237.555664062 -47 277.555664062 -47 c 0,11,12
 427.555664062 -47 427.555664062 -47 463.66796875 181 c 2,13,-1
 589.900390625 978 l 1,14,-1
 263.900390625 978 l 1,15,-1
 294.467773438 1171 l 1,16,-1
 856.467773438 1171 l 1,17,-1
 702.834960938 201 l 2,18,19
 677.176757812 39 677.176757812 39 606.655273438 -59 c 128,-1,20
 536.133789062 -157 536.133789062 -157 442.0859375 -201.5 c 128,-1,21
 348.037109375 -246 348.037109375 -246 248.037109375 -246 c 0,0,1
754.293945312 1353 m 0,22,23
 692.293945312 1353 692.293945312 1353 656.946289062 1395 c 128,-1,24
 621.598632812 1437 621.598632812 1437 630.625976562 1494 c 0,25,26
 639.970703125 1553 639.970703125 1553 687.043945312 1594.5 c 128,-1,27
 734.1171875 1636 734.1171875 1636 799.1171875 1636 c 0,28,29
 856.1171875 1636 856.1171875 1636 894.043945312 1594.5 c 128,-1,30
 931.970703125 1553 931.970703125 1553 922.625976562 1494 c 0,31,32
 913.598632812 1437 913.598632812 1437 862.446289062 1395 c 128,-1,33
 811.293945312 1353 811.293945312 1353 754.293945312 1353 c 0,22,23
EndSplineSet
Substitution2: "Single Substitution lookup 4 subtable" uni0237
Substitution2: "Single Substitution lookup 3 subtable" uni0237
Substitution2: "'aalt' Access All Alternates in Latin lookup 0 subtable" uni0237
EndChar

StartChar: uni0237
Encoding: 567 567 330
Width: 922
VWidth: 2274
GlyphClass: 2
Flags: HW
AnchorPoint: "Anchor-2" 348.969 -278 basechar 0
AnchorPoint: "Anchor-0" 697.866 1123 basechar 0
LayerCount: 2
Fore
SplineSet
236.037109375 -246 m 0,0,1
 54.037109375 -246 54.037109375 -246 -47.263671875 -109 c 1,2,-1
 97.978515625 63 l 1,3,-1
 111.670898438 80 l 1,4,-1
 127.928710938 69 l 1,5,6
 127.236328125 52 127.236328125 52 129.54296875 35 c 128,-1,7
 131.850585938 18 131.850585938 18 148.733398438 -8 c 1,8,9
 169.407226562 -29 169.407226562 -29 197.505859375 -41 c 128,-1,10
 225.60546875 -53 225.60546875 -53 264.60546875 -53 c 0,11,12
 410.60546875 -53 410.60546875 -53 445.608398438 168 c 2,13,-1
 567.881835938 940 l 1,14,-1
 251.881835938 940 l 1,15,-1
 281.499023438 1127 l 1,16,-1
 825.499023438 1127 l 1,17,-1
 676.618164062 187 l 2,18,19
 651.751953125 30 651.751953125 30 583.705078125 -65 c 128,-1,20
 515.658203125 -160 515.658203125 -160 423.84765625 -203 c 128,-1,21
 332.037109375 -246 332.037109375 -246 236.037109375 -246 c 0,0,1
EndSplineSet
EndChar

StartChar: k
Encoding: 107 107 332
Width: 922
VWidth: 2424
GlyphClass: 2
Flags: HW
AnchorPoint: "Anchor-2" 412 0 basechar 0
AnchorPoint: "Anchor-0" 381.217 1624 basechar 0
LayerCount: 2
Fore
SplineSet
399.508789062 502 m 1,0,-1
 310.25390625 412 l 1,1,-1
 245 0 l 1,2,-1
 9 0 l 1,3,-1
 266.216796875 1624 l 1,4,-1
 523.216796875 1624 l 1,5,-1
 519.890625 1603 l 1,6,7
 504.672851562 1589 504.672851562 1589 497.743164062 1570.5 c 128,-1,8
 490.8125 1552 490.8125 1552 484.635742188 1513 c 2,9,-1
 356.344726562 703 l 1,10,-1
 785.241210938 1138 l 1,11,12
 814.1328125 1131 814.1328125 1131 854.26171875 1125.5 c 128,-1,13
 894.390625 1120 894.390625 1120 921.390625 1120 c 2,14,-1
 1027.390625 1120 l 1,15,-1
 586.484375 666 l 1,16,-1
 899 0 l 1,17,-1
 635.57421875 -9 l 1,18,-1
 399.508789062 502 l 1,0,-1
EndSplineSet
EndChar

StartChar: kgreenlandic
Encoding: 312 312 334
Width: 922
VWidth: 2424
GlyphClass: 2
Flags: HW
AnchorPoint: "Anchor-2" 412 0 basechar 0
AnchorPoint: "Anchor-0" 310.391 1120 basechar 0
LayerCount: 2
Fore
SplineSet
399.508789062 502 m 1,0,-1
 310.25390625 412 l 1,1,-1
 245 0 l 1,2,-1
 9 0 l 1,3,-1
 187.499023438 1127 l 1,4,-1
 444.499023438 1127 l 1,5,-1
 441.172851562 1106 l 1,6,7
 425.956054688 1092 425.956054688 1092 419.18359375 1074.5 c 128,-1,8
 412.412109375 1057 412.412109375 1057 405.918945312 1016 c 2,9,-1
 356.344726562 703 l 1,10,-1
 785.241210938 1138 l 1,11,12
 814.1328125 1131 814.1328125 1131 854.26171875 1125.5 c 128,-1,13
 894.390625 1120 894.390625 1120 921.390625 1120 c 2,14,-1
 1027.390625 1120 l 1,15,-1
 586.484375 666 l 1,16,-1
 899 0 l 1,17,-1
 635.57421875 -9 l 1,18,-1
 399.508789062 502 l 1,0,-1
EndSplineSet
EndChar

StartChar: l
Encoding: 108 108 335
Width: 922
VWidth: 2424
GlyphClass: 2
Flags: HW
AnchorPoint: "Anchor-4" 540.695 560 basechar 0
AnchorPoint: "Anchor-2" 452 0 basechar 0
AnchorPoint: "Anchor-1" 1131.39 1120 basechar 0
AnchorPoint: "Anchor-0" 709.217 1624 basechar 0
LayerCount: 2
Fore
SplineSet
42 0 m 1,0,-1
 75.4189453125 211 l 1,1,-1
 358.418945312 211 l 1,2,-1
 548.796875 1413 l 1,3,-1
 277.796875 1413 l 1,4,-1
 311.216796875 1624 l 1,5,-1
 839.216796875 1624 l 1,6,-1
 615.418945312 211 l 1,7,-1
 897.418945312 211 l 1,8,-1
 864 0 l 1,9,-1
 42 0 l 1,0,-1
EndSplineSet
EndChar

StartChar: ldot
Encoding: 320 320 339
Width: 922
VWidth: 2424
GlyphClass: 1
Flags: HW
LayerCount: 2
Fore
SplineSet
852.048828125 638 m 0,0,1
 781.048828125 638 781.048828125 638 740.46875 688 c 128,-1,2
 699.887695312 738 699.887695312 738 711.291015625 810 c 0,3,4
 722.377929688 880 722.377929688 880 778.71875 929.5 c 128,-1,5
 835.05859375 979 835.05859375 979 906.05859375 979 c 0,6,7
 972.05859375 979 972.05859375 979 1014.21875 929.5 c 128,-1,8
 1056.37792969 880 1056.37792969 880 1045.29101562 810 c 0,9,10
 1033.88769531 738 1033.88769531 738 976.96875 688 c 128,-1,11
 920.048828125 638 920.048828125 638 852.048828125 638 c 0,0,1
27 0 m 1,12,-1
 60.4189453125 211 l 1,13,-1
 285.418945312 211 l 1,14,-1
 477.064453125 1421 l 1,15,-1
 267.064453125 1421 l 1,16,-1
 300.325195312 1631 l 1,17,-1
 762.325195312 1631 l 1,18,-1
 537.418945312 211 l 1,19,-1
 845.418945312 211 l 1,20,-1
 812 0 l 1,21,-1
 27 0 l 1,12,-1
EndSplineSet
EndChar

StartChar: uni01C9
Encoding: 457 457 341
Width: 922
VWidth: 2353
GlyphClass: 1
Flags: HW
LayerCount: 2
Fore
SplineSet
387.037109375 -246 m 0,0,1
 248.037109375 -246 248.037109375 -246 168.509765625 -142 c 1,2,-1
 307.918945312 50 l 1,3,4
 319.96875 44 319.96875 44 319.147460938 32.5 c 128,-1,5
 318.326171875 21 318.326171875 21 323.608398438 7 c 128,-1,6
 328.891601562 -7 328.891601562 -7 359.881835938 -26 c 0,7,8
 371.45703125 -35 371.45703125 -35 387.323242188 -39 c 128,-1,9
 403.189453125 -43 403.189453125 -43 423.189453125 -43 c 0,10,11
 487.189453125 -43 487.189453125 -43 538.92578125 9 c 128,-1,12
 590.661132812 61 590.661132812 61 610.30078125 185 c 2,13,-1
 736.05859375 979 l 1,14,-1
 532.05859375 979 l 1,15,-1
 562.467773438 1171 l 1,16,-1
 992.467773438 1171 l 1,17,-1
 837.7265625 194 l 2,18,19
 812.54296875 35 812.54296875 35 746.6796875 -62 c 128,-1,20
 680.81640625 -159 680.81640625 -159 587.926757812 -202.5 c 128,-1,21
 495.037109375 -246 495.037109375 -246 387.037109375 -246 c 0,0,1
-25.3505859375 143 m 1,22,-1
 8.05859375 335 l 1,23,-1
 105.05859375 335 l 1,24,-1
 279.915039062 1439 l 1,25,-1
 192.915039062 1439 l 1,26,-1
 223.325195312 1631 l 1,27,-1
 536.325195312 1631 l 1,28,-1
 331.05859375 335 l 1,29,-1
 521.05859375 335 l 1,30,-1
 490.649414062 143 l 1,31,-1
 -25.3505859375 143 l 1,22,-1
898.501953125 1348 m 0,32,33
 836.501953125 1348 836.501953125 1348 801.233398438 1390.5 c 128,-1,34
 765.96484375 1433 765.96484375 1433 774.993164062 1490 c 0,35,36
 784.337890625 1549 784.337890625 1549 831.831054688 1590 c 128,-1,37
 879.325195312 1631 879.325195312 1631 943.325195312 1631 c 0,38,39
 1000.32519531 1631 1000.32519531 1631 1038.17285156 1589 c 128,-1,40
 1076.02050781 1547 1076.02050781 1547 1066.99316406 1490 c 128,-1,41
 1057.96484375 1433 1057.96484375 1433 1006.73339844 1390.5 c 128,-1,42
 955.501953125 1348 955.501953125 1348 898.501953125 1348 c 0,32,33
EndSplineSet
EndChar

StartChar: lslash
Encoding: 322 322 343
Width: 922
VWidth: 2424
GlyphClass: 1
Flags: HW
LayerCount: 2
Fore
SplineSet
52 0 m 1,0,-1
 85.4189453125 211 l 1,1,-1
 358.418945312 211 l 1,2,-1
 422.08984375 613 l 1,3,-1
 257.586914062 553 l 1,4,-1
 297.182617188 803 l 1,5,-1
 461.685546875 863 l 1,6,-1
 548.796875 1413 l 1,7,-1
 289.796875 1413 l 1,8,-1
 323.216796875 1624 l 1,9,-1
 837.216796875 1624 l 1,10,-1
 731.732421875 958 l 1,11,-1
 922.34375 1025 l 1,12,-1
 882.431640625 773 l 1,13,-1
 691.344726562 703 l 1,14,-1
 613.418945312 211 l 1,15,-1
 887.418945312 211 l 1,16,-1
 854 0 l 1,17,-1
 52 0 l 1,0,-1
EndSplineSet
EndChar

StartChar: m
Encoding: 109 109 344
Width: 922
VWidth: 2424
GlyphClass: 2
Flags: HW
AnchorPoint: "Anchor-2" 405 0 basechar 0
AnchorPoint: "Anchor-0" 635.391 1120 basechar 0
LayerCount: 2
Fore
SplineSet
-35 0 m 1,0,-1
 143.499023438 1127 l 1,1,-1
 333.499023438 1127 l 1,2,-1
 319.877929688 1041 l 1,3,4
 401.220703125 1154.00878906 401.220703125 1154.00878906 497.092773438 1154.00878906 c 0,5,6
 497.93359375 1154.00878906 497.93359375 1154.00878906 498.775390625 1154 c 0,7,8
 549.775390625 1154 549.775390625 1154 586.469726562 1120.5 c 128,-1,9
 623.1640625 1087 623.1640625 1087 631.443359375 1013 c 1,10,11
 712.775390625 1154 712.775390625 1154 848.775390625 1154 c 0,12,13
 947.775390625 1154 947.775390625 1154 980.3125 1069 c 0,14,15
 1011.49414062 987.541992188 1011.49414062 987.541992188 989.57421875 849.142578125 c 0,16,17
 988.62109375 843.125 988.62109375 843.125 987.567382812 837 c 2,18,-1
 855 0 l 1,19,-1
 656 0 l 1,20,-1
 779.540039062 780 l 2,21,22
 797.120117188 891 797.120117188 891 789.743164062 926.5 c 128,-1,23
 782.366210938 962 782.366210938 962 755.366210938 962 c 0,24,25
 715.366210938 962 715.366210938 962 675.966796875 899.5 c 128,-1,26
 636.567382812 837 636.567382812 837 619.9375 732 c 2,27,-1
 504 0 l 1,28,-1
 316 0 l 1,29,-1
 438.114257812 771 l 2,30,31
 456.803710938 889 456.803710938 889 449.822265625 927 c 128,-1,32
 442.840820312 965 442.840820312 965 407.840820312 965 c 0,33,34
 371.840820312 965 371.840820312 965 336.05078125 909.5 c 128,-1,35
 300.260742188 854 300.260742188 854 282.521484375 742 c 2,36,-1
 165 0 l 1,37,-1
 -35 0 l 1,0,-1
EndSplineSet
EndChar

StartChar: n
Encoding: 110 110 346
Width: 922
VWidth: 2424
GlyphClass: 2
Flags: HW
AnchorPoint: "Anchor-2" 473 0 basechar 0
AnchorPoint: "Anchor-0" 655.391 1120 basechar 0
LayerCount: 2
Fore
SplineSet
24 0 m 1,0,-1
 202.499023438 1127 l 1,1,-1
 457.499023438 1127 l 1,2,-1
 432.6328125 970 l 1,3,4
 496.779296875 1053 496.779296875 1053 577.27734375 1103.5 c 128,-1,5
 657.775390625 1154 657.775390625 1154 752.775390625 1154 c 0,6,7
 840.775390625 1154 840.775390625 1154 907.6484375 1109 c 128,-1,8
 974.521484375 1064 974.521484375 1064 1003.4453125 962.5 c 128,-1,9
 1032.36914062 861 1032.36914062 861 1005.12695312 689 c 2,10,-1
 896 0 l 1,11,-1
 644 0 l 1,12,-1
 752.810546875 687 l 2,13,14
 774.825195312 826 774.825195312 826 746.487304688 887 c 128,-1,15
 718.1484375 948 718.1484375 948 648.1484375 948 c 0,16,17
 568.1484375 948 568.1484375 948 486.927734375 874 c 128,-1,18
 405.708007812 800 405.708007812 800 385.276367188 671 c 2,19,-1
 279 0 l 1,20,-1
 24 0 l 1,0,-1
EndSplineSet
EndChar

StartChar: eng
Encoding: 331 331 352
Width: 922
VWidth: 2273
GlyphClass: 1
Flags: HW
LayerCount: 2
Fore
SplineSet
383.037109375 -246 m 0,0,1
 328.037109375 -246 328.037109375 -246 269.942382812 -224.5 c 128,-1,2
 211.84765625 -203 211.84765625 -203 171.975585938 -158 c 1,3,-1
 286.592773438 29 l 1,4,5
 300.959960938 25 300.959960938 25 303.529296875 6.5 c 128,-1,6
 306.099609375 -12 306.099609375 -12 325.065429688 -28 c 128,-1,7
 344.03125 -44 344.03125 -44 402.03125 -44 c 0,8,9
 556.03125 -44 556.03125 -44 599.270507812 229 c 2,10,-1
 679.571289062 736 l 2,11,12
 699.2109375 860 699.2109375 860 666.946289062 912 c 128,-1,13
 634.682617188 964 634.682617188 964 576.682617188 964 c 0,14,15
 492.682617188 964 492.682617188 964 427.095703125 894 c 128,-1,16
 361.508789062 824 361.508789062 824 343.611328125 711 c 2,17,-1
 252.381835938 135 l 1,18,-1
 27.3818359375 135 l 1,19,-1
 184.974609375 1130 l 1,20,-1
 409.974609375 1130 l 1,21,-1
 387.958984375 991 l 1,22,23
 444.837890625 1066 444.837890625 1066 520.1484375 1109 c 128,-1,24
 595.458984375 1152 595.458984375 1152 672.458984375 1152 c 0,25,26
 753.458984375 1152 753.458984375 1152 812.623046875 1112 c 128,-1,27
 871.788085938 1072 871.788085938 1072 896.112304688 982.5 c 128,-1,28
 920.4375 893 920.4375 893 896.045898438 739 c 2,29,-1
 818.754882812 251 l 2,30,31
 790.5625 73 790.5625 73 725.797851562 -36 c 128,-1,32
 661.034179688 -145 661.034179688 -145 572.036132812 -195.5 c 128,-1,33
 483.037109375 -246 483.037109375 -246 383.037109375 -246 c 0,0,1
EndSplineSet
EndChar

StartChar: o
Encoding: 111 111 355
Width: 922
VWidth: 2424
GlyphClass: 2
Flags: HW
AnchorPoint: "Anchor-4" 495.695 560 basechar 0
AnchorPoint: "Anchor-3" 495.395 53 basechar 0
AnchorPoint: "Anchor-2" 407 0 basechar 0
AnchorPoint: "Anchor-1" 799.312 1069 basechar 0
AnchorPoint: "Anchor-0" 586.391 1120 basechar 0
LayerCount: 2
Fore
SplineSet
436.934570312 189 m 0,0,1
 529.934570312 189 529.934570312 189 604.694335938 288.5 c 128,-1,2
 679.453125 388 679.453125 388 707.487304688 565 c 0,3,4
 735.99609375 745 735.99609375 745 692.518554688 843 c 128,-1,5
 649.040039062 941 649.040039062 941 556.040039062 941 c 128,-1,6
 463.040039062 941 463.040039062 941 388.018554688 843 c 128,-1,7
 312.99609375 745 312.99609375 745 284.487304688 565 c 0,8,9
 256.294921875 387 256.294921875 387 298.614257812 288 c 128,-1,10
 340.934570312 189 340.934570312 189 436.934570312 189 c 0,0,1
403.19921875 -24 m 0,11,12
 276.19921875 -24 276.19921875 -24 186.126953125 45 c 128,-1,13
 96.0556640625 114 96.0556640625 114 58.462890625 246 c 128,-1,14
 20.869140625 378 20.869140625 378 50.01171875 562 c 0,15,16
 78.837890625 744 78.837890625 744 158.32421875 876.5 c 128,-1,17
 237.809570312 1009 237.809570312 1009 350.29296875 1081.5 c 128,-1,18
 462.775390625 1154 462.775390625 1154 589.775390625 1154 c 0,19,20
 714.775390625 1154 714.775390625 1154 804.29296875 1081.5 c 128,-1,21
 893.809570312 1009 893.809570312 1009 931.403320312 877 c 128,-1,22
 968.99609375 745 968.99609375 745 940.01171875 562 c 0,23,24
 910.7109375 377 910.7109375 377 831.541992188 246.5 c 128,-1,25
 752.373046875 116 752.373046875 116 640.286132812 46 c 128,-1,26
 528.19921875 -24 528.19921875 -24 403.19921875 -24 c 0,11,12
EndSplineSet
Substitution2: "Single Substitution lookup 29 subtable" ordmasculine
Substitution2: "'aalt' Access All Alternates in Latin lookup 0 subtable" ordmasculine
EndChar

StartChar: oslash
Encoding: 248 248 383
Width: 922
VWidth: 2424
GlyphClass: 2
Flags: HW
AnchorPoint: "Anchor-4" 495.695 560 basechar 0
AnchorPoint: "Anchor-3" 495.395 53 basechar 0
AnchorPoint: "Anchor-2" 407 0 basechar 0
AnchorPoint: "Anchor-1" 799.312 1069 basechar 0
AnchorPoint: "Anchor-0" 586.391 1120 basechar 0
LayerCount: 2
Fore
SplineSet
436.934570312 189 m 0,0,1
 529.934570312 189 529.934570312 189 604.694335938 288.5 c 128,-1,2
 679.453125 388 679.453125 388 707.487304688 565 c 0,3,4
 724.434570312 672 724.434570312 672 715.421875 754 c 1,5,-1
 378.834960938 201 l 1,6,7
 404.934570312 189 404.934570312 189 436.934570312 189 c 0,0,1
284.487304688 565 m 0,8,9
 267.223632812 456 267.223632812 456 277.39453125 375 c 1,10,-1
 613.98046875 928 l 1,11,12
 586.881835938 940 586.881835938 940 556.040039062 941 c 0,13,14
 463.040039062 941 463.040039062 941 388.018554688 843 c 128,-1,15
 312.99609375 745 312.99609375 745 284.487304688 565 c 0,8,9
161.450195312 -155 m 1,16,-1
 11.021484375 -63 l 1,17,-1
 120.055664062 114 l 1,18,19
 65.9345703125 189 65.9345703125 189 46.2529296875 301.5 c 128,-1,20
 26.5712890625 414 26.5712890625 414 50.01171875 562 c 0,21,22
 78.837890625 744 78.837890625 744 158.32421875 876.5 c 128,-1,23
 237.809570312 1009 237.809570312 1009 350.29296875 1081.5 c 128,-1,24
 462.775390625 1154 462.775390625 1154 589.775390625 1154 c 0,25,26
 667.775390625 1154 667.775390625 1154 732.182617188 1125 c 1,27,-1
 816.356445312 1265 l 1,28,-1
 968.467773438 1171 l 1,29,-1
 870.809570312 1009 l 1,30,31
 922.930664062 934 922.930664062 934 942.875 820 c 128,-1,32
 962.819335938 706 962.819335938 706 940.01171875 562 c 0,33,34
 910.7109375 377 910.7109375 377 831.541992188 246.5 c 128,-1,35
 752.373046875 116 752.373046875 116 639.786132812 46 c 128,-1,36
 527.19921875 -24 527.19921875 -24 403.19921875 -24 c 0,37,38
 323.19921875 -24 323.19921875 -24 258.31640625 2 c 1,39,-1
 161.450195312 -155 l 1,16,-1
EndSplineSet
EndChar

StartChar: oe
Encoding: 339 339 389
Width: 922
VWidth: 2424
GlyphClass: 1
Flags: HW
LayerCount: 2
Fore
SplineSet
239.2421875 172 m 0,0,1
 268.2421875 172 268.2421875 172 291.489257812 192.5 c 128,-1,2
 314.736328125 213 314.736328125 213 320.12109375 247 c 0,3,4
 322.021484375 259 322.021484375 259 322.842773438 270.5 c 128,-1,5
 323.6640625 282 323.6640625 282 324.673828125 301 c 0,6,7
 327.28515625 368 327.28515625 368 331.447265625 429 c 128,-1,8
 335.608398438 490 335.608398438 490 350.1796875 582 c 0,9,10
 371.403320312 716 371.403320312 716 393.198242188 781 c 128,-1,11
 414.993164062 846 414.993164062 846 417.685546875 863 c 0,12,13
 422.4375 893 422.4375 893 408.29296875 920.5 c 128,-1,14
 394.1484375 948 394.1484375 948 358.1484375 948 c 0,15,16
 309.1484375 948 309.1484375 948 260.661132812 866 c 128,-1,17
 212.173828125 784 212.173828125 784 181.447265625 590 c 0,18,19
 148.819335938 384 148.819335938 384 158.53125 278 c 128,-1,20
 168.2421875 172 168.2421875 172 239.2421875 172 c 0,0,1
535.235351562 696 m 1,21,-1
 763.235351562 696 l 1,22,23
 781.984375 827 781.984375 827 768.803710938 889 c 128,-1,24
 755.624023438 951 755.624023438 951 695.624023438 951 c 0,25,26
 638.624023438 951 638.624023438 951 597.719726562 879 c 128,-1,27
 556.81640625 807 556.81640625 807 535.235351562 696 c 1,21,-1
561.248046875 -30 m 0,28,29
 506.248046875 -30 506.248046875 -30 459.57421875 -9 c 128,-1,30
 412.900390625 12 412.900390625 12 379.502929688 60 c 1,31,32
 330.7421875 11 330.7421875 11 285.233398438 -8 c 128,-1,33
 239.723632812 -27 239.723632812 -27 191.723632812 -27 c 0,34,35
 122.723632812 -27 122.723632812 -27 64.9052734375 21.5 c 128,-1,36
 7.0869140625 70 7.0869140625 70 -14.060546875 198.5 c 128,-1,37
 -35.2080078125 327 -35.2080078125 327 1.6953125 560 c 0,38,39
 35.748046875 775 35.748046875 775 96.837890625 905 c 128,-1,40
 157.927734375 1035 157.927734375 1035 233.956054688 1092 c 128,-1,41
 309.983398438 1149 309.983398438 1149 389.983398438 1149 c 0,42,43
 490.983398438 1149 490.983398438 1149 538.620117188 1052 c 1,44,45
 614.983398438 1149 614.983398438 1149 718.983398438 1149 c 0,46,47
 844.983398438 1149 844.983398438 1149 896.532226562 1032.5 c 128,-1,48
 948.080078125 916 948.080078125 916 911.810546875 687 c 2,49,-1
 884.409179688 514 l 1,50,-1
 504.409179688 514 l 1,51,52
 483.760742188 371 483.760742188 371 491.14453125 294.5 c 128,-1,53
 498.52734375 218 498.52734375 218 528.592773438 190 c 128,-1,54
 558.658203125 162 558.658203125 162 603.658203125 162 c 0,55,56
 646.658203125 162 646.658203125 162 685.247070312 181.5 c 128,-1,57
 723.834960938 201 723.834960938 201 761.595703125 250 c 1,58,-1
 813.947265625 107 l 1,59,60
 753.860351562 37 753.860351562 37 694.0546875 3.5 c 128,-1,61
 634.248046875 -30 634.248046875 -30 561.248046875 -30 c 0,28,29
EndSplineSet
EndChar

StartChar: p
Encoding: 112 112 390
Width: 922
VWidth: 2293
GlyphClass: 2
Flags: HW
AnchorPoint: "Anchor-2" 451.689 118 basechar 0
AnchorPoint: "Anchor-0" 611.341 1126 basechar 0
LayerCount: 2
Fore
SplineSet
454.872070312 277 m 0,0,1
 510.872070312 277 510.872070312 277 560.861328125 308.5 c 128,-1,2
 610.850585938 340 610.850585938 340 649.387695312 416 c 128,-1,3
 687.924804688 492 687.924804688 492 709.624023438 629 c 0,4,5
 736.232421875 797 736.232421875 797 700.037109375 881 c 128,-1,6
 663.840820312 965 663.840820312 965 575.158203125 967 c 0,7,8
 573.142578125 967.044921875 573.142578125 967.044921875 571.139648438 967.044921875 c 0,9,10
 482.998046875 967.044921875 482.998046875 967.044921875 418.037109375 881 c 0,11,12
 351.598632812 793 351.598632812 793 321.189453125 601 c 0,13,14
 296.263671875 431 296.263671875 431 331.068359375 354 c 128,-1,15
 365.872070312 277 365.872070312 277 454.872070312 277 c 0,0,1
-41.962890625 -246 m 1,16,-1
 176.291015625 1132 l 1,17,-1
 401.291015625 1132 l 1,18,-1
 378.80078125 990 l 1,19,20
 435.946289062 1073 435.946289062 1073 506.361328125 1113.5 c 128,-1,21
 576.775390625 1154 576.775390625 1154 659.775390625 1154 c 0,22,23
 757.775390625 1154 757.775390625 1154 829.985351562 1098.5 c 128,-1,24
 902.1953125 1043 902.1953125 1043 932.584960938 925.5 c 128,-1,25
 962.974609375 808 962.974609375 808 933.673828125 623 c 128,-1,26
 904.372070312 438 904.372070312 438 835.762695312 320.5 c 128,-1,27
 767.15234375 203 767.15234375 203 675.782226562 147 c 128,-1,28
 584.413085938 91 584.413085938 91 486.413085938 91 c 0,29,30
 412.413085938 91 412.413085938 91 351.6640625 121 c 128,-1,31
 290.916015625 151 290.916015625 151 261.102539062 209 c 1,32,-1
 189.037109375 -246 l 1,33,-1
 -41.962890625 -246 l 1,16,-1
EndSplineSet
EndChar

StartChar: thorn
Encoding: 254 254 391
Width: 922
VWidth: 2360
GlyphClass: 1
Flags: HW
LayerCount: 2
Fore
SplineSet
470.08984375 291 m 0,0,1
 528.08984375 291 528.08984375 291 579.158203125 323 c 128,-1,2
 630.2265625 355 630.2265625 355 669.580078125 433 c 128,-1,3
 708.934570312 511 708.934570312 511 731.266601562 652 c 0,4,5
 758.508789062 824 758.508789062 824 721.708984375 910.5 c 128,-1,6
 684.909179688 997 684.909179688 997 593.225585938 999 c 0,7,8
 591.200195312 999.04296875 591.200195312 999.04296875 589.186523438 999.04296875 c 0,0,0
 498.076171875 999.04296875 498.076171875 999.04296875 431.708984375 910.5 c 128,-1,9
 363.875 820 363.875 820 332.83203125 624 c 0,10,11
 307.114257812 449 307.114257812 449 342.602539062 370 c 128,-1,12
 378.08984375 291 378.08984375 291 470.08984375 291 c 0,0,1
257.216796875 1624 m 1,13,-1
 507.216796875 1624 l 1,14,-1
 504.20703125 1605 l 1,15,16
 489.1484375 1592 489.1484375 1592 482.955078125 1575 c 128,-1,17
 476.762695312 1558 476.762695312 1558 471.061523438 1522 c 2,18,-1
 392.02734375 1023 l 1,19,20
 450.490234375 1108 450.490234375 1108 523.0625 1149.5 c 128,-1,21
 595.635742188 1191 595.635742188 1191 680.635742188 1191 c 0,22,23
 780.635742188 1191 780.635742188 1191 855.028320312 1133.5 c 128,-1,24
 929.421875 1076 929.421875 1076 960.8359375 955.5 c 128,-1,25
 992.250976562 835 992.250976562 835 962.158203125 645 c 128,-1,26
 932.064453125 455 932.064453125 455 861.479492188 334.5 c 128,-1,27
 790.89453125 214 790.89453125 214 697.366210938 157 c 128,-1,28
 603.838867188 100 603.838867188 100 501.838867188 100 c 0,29,30
 425.838867188 100 425.838867188 100 364.168945312 130.5 c 128,-1,31
 302.5 161 302.5 161 272.002929688 221 c 1,32,-1
 198.037109375 -246 l 1,33,-1
 -38.962890625 -246 l 1,34,-1
 257.216796875 1624 l 1,13,-1
EndSplineSet
EndChar

StartChar: q
Encoding: 113 113 392
Width: 922
VWidth: 2293
GlyphClass: 1
Flags: HW
LayerCount: 2
Fore
SplineSet
434.189453125 279 m 0,0,1
 513.189453125 279 513.189453125 279 576.439453125 359.5 c 128,-1,2
 639.689453125 440 639.689453125 440 670.57421875 635 c 0,3,4
 700.508789062 824 700.508789062 824 660.650390625 897.5 c 128,-1,5
 620.791015625 971 620.791015625 971 543.791015625 971 c 0,6,7
 456.791015625 971 456.791015625 971 386.674804688 894.5 c 128,-1,8
 316.55859375 818 316.55859375 818 286.624023438 629 c 0,9,10
 257.639648438 446 257.639648438 446 298.9140625 362.5 c 128,-1,11
 340.189453125 279 340.189453125 279 434.189453125 279 c 0,0,1
531.037109375 -246 m 1,12,-1
 604.52734375 218 l 1,13,14
 561.549804688 155 561.549804688 155 498.139648438 124 c 128,-1,15
 434.729492188 93 434.729492188 93 362.729492188 93 c 0,16,17
 177.729492188 93 177.729492188 93 97.87890625 236 c 128,-1,18
 18.02734375 379 18.02734375 379 56.673828125 623 c 0,19,20
 98.169921875 885 98.169921875 885 225.47265625 1019.5 c 128,-1,21
 352.775390625 1154 352.775390625 1154 537.775390625 1154 c 0,22,23
 618.775390625 1154 618.775390625 1154 666.390625 1120 c 128,-1,24
 714.005859375 1086 714.005859375 1086 739.02734375 1023 c 1,25,-1
 755.974609375 1130 l 1,26,-1
 977.974609375 1130 l 1,27,-1
 760.037109375 -246 l 1,28,-1
 531.037109375 -246 l 1,12,-1
EndSplineSet
EndChar

StartChar: r
Encoding: 114 114 393
Width: 922
VWidth: 2424
GlyphClass: 2
Flags: HW
AnchorPoint: "Anchor-2" 526 0 basechar 0
AnchorPoint: "Anchor-0" 703.391 1120 basechar 0
LayerCount: 2
Fore
SplineSet
269.499023438 1127 m 1,0,-1
 530.499023438 1127 l 1,1,-1
 500.940429688 953 l 1,2,3
 556.987304688 1048 556.987304688 1048 647.880859375 1101 c 128,-1,4
 738.775390625 1154 738.775390625 1154 830.775390625 1154 c 0,5,6
 1002.77539062 1154 1002.77539062 1154 1091.02734375 1023 c 1,7,-1
 953.291015625 810 l 1,8,-1
 939.806640625 788 l 1,9,-1
 922.390625 798 l 1,10,11
 918.400390625 817 918.400390625 817 914.146484375 837.5 c 128,-1,12
 909.893554688 858 909.893554688 858 888.645507812 888 c 1,13,14
 832.55078125 936.01953125 832.55078125 936.01953125 763.088867188 936.01953125 c 0,15,16
 761.670898438 936.01953125 761.670898438 936.01953125 760.248046875 936 c 0,17,18
 693.248046875 936 693.248046875 936 626.362304688 902 c 128,-1,19
 559.477539062 868 559.477539062 868 510.51953125 792.5 c 128,-1,20
 461.561523438 717 461.561523438 717 442.080078125 594 c 2,21,-1
 347.68359375 -2 l 1,22,-1
 90.68359375 -2 l 1,23,-1
 269.499023438 1127 l 1,0,-1
EndSplineSet
EndChar

StartChar: uni027B
Encoding: 635 635 399
Width: 922
VWidth: 2271
GlyphClass: 1
Flags: HW
LayerCount: 2
Fore
SplineSet
617.037109375 -246 m 0,0,1
 477.037109375 -246 477.037109375 -246 425.5546875 -157.5 c 128,-1,2
 374.071289062 -69 374.071289062 -69 401.58984375 130 c 1,3,-1
 423.921875 271 l 1,4,5
 379.04296875 196 379.04296875 196 306.311523438 153.5 c 128,-1,6
 233.581054688 111 233.581054688 111 165.581054688 111 c 0,7,8
 104.581054688 111 104.581054688 111 53.3818359375 135 c 128,-1,9
 2.18359375 159 2.18359375 159 -40.10546875 214 c 1,10,-1
 66.720703125 396 l 1,11,-1
 75.7294921875 415 l 1,12,-1
 91.62109375 408 l 1,13,14
 95.2451171875 393 95.2451171875 393 98.552734375 376 c 128,-1,15
 101.860351562 359 101.860351562 359 121.534179688 338 c 1,16,17
 142.158203125 323 142.158203125 323 162.811523438 314.5 c 128,-1,18
 183.465820312 306 183.465820312 306 215.465820312 306 c 0,19,20
 264.465820312 306 264.465820312 306 319.850585938 340 c 128,-1,21
 375.235351562 374 375.235351562 374 418.426757812 441.5 c 128,-1,22
 461.618164062 509 461.618164062 509 476.981445312 606 c 2,23,-1
 560.291015625 1132 l 1,24,-1
 775.291015625 1132 l 1,25,-1
 613.2734375 128 l 2,26,27
 583.813476562 -58 583.813476562 -58 674.813476562 -58 c 0,28,29
 688.813476562 -58 688.813476562 -58 703.630859375 -56 c 128,-1,30
 718.447265625 -54 718.447265625 -54 735.873046875 -45 c 0,31,32
 751.139648438 -37 751.139648438 -37 755.881835938 -26 c 128,-1,33
 760.624023438 -15 760.624023438 -15 771.2578125 -11 c 1,34,-1
 786.065429688 -189 l 1,35,36
 710.037109375 -246 710.037109375 -246 617.037109375 -246 c 0,0,1
EndSplineSet
EndChar

StartChar: uni024D
Encoding: 589 589 402
Width: 922
VWidth: 2424
GlyphClass: 2
Flags: HW
AnchorPoint: "Anchor-2" 480 0 basechar 0
AnchorPoint: "Anchor-0" 657.391 1120 basechar 0
LayerCount: 2
Fore
SplineSet
22.8193359375 384 m 1,0,-1
 56.080078125 594 l 1,1,-1
 171.080078125 594 l 1,2,-1
 255.499023438 1127 l 1,3,-1
 497.499023438 1127 l 1,4,-1
 467.940429688 953 l 1,5,6
 520.987304688 1048 520.987304688 1048 605.380859375 1101 c 128,-1,7
 689.775390625 1154 689.775390625 1154 774.775390625 1154 c 0,8,9
 933.775390625 1154 933.775390625 1154 1014.02734375 1023 c 1,10,-1
 883.291015625 810 l 1,11,-1
 871.806640625 788 l 1,12,-1
 855.390625 798 l 1,13,14
 851.400390625 817 851.400390625 817 847.646484375 837.5 c 128,-1,15
 843.893554688 858 843.893554688 858 824.645507812 888 c 1,16,17
 773.451171875 936.01953125 773.451171875 936.01953125 708.888671875 936.01953125 c 0,18,19
 707.571289062 936.01953125 707.571289062 936.01953125 706.248046875 936 c 0,20,21
 644.248046875 936 644.248046875 936 582.362304688 902 c 128,-1,22
 520.477539062 868 520.477539062 868 474.01953125 792.5 c 128,-1,23
 427.561523438 717 427.561523438 717 408.080078125 594 c 1,24,-1
 652.080078125 594 l 1,25,-1
 618.819335938 384 l 1,26,-1
 374.819335938 384 l 1,27,-1
 313.68359375 -2 l 1,28,-1
 76.68359375 -2 l 1,29,-1
 137.819335938 384 l 1,30,-1
 22.8193359375 384 l 1,0,-1
EndSplineSet
EndChar

StartChar: s
Encoding: 115 115 403
Width: 922
VWidth: 2424
GlyphClass: 1
Flags: HW
LayerCount: 2
Fore
SplineSet
459.723632812 -27 m 0,0,1
 318.723632812 -27 318.723632812 -27 208.900390625 12 c 128,-1,2
 99.0771484375 51 99.0771484375 51 24.2236328125 134 c 1,3,-1
 164.484375 344 l 1,4,-1
 178.96875 366 l 1,5,-1
 195.384765625 356 l 1,6,7
 199.375976562 337 199.375976562 337 204.787109375 317.5 c 128,-1,8
 210.198242188 298 210.198242188 298 232.921875 271 c 0,9,10
 278.953125 227 278.953125 227 340.731445312 203.5 c 128,-1,11
 402.508789062 180 402.508789062 180 492.508789062 180 c 128,-1,12
 582.508789062 180 582.508789062 180 638.948242188 217.5 c 128,-1,13
 695.387695312 255 695.387695312 255 704.57421875 313 c 0,14,15
 713.444335938 369 713.444335938 369 666.224609375 405.5 c 128,-1,16
 619.005859375 442 619.005859375 442 501.5 483 c 0,17,18
 344.577148438 534 344.577148438 534 257.90625 615 c 128,-1,19
 171.235351562 696 171.235351562 696 193.250976562 835 c 0,20,21
 214.791015625 971 214.791015625 971 338.283203125 1062.5 c 128,-1,22
 461.775390625 1154 461.775390625 1154 646.775390625 1154 c 0,23,24
 903.775390625 1154 903.775390625 1154 1029.80078125 990 c 1,25,-1
 880.608398438 812 l 1,26,-1
 862.598632812 793 l 1,27,-1
 847.499023438 805 l 1,28,29
 848.508789062 824 848.508789062 824 843.438476562 842.5 c 128,-1,30
 838.369140625 861 838.369140625 861 814.645507812 888 c 1,31,32
 775.713867188 920 775.713867188 920 726.168945312 935.5 c 128,-1,33
 676.624023438 951 676.624023438 951 621.624023438 951 c 0,34,35
 546.624023438 951 546.624023438 951 490.030273438 922 c 128,-1,36
 433.4375 893 433.4375 893 424.884765625 839 c 0,37,38
 416.806640625 788 416.806640625 788 468.026367188 751.5 c 128,-1,39
 519.245117188 715 519.245117188 715 648.750976562 674 c 0,40,41
 821.881835938 618 821.881835938 618 889.948242188 539.5 c 128,-1,42
 958.015625 461 958.015625 461 936.791992188 327 c 0,43,44
 913.034179688 177 913.034179688 177 788.37890625 75 c 128,-1,45
 663.723632812 -27 663.723632812 -27 459.723632812 -27 c 0,0,1
EndSplineSet
EndChar

StartChar: germandbls
Encoding: 223 223 414
Width: 922
VWidth: 2424
GlyphClass: 1
Flags: HW
LayerCount: 2
Fore
SplineSet
505.248046875 -30 m 0,0,1
 438.248046875 -30 438.248046875 -30 393.520507812 -12.5 c 128,-1,2
 348.791992188 5 348.791992188 5 300.176757812 39 c 1,3,-1
 419.012695312 240 l 1,4,5
 459.934570312 189 459.934570312 189 521.934570312 189 c 0,6,7
 593.934570312 189 593.934570312 189 648.897460938 274 c 128,-1,8
 703.860351562 359 703.860351562 359 721.440429688 470 c 0,9,10
 740.129882812 588 740.129882812 588 697.221679688 667.5 c 128,-1,11
 654.313476562 747 654.313476562 747 523.313476562 747 c 2,12,-1
 443.313476562 747 l 1,13,-1
 476.256835938 955 l 1,14,-1
 569.256835938 955 l 2,15,16
 636.256835938 955 636.256835938 955 692.33984375 1015.5 c 128,-1,17
 748.421875 1076 748.421875 1076 765.685546875 1185 c 0,18,19
 781.840820312 1287 781.840820312 1287 745.71484375 1352.5 c 128,-1,20
 709.588867188 1418 709.588867188 1418 629.588867188 1418 c 0,21,22
 545.588867188 1418 545.588867188 1418 482.225585938 1321 c 128,-1,23
 418.862304688 1224 418.862304688 1224 392.887695312 1060 c 2,24,-1
 225 0 l 1,25,-1
 -8 0 l 1,26,-1
 157.1953125 1043 l 2,27,28
 205.977539062 1351 205.977539062 1351 339.493164062 1490 c 128,-1,29
 473.0078125 1629 473.0078125 1629 652.0078125 1629 c 0,30,31
 772.0078125 1629 772.0078125 1629 854.98046875 1572 c 128,-1,32
 937.952148438 1515 937.952148438 1515 974.088867188 1418 c 128,-1,33
 1010.22558594 1321 1010.22558594 1321 991.536132812 1203 c 0,34,35
 975.064453125 1099 975.064453125 1099 924.522460938 1013.5 c 128,-1,36
 873.98046875 928 873.98046875 928 783.5859375 875 c 1,37,38
 886.409179688 836 886.409179688 836 932.987304688 726 c 128,-1,39
 979.564453125 616 979.564453125 616 952.639648438 446 c 0,40,41
 918.111328125 228 918.111328125 228 794.1796875 99 c 128,-1,42
 670.248046875 -30 670.248046875 -30 505.248046875 -30 c 0,0,1
EndSplineSet
EndChar

StartChar: t
Encoding: 116 116 415
Width: 922
VWidth: 2424
GlyphClass: 2
Flags: HW
AnchorPoint: "Anchor-4" 480.412 735 basechar 0
AnchorPoint: "Anchor-2" 505 0 basechar 0
AnchorPoint: "Anchor-1" 745.707 1122 basechar 0
AnchorPoint: "Anchor-0" 647.064 1421 basechar 0
LayerCount: 2
Fore
SplineSet
557.19921875 -24 m 0,0,1
 436.19921875 -24 436.19921875 -24 366.831054688 30.5 c 128,-1,2
 297.462890625 85 297.462890625 85 284.765625 219.5 c 0,3,4
 274.236328125 331.036132812 274.236328125 331.036132812 302.629882812 510.310546875 c 0,5,6
 308.475585938 547.219726562 308.475585938 547.219726562 315.971679688 587 c 2,7,-1
 379.971679688 909 l 1,8,-1
 172.971679688 909 l 1,9,-1
 208.390625 1120 l 1,10,-1
 420.390625 1120 l 1,11,-1
 473.946289062 1395 l 1,12,-1
 740.172851562 1428 l 1,13,-1
 762.490234375 1430 l 1,14,-1
 762.1640625 1409 l 1,15,16
 750.470703125 1392 750.470703125 1392 737.541015625 1373.5 c 128,-1,17
 724.611328125 1355 724.611328125 1355 715.43359375 1316 c 2,18,-1
 673.390625 1120 l 1,19,-1
 995.390625 1120 l 1,20,-1
 958.971679688 909 l 1,21,-1
 636.971679688 909 l 1,22,-1
 571.447265625 590 l 2,23,24
 561.603515625 541.3046875 561.603515625 541.3046875 554.955078125 499.32421875 c 0,25,26
 539.756835938 403.369140625 539.756835938 403.369140625 541.247070312 342.5 c 0,27,28
 543.387695312 255 543.387695312 255 572.502929688 221 c 128,-1,29
 601.618164062 187 601.618164062 187 650.618164062 187 c 0,30,31
 720.618164062 187 720.618164062 187 780.2109375 216 c 128,-1,32
 839.803710938 245 839.803710938 245 894.981445312 284 c 1,33,-1
 912.571289062 92 l 1,34,35
 746.19921875 -24 746.19921875 -24 557.19921875 -24 c 0,0,1
EndSplineSet
EndChar

StartChar: tbar
Encoding: 359 359 416
Width: 922
VWidth: 2424
GlyphClass: 2
Flags: HW
AnchorPoint: "Anchor-4" 480.412 735 basechar 0
AnchorPoint: "Anchor-2" 505 0 basechar 0
AnchorPoint: "Anchor-1" 745.707 1122 basechar 0
AnchorPoint: "Anchor-0" 647.064 1421 basechar 0
LayerCount: 2
Fore
SplineSet
99.5087890625 502 m 1,0,-1
 133.245117188 715 l 1,1,-1
 341.245117188 715 l 1,2,-1
 379.971679688 909 l 1,3,-1
 172.971679688 909 l 1,4,-1
 208.390625 1120 l 1,5,-1
 420.390625 1120 l 1,6,-1
 473.946289062 1395 l 1,7,-1
 740.172851562 1428 l 1,8,-1
 762.490234375 1430 l 1,9,-1
 762.1640625 1409 l 1,10,11
 750.470703125 1392 750.470703125 1392 737.541015625 1373.5 c 128,-1,12
 724.611328125 1355 724.611328125 1355 715.43359375 1316 c 2,13,-1
 673.390625 1120 l 1,14,-1
 995.390625 1120 l 1,15,-1
 958.971679688 909 l 1,16,-1
 636.971679688 909 l 1,17,-1
 596.245117188 715 l 1,18,-1
 916.245117188 715 l 1,19,-1
 882.508789062 502 l 1,20,-1
 554.508789062 502 l 1,21,22
 526.890625 315 526.890625 315 556.254882812 251 c 128,-1,23
 585.618164062 187 585.618164062 187 650.618164062 187 c 0,24,25
 720.618164062 187 720.618164062 187 780.2109375 216 c 128,-1,26
 839.803710938 245 839.803710938 245 894.981445312 284 c 1,27,-1
 912.571289062 92 l 1,28,29
 746.19921875 -24 746.19921875 -24 557.19921875 -24 c 0,30,31
 446.19921875 -24 446.19921875 -24 378.142578125 23 c 128,-1,32
 310.086914062 70 310.086914062 70 290.379882812 185.5 c 128,-1,33
 270.673828125 301 270.673828125 301 300.508789062 502 c 1,34,-1
 99.5087890625 502 l 1,0,-1
EndSplineSet
EndChar

StartChar: u
Encoding: 117 117 423
Width: 922
VWidth: 2424
GlyphClass: 2
Flags: HW
AnchorPoint: "Anchor-3" 692 0 basechar 0
AnchorPoint: "Anchor-2" 396 0 basechar 0
AnchorPoint: "Anchor-1" 1036.39 1120 basechar 0
AnchorPoint: "Anchor-0" 626.391 1120 basechar 0
LayerCount: 2
Fore
SplineSet
362.723632812 -27 m 0,0,1
 205.723632812 -27 205.723632812 -27 124.962890625 85 c 0,2,3
 45.80859375 194.771484375 45.80859375 194.771484375 87.6904296875 459.198242188 c 0,4,5
 88.5400390625 464.567382812 88.5400390625 464.567382812 89.4404296875 470 c 2,6,-1
 193.499023438 1127 l 1,7,-1
 445.499023438 1127 l 1,8,-1
 340.33203125 463 l 2,9,10
 314.990234375 303 314.990234375 303 349.645507812 244 c 128,-1,11
 384.30078125 185 384.30078125 185 449.30078125 185 c 0,12,13
 539.30078125 185 539.30078125 185 606.6796875 260 c 128,-1,14
 674.05859375 335 674.05859375 335 697.81640625 485 c 2,15,-1
 799.499023438 1127 l 1,16,-1
 1051.49902344 1127 l 1,17,-1
 901.192382812 178 l 2,18,19
 893.431640625 129 893.431640625 129 889.962890625 85 c 128,-1,20
 886.494140625 41 886.494140625 41 896 0 c 1,21,-1
 662 0 l 1,22,23
 653.384765625 34 653.384765625 34 655.270507812 68 c 128,-1,24
 657.155273438 102 657.155273438 102 663.33203125 141 c 1,25,26
 606.186523438 58 606.186523438 58 526.955078125 15.5 c 128,-1,27
 447.723632812 -27 447.723632812 -27 362.723632812 -27 c 0,0,1
EndSplineSet
EndChar

StartChar: v
Encoding: 118 118 446
Width: 922
VWidth: 2424
GlyphClass: 2
Flags: HW
AnchorPoint: "Anchor-2" 418 0 basechar 0
AnchorPoint: "Anchor-0" 593.707 1122 basechar 0
LayerCount: 2
Fore
SplineSet
320 0 m 1,0,-1
 145.499023438 1127 l 1,1,-1
 391.499023438 1127 l 1,2,-1
 492.384765625 356 l 1,3,-1
 652.384765625 678 l 2,4,5
 710.548828125 799 710.548828125 799 752.684570312 913.5 c 128,-1,6
 794.819335938 1028 794.819335938 1028 814.499023438 1127 c 1,7,-1
 1035.49902344 1127 l 1,8,9
 1007.55175781 1020 1007.55175781 1020 954.887695312 899 c 128,-1,10
 902.22265625 778 902.22265625 778 842.266601562 652 c 2,11,-1
 514 0 l 1,12,-1
 320 0 l 1,0,-1
EndSplineSet
EndChar

StartChar: w
Encoding: 119 119 447
Width: 922
VWidth: 2424
GlyphClass: 2
Flags: HW
AnchorPoint: "Anchor-2" 373 0 basechar 0
AnchorPoint: "Anchor-0" 550.391 1120 basechar 0
LayerCount: 2
Fore
SplineSet
81.68359375 -2 m 1,0,-1
 102.499023438 1127 l 1,1,-1
 288.499023438 1127 l 1,2,-1
 261.860351562 359 l 1,3,-1
 480.850585938 984 l 1,4,-1
 596.850585938 984 l 1,5,-1
 639.493164062 363 l 1,6,7
 692.12109375 569 692.12109375 569 724.185546875 702 c 128,-1,8
 756.250976562 835 756.250976562 835 773.79296875 920.5 c 128,-1,9
 791.334960938 1006 791.334960938 1006 801.3125 1069 c 2,10,-1
 810.499023438 1127 l 1,11,-1
 992.499023438 1127 l 1,12,13
 933.577148438 856 933.577148438 856 850.353515625 561 c 128,-1,14
 767.129882812 266 767.129882812 266 685.68359375 -2 c 1,15,-1
 496.68359375 -2 l 1,16,-1
 474.447265625 590 l 1,17,-1
 270.68359375 -2 l 1,18,-1
 81.68359375 -2 l 1,0,-1
EndSplineSet
EndChar

StartChar: x
Encoding: 120 120 452
Width: 922
VWidth: 2424
GlyphClass: 2
Flags: HW
AnchorPoint: "Anchor-2" 406 0 basechar 0
AnchorPoint: "Anchor-0" 583.707 1122 basechar 0
LayerCount: 2
Fore
SplineSet
-37 0 m 1,0,-1
 370.487304688 565 l 1,1,-1
 146.499023438 1127 l 1,2,-1
 386.499023438 1127 l 1,3,-1
 527.540039062 780 l 1,4,-1
 764.499023438 1127 l 1,5,-1
 995.499023438 1127 l 1,6,-1
 614.387695312 577 l 1,7,-1
 853 0 l 1,8,-1
 610 0 l 1,9,-1
 460.860351562 359 l 1,10,-1
 208 0 l 1,11,-1
 -37 0 l 1,0,-1
EndSplineSet
EndChar

StartChar: y
Encoding: 121 121 453
Width: 922
VWidth: 2274
GlyphClass: 2
Flags: HW
AnchorPoint: "Anchor-2" 673.432 129 basechar 0
AnchorPoint: "Anchor-0" 581.866 1123 basechar 0
LayerCount: 2
Fore
SplineSet
111.037109375 -246 m 0,0,1
 47.037109375 -246 47.037109375 -246 0.4423828125 -224.5 c 128,-1,2
 -46.15234375 -203 -46.15234375 -203 -87.341796875 -160 c 1,3,-1
 13.6337890625 4 l 1,4,-1
 25.80078125 24 l 1,5,-1
 41.3759765625 15 l 1,6,7
 45 0 45 0 51.4658203125 -16 c 128,-1,8
 57.931640625 -32 57.931640625 -32 81.9228515625 -51 c 1,9,10
 107.86328125 -64 107.86328125 -64 142.86328125 -64 c 0,11,12
 200.86328125 -64 200.86328125 -64 243.336914062 -10.5 c 128,-1,13
 285.810546875 43 285.810546875 43 341.024414062 158 c 1,14,-1
 341.658203125 162 l 1,15,-1
 146.499023438 1127 l 1,16,-1
 369.499023438 1127 l 1,17,-1
 488.916015625 473 l 1,18,-1
 627.688476562 762 l 2,19,20
 672.260742188 854 672.260742188 854 707.09375 944.5 c 128,-1,21
 741.927734375 1035 741.927734375 1035 760.499023438 1127 c 1,22,-1
 966.499023438 1127 l 1,23,24
 945.293945312 1031 945.293945312 1031 894.767578125 923.5 c 128,-1,25
 844.2421875 816 844.2421875 816 796.561523438 717 c 2,26,-1
 466.860351562 37 l 2,27,28
 391.46875 -117 391.46875 -117 301.752929688 -181.5 c 128,-1,29
 212.037109375 -246 212.037109375 -246 111.037109375 -246 c 0,0,1
EndSplineSet
EndChar

StartChar: z
Encoding: 122 122 463
Width: 922
VWidth: 2424
GlyphClass: 2
Flags: HW
AnchorPoint: "Anchor-2" 448 0 basechar 0
AnchorPoint: "Anchor-0" 629.707 1122 basechar 0
LayerCount: 2
Fore
SplineSet
16.341796875 160 m 1,0,-1
 676.971679688 909 l 1,1,-1
 177.971679688 909 l 1,2,-1
 212.499023438 1127 l 1,3,-1
 1012.49902344 1127 l 1,4,-1
 986.048828125 960 l 1,5,-1
 336.52734375 218 l 1,6,-1
 807.52734375 218 l 2,7,8
 847.52734375 218 847.52734375 218 864.08203125 221.5 c 128,-1,9
 880.63671875 225 880.63671875 225 897.012695312 240 c 1,10,-1
 919.012695312 240 l 1,11,-1
 881 0 l 1,12,-1
 -9 0 l 1,13,-1
 16.341796875 160 l 1,0,-1
EndSplineSet
EndChar

StartChar: u.i
Encoding: 65539 -1 468
Width: 922
VWidth: 2424
GlyphClass: 2
Flags: HW
AnchorPoint: "Anchor-3" 619 0 basechar 0
AnchorPoint: "Anchor-2" 313 0 basechar 0
AnchorPoint: "Anchor-1" 909.707 1122 basechar 0
AnchorPoint: "Anchor-0" 525.707 1122 basechar 0
LayerCount: 2
Fore
SplineSet
282.723632812 -27 m 0,0,1
 136.723632812 -27 136.723632812 -27 63.462890625 85 c 0,2,3
 -7.4599609375 193.42578125 -7.4599609375 193.42578125 33.611328125 452.73828125 c 0,4,5
 34.96484375 461.287109375 34.96484375 461.287109375 36.4404296875 470 c 2,6,-1
 140.499023438 1127 l 1,7,-1
 373.499023438 1127 l 1,8,-1
 268.33203125 463 l 2,9,10
 242.990234375 303 242.990234375 303 273.145507812 244 c 128,-1,11
 303.30078125 185 303.30078125 185 364.30078125 185 c 0,12,13
 447.30078125 185 447.30078125 185 511.1796875 260 c 128,-1,14
 575.05859375 335 575.05859375 335 598.81640625 485 c 2,15,-1
 700.499023438 1127 l 1,16,-1
 933.499023438 1127 l 1,17,-1
 783.192382812 178 l 2,18,19
 775.431640625 129 775.431640625 129 770.962890625 85 c 128,-1,20
 766.494140625 41 766.494140625 41 774 0 c 1,21,-1
 561 0 l 1,22,23
 552.384765625 34 552.384765625 34 553.770507812 68 c 128,-1,24
 555.155273438 102 555.155273438 102 561.33203125 141 c 1,25,26
 509.186523438 58 509.186523438 58 434.955078125 15.5 c 128,-1,27
 360.723632812 -27 360.723632812 -27 282.723632812 -27 c 0,0,1
EndSplineSet
EndChar

StartChar: r.serif
Encoding: 65540 -1 469
Width: 922
VWidth: 2424
GlyphClass: 1
Flags: HW
LayerCount: 2
Fore
SplineSet
-4 0 m 1,0,-1
 28.626953125 206 l 1,1,-1
 148.626953125 206 l 1,2,-1
 261.555664062 919 l 1,3,-1
 146.555664062 919 l 1,4,-1
 179.499023438 1127 l 1,5,-1
 534.499023438 1127 l 1,6,-1
 506.940429688 953 l 1,7,8
 567.303710938 1050 567.303710938 1050 651.040039062 1102 c 128,-1,9
 734.775390625 1154 734.775390625 1154 818.775390625 1154 c 0,10,11
 885.775390625 1154 885.775390625 1154 947.024414062 1124 c 128,-1,12
 1008.27246094 1094 1008.27246094 1094 1049.453125 1032 c 1,13,-1
 929.708007812 800 l 1,14,15
 910.024414062 802 910.024414062 802 903.692382812 822 c 128,-1,16
 897.359375 842 897.359375 842 885.8984375 867.5 c 128,-1,17
 874.4375 893 874.4375 893 844.208984375 910.5 c 128,-1,18
 813.98046875 928 813.98046875 928 750.98046875 928 c 0,19,20
 689.98046875 928 689.98046875 928 625.829101562 886 c 128,-1,21
 561.676757812 844 561.676757812 844 510.797851562 769 c 128,-1,22
 459.918945312 694 459.918945312 694 443.763671875 592 c 2,23,-1
 382.626953125 206 l 1,24,-1
 552.626953125 206 l 1,25,-1
 520 0 l 1,26,-1
 -4 0 l 1,0,-1
EndSplineSet
EndChar

StartChar: ordfeminine
Encoding: 170 170 470
Width: 922
VWidth: 2424
GlyphClass: 1
Flags: HW
LayerCount: 2
Fore
SplineSet
138.577148438 534 m 1,0,-1
 936.577148438 534 l 1,1,-1
 904.266601562 330 l 1,2,-1
 106.266601562 330 l 1,3,-1
 138.577148438 534 l 1,0,-1
454.654296875 907 m 0,4,5
 446.260742188 854 446.260742188 854 469.825195312 826 c 128,-1,6
 493.390625 798 493.390625 798 534.390625 798 c 0,7,8
 609.390625 798 609.390625 798 658.180664062 853.5 c 128,-1,9
 706.971679688 909 706.971679688 909 732.877929688 1041 c 1,10,11
 720.877929688 1041 720.877929688 1041 708.377929688 1041 c 128,-1,12
 695.877929688 1041 695.877929688 1041 686.877929688 1041 c 0,13,14
 565.877929688 1041 565.877929688 1041 514.859375 1003 c 128,-1,15
 463.840820312 965 463.840820312 965 454.654296875 907 c 0,4,5
460.990234375 625 m 0,16,17
 337.990234375 625 337.990234375 625 281.15625 695.5 c 128,-1,18
 224.322265625 766 224.322265625 766 241.5859375 875 c 0,19,20
 265.02734375 1023 265.02734375 1023 385.543945312 1111.5 c 128,-1,21
 506.061523438 1200 506.061523438 1200 714.061523438 1200 c 0,22,23
 731.061523438 1200 731.061523438 1200 754.744140625 1198 c 1,24,25
 762.69140625 1305 762.69140625 1305 732.338867188 1337.5 c 128,-1,26
 701.986328125 1370 701.986328125 1370 641.986328125 1370 c 0,27,28
 590.986328125 1370 590.986328125 1370 547.21484375 1352.5 c 128,-1,29
 503.443359375 1335 503.443359375 1335 451.840820312 1287 c 1,30,-1
 358.272460938 1416 l 1,31,32
 431.250976562 1479 431.250976562 1479 513.501953125 1509 c 128,-1,33
 595.75390625 1539 595.75390625 1539 683.75390625 1539 c 0,34,35
 780.75390625 1539 780.75390625 1539 852.106445312 1506.5 c 128,-1,36
 923.458984375 1474 923.458984375 1474 952.837890625 1388 c 128,-1,37
 982.216796875 1302 982.216796875 1302 957.350585938 1145 c 2,38,-1
 878.6328125 648 l 1,39,-1
 667.6328125 648 l 1,40,-1
 680.145507812 727 l 1,41,42
 632.276367188 671 632.276367188 671 580.1328125 648 c 128,-1,43
 527.990234375 625 527.990234375 625 460.990234375 625 c 0,16,17
EndSplineSet
EndChar

StartChar: ordmasculine
Encoding: 186 186 471
Width: 922
VWidth: 2424
GlyphClass: 1
Flags: HW
LayerCount: 2
Fore
SplineSet
138.577148438 534 m 1,0,-1
 936.577148438 534 l 1,1,-1
 904.266601562 330 l 1,2,-1
 106.266601562 330 l 1,3,-1
 138.577148438 534 l 1,0,-1
579.499023438 805 m 128,-1,5
 649.499023438 805 649.499023438 805 702.061523438 878 c 128,-1,6
 754.624023438 951 754.624023438 951 775.213867188 1081 c 0,7,8
 797.545898438 1222 797.545898438 1222 766.211914062 1292.5 c 128,-1,9
 734.877929688 1363 734.877929688 1363 667.877929688 1363 c 128,-1,10
 600.877929688 1363 600.877929688 1363 546.711914062 1292.5 c 128,-1,11
 492.545898438 1222 492.545898438 1222 470.213867188 1081 c 0,12,13
 449.46484375 950 449.46484375 950 479.482421875 877.5 c 128,-1,4
 509.499023438 805 509.499023438 805 579.499023438 805 c 128,-1,5
551.306640625 627 m 0,14,15
 396.306640625 627 396.306640625 627 311.837890625 744 c 128,-1,16
 227.369140625 861 227.369140625 861 262.213867188 1081 c 0,17,18
 296.741210938 1299 296.741210938 1299 419.747070312 1419 c 128,-1,19
 542.75390625 1539 542.75390625 1539 695.75390625 1539 c 128,-1,20
 848.75390625 1539 848.75390625 1539 933.827148438 1419.5 c 128,-1,21
 1018.89941406 1300 1018.89941406 1300 984.213867188 1081 c 0,22,23
 949.369140625 861 949.369140625 861 826.837890625 744 c 128,-1,24
 704.306640625 627 704.306640625 627 551.306640625 627 c 0,14,15
EndSplineSet
EndChar

StartChar: uni2124
Encoding: 8484 8484 473
Width: 922
VWidth: 2424
GlyphClass: 1
Flags: HW
LayerCount: 2
Fore
SplineSet
955.443359375 1335 m 1,0,-1
 840.443359375 1335 l 1,1,-1
 197.2421875 172 l 1,2,-1
 315.2421875 172 l 1,3,-1
 955.443359375 1335 l 1,0,-1
1142.31933594 1511 m 1,4,-1
 1116.50195312 1348 l 1,5,-1
 463.2421875 172 l 1,6,-1
 818.2421875 172 l 2,7,8
 856.2421875 172 856.2421875 172 875.034179688 177 c 128,-1,9
 893.826171875 182 893.826171875 182 911.202148438 197 c 1,10,-1
 932.202148438 197 l 1,11,-1
 901 0 l 1,12,-1
 13 0 l 1,13,-1
 38.658203125 162 l 1,14,-1
 687.443359375 1335 l 1,15,-1
 229.443359375 1335 l 1,16,-1
 257.319335938 1511 l 1,17,-1
 1142.31933594 1511 l 1,4,-1
EndSplineSet
EndChar

StartChar: zero
Encoding: 48 48 474
Width: 922
VWidth: 2424
GlyphClass: 1
Flags: HW
LayerCount: 2
Fore
SplineSet
457.192382812 178 m 0,0,1
 673.192382812 178 673.192382812 178 763.313476562 747 c 0,2,3
 777.567382812 837 777.567382812 837 784.446289062 912 c 1,4,-1
 307.869140625 378 l 1,5,6
 329.192382812 178 329.192382812 178 457.192382812 178 c 0,0,1
328.313476562 747 m 0,7,8
 313.266601562 652 313.266601562 652 307.595703125 572 c 1,9,-1
 784.282226562 1113 l 1,10,11
 763.693359375 1316.00488281 763.693359375 1316.00488281 638.662109375 1316.00488281 c 0,0,0
 638.049804688 1316.00488281 638.049804688 1316.00488281 637.43359375 1316 c 0,12,13
 530.43359375 1316 530.43359375 1316 450.834960938 1167 c 128,-1,14
 371.235351562 1018 371.235351562 1018 328.313476562 747 c 0,7,8
424.723632812 -27 m 128,-1,16
 220.723632812 -27 220.723632812 -27 130.450195312 167 c 128,-1,17
 40.1767578125 361 40.1767578125 361 101.313476562 747 c 0,18,19
 161.182617188 1125 161.182617188 1125 314.17578125 1327 c 128,-1,20
 467.169921875 1529 467.169921875 1529 671.169921875 1529 c 128,-1,21
 875.169921875 1529 875.169921875 1529 963.17578125 1327 c 128,-1,22
 1051.18261719 1125 1051.18261719 1125 991.313476562 747 c 0,23,24
 930.176757812 361 930.176757812 361 779.450195312 167 c 128,-1,15
 628.723632812 -27 628.723632812 -27 424.723632812 -27 c 128,-1,16
EndSplineSet
Substitution2: "'ss02' Style Set 2 in Latin lookup 36 subtable" zero.ss02
Substitution2: "'zero' Slashed Zero in Latin lookup 33 subtable" zero.zero
Substitution2: "'frac' Diagonal Fractions in Latin lookup 24 subtable" zero.numr
Substitution2: "'dnom' Denominators in Latin lookup 22 subtable" zero.dnom
Substitution2: "'numr' Numerators in Latin lookup 21 subtable" zero.numr
Substitution2: "'sups' Superscript in Latin lookup 20 subtable" uni2070
Substitution2: "'subs' Subscript in Latin lookup 19 subtable" uni2080
AlternateSubs2: "'aalt' Access All Alternates in Latin lookup 1 subtable" zero.zero zero.ss02 uni2080 zero.dnom zero.numr uni2070
EndChar

StartChar: one
Encoding: 49 49 475
Width: 922
VWidth: 2424
GlyphClass: 1
Flags: HW
LayerCount: 2
Fore
SplineSet
357 0 m 1,0,-1
 549.4375 1215 l 1,1,-1
 289.390625 1120 l 1,2,-1
 264.899414062 1300 l 1,3,-1
 664.635742188 1513 l 1,4,-1
 848.635742188 1513 l 1,5,-1
 609 0 l 1,6,-1
 357 0 l 1,0,-1
EndSplineSet
Substitution2: "'frac' Diagonal Fractions in Latin lookup 24 subtable" one.numr
Substitution2: "'dnom' Denominators in Latin lookup 22 subtable" one.dnom
Substitution2: "'numr' Numerators in Latin lookup 21 subtable" one.numr
Substitution2: "'sups' Superscript in Latin lookup 20 subtable" uni00B9
Substitution2: "'subs' Subscript in Latin lookup 19 subtable" uni2081
AlternateSubs2: "'aalt' Access All Alternates in Latin lookup 1 subtable" uni2081 one.dnom one.numr uni00B9
EndChar

StartChar: two
Encoding: 50 50 476
Width: 922
VWidth: 2424
GlyphClass: 1
Flags: HW
LayerCount: 2
Fore
SplineSet
61.41015625 192 m 1,0,1
 243.65234375 364 243.65234375 364 377.108398438 490 c 128,-1,2
 510.564453125 616 510.564453125 616 601.245117188 715 c 128,-1,3
 691.924804688 814 691.924804688 814 742.416992188 905.5 c 128,-1,4
 792.909179688 997 792.909179688 997 811.588867188 1096 c 0,5,6
 845.325195312 1309 845.325195312 1309 661.325195312 1309 c 0,7,8
 594.325195312 1309 594.325195312 1309 536.524414062 1285 c 128,-1,9
 478.72265625 1261 478.72265625 1261 426.853515625 1205 c 1,10,11
 400.467773438 1171 400.467773438 1171 392.354492188 1154.5 c 128,-1,12
 384.241210938 1138 384.241210938 1138 384.07421875 1118 c 1,13,-1
 369.380859375 1101 l 1,14,-1
 351.282226562 1113 l 1,15,-1
 193.762695312 1236 l 1,16,17
 288.095703125 1377 288.095703125 1377 419.1328125 1453 c 128,-1,18
 550.169921875 1529 550.169921875 1529 698.169921875 1529 c 0,19,20
 819.169921875 1529 819.169921875 1529 906.93359375 1477 c 128,-1,21
 994.698242188 1425 994.698242188 1425 1034.67578125 1327 c 128,-1,22
 1074.65429688 1229 1074.65429688 1229 1053.27246094 1094 c 0,23,24
 1028.72265625 939 1028.72265625 939 942.737304688 806.5 c 128,-1,25
 856.750976562 674 856.750976562 674 718.15625 534.5 c 128,-1,26
 579.561523438 395 579.561523438 395 396.52734375 218 c 1,27,-1
 808.52734375 218 l 2,28,29
 847.52734375 218 847.52734375 218 866.58203125 221.5 c 128,-1,30
 885.63671875 225 885.63671875 225 902.012695312 240 c 1,31,-1
 923.012695312 240 l 1,32,-1
 885 0 l 1,33,-1
 31 0 l 1,34,-1
 61.41015625 192 l 1,0,1
EndSplineSet
Substitution2: "'frac' Diagonal Fractions in Latin lookup 24 subtable" two.numr
Substitution2: "'dnom' Denominators in Latin lookup 22 subtable" two.dnom
Substitution2: "'numr' Numerators in Latin lookup 21 subtable" two.numr
Substitution2: "'sups' Superscript in Latin lookup 20 subtable" uni00B2
Substitution2: "'subs' Subscript in Latin lookup 19 subtable" uni2082
AlternateSubs2: "'aalt' Access All Alternates in Latin lookup 1 subtable" uni2082 two.dnom two.numr uni00B2
EndChar

StartChar: three
Encoding: 51 51 477
Width: 922
VWidth: 2424
GlyphClass: 1
Flags: HW
LayerCount: 2
Fore
SplineSet
415.723632812 -27 m 0,0,1
 292.723632812 -27 292.723632812 -27 187.009765625 19 c 128,-1,2
 81.294921875 65 81.294921875 65 25.8662109375 157 c 1,3,-1
 190.05859375 335 l 1,4,-1
 206.750976562 352 l 1,5,-1
 221.850585938 340 l 1,6,7
 220.841796875 321 220.841796875 321 223.911132812 302.5 c 128,-1,8
 226.981445312 284 226.981445312 284 249.387695312 255 c 1,9,10
 283.002929688 221 283.002929688 221 328.4140625 201.5 c 128,-1,11
 373.826171875 182 373.826171875 182 436.826171875 182 c 0,12,13
 535.826171875 182 535.826171875 182 602.200195312 247.5 c 128,-1,14
 668.57421875 313 668.57421875 313 686.471679688 426 c 0,15,16
 711.021484375 581 711.021484375 581 632.024414062 641 c 128,-1,17
 574.91796875 684.373046875 574.91796875 684.373046875 464.694335938 684.373046875 c 0,0,0
 422.442382812 684.373046875 422.442382812 684.373046875 372.384765625 678 c 1,18,-1
 405.169921875 885 l 1,19,20
 412.852539062 884.880859375 412.852539062 884.880859375 420.341796875 884.880859375 c 0,0,0
 538.30078125 884.880859375 538.30078125 884.880859375 608.342773438 914.5 c 128,-1,21
 682.83203125 946 682.83203125 946 718.622070312 1001.5 c 128,-1,22
 754.412109375 1057 754.412109375 1057 764.70703125 1122 c 0,23,24
 778.961914062 1212 778.961914062 1212 740.198242188 1264 c 128,-1,25
 701.43359375 1316 701.43359375 1316 621.43359375 1316 c 0,26,27
 558.43359375 1316 558.43359375 1316 494.078125 1288.5 c 128,-1,28
 429.72265625 1261 429.72265625 1261 375.536132812 1203 c 1,29,-1
 243.869140625 1344 l 1,30,31
 337.548828125 1443 337.548828125 1443 448.859375 1486 c 128,-1,32
 560.169921875 1529 560.169921875 1529 664.169921875 1529 c 0,33,34
 844.169921875 1529 844.169921875 1529 942.5390625 1424 c 128,-1,35
 1040.90917969 1319 1040.90917969 1319 1013.35058594 1145 c 0,36,37
 993.551757812 1020 993.551757812 1020 917.956054688 931 c 128,-1,38
 842.359375 842 842.359375 842 748.182617188 803 c 1,39,40
 841.005859375 764 841.005859375 764 901.696289062 670.5 c 128,-1,41
 962.387695312 577 962.387695312 577 937.36328125 419 c 0,42,43
 916.614257812 288 916.614257812 288 846.276367188 188 c 128,-1,44
 775.9375 88 775.9375 88 665.331054688 30.5 c 128,-1,45
 554.723632812 -27 554.723632812 -27 415.723632812 -27 c 0,0,1
EndSplineSet
Substitution2: "'frac' Diagonal Fractions in Latin lookup 24 subtable" three.numr
Substitution2: "'dnom' Denominators in Latin lookup 22 subtable" three.dnom
Substitution2: "'numr' Numerators in Latin lookup 21 subtable" three.numr
Substitution2: "'sups' Superscript in Latin lookup 20 subtable" uni00B3
Substitution2: "'subs' Subscript in Latin lookup 19 subtable" uni2083
AlternateSubs2: "'aalt' Access All Alternates in Latin lookup 1 subtable" uni2083 three.dnom three.numr uni00B3
EndChar

StartChar: four
Encoding: 52 52 478
Width: 922
VWidth: 2424
GlyphClass: 1
Flags: HW
LayerCount: 2
Fore
SplineSet
315.803710938 567 m 1,0,-1
 583.803710938 567 l 1,1,-1
 661.887695312 1060 l 1,2,-1
 315.803710938 567 l 1,0,-1
490 0 m 1,3,-1
 546.384765625 356 l 1,4,-1
 46.384765625 356 l 1,5,-1
 74.89453125 536 l 1,6,-1
 784.635742188 1513 l 1,7,-1
 958.635742188 1513 l 1,8,-1
 809.12109375 569 l 1,9,-1
 970.12109375 569 l 1,10,-1
 936.068359375 354 l 1,11,-1
 775.068359375 354 l 1,12,-1
 719 0 l 1,13,-1
 490 0 l 1,3,-1
EndSplineSet
Substitution2: "'frac' Diagonal Fractions in Latin lookup 24 subtable" four.numr
Substitution2: "'dnom' Denominators in Latin lookup 22 subtable" four.dnom
Substitution2: "'numr' Numerators in Latin lookup 21 subtable" four.numr
Substitution2: "'sups' Superscript in Latin lookup 20 subtable" uni2074
Substitution2: "'subs' Subscript in Latin lookup 19 subtable" uni2084
AlternateSubs2: "'aalt' Access All Alternates in Latin lookup 1 subtable" uni2084 four.dnom four.numr uni2074
EndChar

StartChar: five
Encoding: 53 53 479
Width: 922
VWidth: 2424
GlyphClass: 1
Flags: HW
LayerCount: 2
Fore
SplineSet
451.723632812 -27 m 0,0,1
 308.723632812 -27 308.723632812 -27 203.331054688 30.5 c 128,-1,2
 97.9375 88 97.9375 88 52.9443359375 208 c 1,3,-1
 255.276367188 349 l 1,4,-1
 273.493164062 363 l 1,5,-1
 284.958984375 347 l 1,6,7
 279.950195312 328 279.950195312 328 283.916015625 312 c 128,-1,8
 287.881835938 296 287.881835938 296 306.813476562 264 c 1,9,10
 365.704101562 186.987304688 365.704101562 186.987304688 478.7109375 186.987304688 c 0,0,0
 480.16015625 186.987304688 480.16015625 186.987304688 481.618164062 187 c 0,11,12
 578.618164062 187 578.618164062 187 650.684570312 269.5 c 128,-1,13
 722.750976562 352 722.750976562 352 743.182617188 481 c 0,14,15
 765.514648438 622 765.514648438 622 720.661132812 705 c 128,-1,16
 675.806640625 788 675.806640625 788 573.806640625 788 c 0,17,18
 437.806640625 788 437.806640625 788 336.750976562 674 c 1,19,-1
 187.927734375 713 l 1,20,-1
 363.319335938 1511 l 1,21,-1
 1088.31933594 1511 l 1,22,-1
 1054.42480469 1297 l 1,23,-1
 545.424804688 1297 l 1,24,-1
 469.514648438 944 l 1,25,26
 512.791015625 971 512.791015625 971 567.008789062 985 c 128,-1,27
 621.225585938 999 621.225585938 999 670.225585938 999 c 0,28,29
 850.225585938 999 850.225585938 999 938.874023438 870.5 c 128,-1,30
 1027.52148438 742 1027.52148438 742 988.400390625 495 c 128,-1,31
 949.279296875 248 949.279296875 248 800.001953125 110.5 c 128,-1,32
 650.723632812 -27 650.723632812 -27 451.723632812 -27 c 0,0,1
EndSplineSet
Substitution2: "'frac' Diagonal Fractions in Latin lookup 24 subtable" five.numr
Substitution2: "'dnom' Denominators in Latin lookup 22 subtable" five.dnom
Substitution2: "'numr' Numerators in Latin lookup 21 subtable" five.numr
Substitution2: "'sups' Superscript in Latin lookup 20 subtable" uni2075
Substitution2: "'subs' Subscript in Latin lookup 19 subtable" uni2085
AlternateSubs2: "'aalt' Access All Alternates in Latin lookup 1 subtable" uni2085 five.dnom five.numr uni2075
EndChar

StartChar: six
Encoding: 54 54 480
Width: 922
VWidth: 2424
GlyphClass: 1
Flags: HW
LayerCount: 2
Fore
SplineSet
507.618164062 187 m 0,0,1
 587.934570312 189 587.934570312 189 651.60546875 269 c 128,-1,2
 715.276367188 349 715.276367188 349 738.400390625 495 c 128,-1,3
 761.524414062 641 761.524414062 641 715.532226562 710.5 c 128,-1,4
 669.540039062 780 669.540039062 780 598.540039062 780 c 0,5,6
 533.540039062 780 533.540039062 780 477.229492188 737 c 128,-1,7
 420.918945312 694 420.918945312 694 372.673828125 623 c 1,8,9
 367.299804688 596.818359375 367.299804688 596.818359375 363.358398438 571.938476562 c 0,0,0
 338.401367188 414.36328125 338.401367188 414.36328125 370.940429688 309 c 128,-1,10
 408.618164062 187 408.618164062 187 507.618164062 187 c 0,0,1
468.723632812 -27 m 0,11,12
 248.723632812 -27 248.723632812 -27 162.5546875 164.5 c 128,-1,13
 76.384765625 356 76.384765625 356 129.443359375 691 c 0,14,15
 194.380859375 1101 194.380859375 1101 370.512695312 1316.5 c 128,-1,16
 546.64453125 1532 546.64453125 1532 773.64453125 1532 c 0,17,18
 865.64453125 1532 865.64453125 1532 951.6015625 1497 c 128,-1,19
 1037.55761719 1462 1037.55761719 1462 1094.88769531 1382 c 1,20,-1
 930.545898438 1222 l 1,21,-1
 913.536132812 1203 l 1,22,-1
 901.75390625 1217 l 1,23,24
 902.762695312 1236 902.762695312 1236 893.401367188 1249.5 c 128,-1,25
 884.0390625 1263 884.0390625 1263 858.840820312 1287 c 1,26,27
 817.1171875 1314 817.1171875 1314 759.1171875 1314 c 0,28,29
 718.1171875 1314 718.1171875 1314 668.924804688 1297 c 128,-1,30
 619.732421875 1280 619.732421875 1280 571.208984375 1232.5 c 128,-1,31
 522.685546875 1185 522.685546875 1185 478.248046875 1097 c 128,-1,32
 433.809570312 1009 433.809570312 1009 404.002929688 865 c 1,33,34
 457.505859375 925 457.505859375 925 530.653320312 957.5 c 128,-1,35
 603.80078125 990 603.80078125 990 673.80078125 990 c 0,36,37
 835.80078125 990 835.80078125 990 924.661132812 866 c 128,-1,38
 1013.52148438 742 1013.52148438 742 974.716796875 497 c 0,39,40
 950.484375 344 950.484375 344 877.874023438 226.5 c 128,-1,41
 805.263671875 109 805.263671875 109 699.494140625 41 c 128,-1,42
 593.723632812 -27 593.723632812 -27 468.723632812 -27 c 0,11,12
EndSplineSet
Substitution2: "'frac' Diagonal Fractions in Latin lookup 24 subtable" six.numr
Substitution2: "'dnom' Denominators in Latin lookup 22 subtable" six.dnom
Substitution2: "'numr' Numerators in Latin lookup 21 subtable" six.numr
Substitution2: "'sups' Superscript in Latin lookup 20 subtable" uni2076
Substitution2: "'subs' Subscript in Latin lookup 19 subtable" uni2086
AlternateSubs2: "'aalt' Access All Alternates in Latin lookup 1 subtable" uni2086 six.dnom six.numr uni2076
EndChar

StartChar: seven
Encoding: 55 55 481
Width: 922
VWidth: 2424
GlyphClass: 1
Flags: HW
LayerCount: 2
Fore
SplineSet
175 0 m 1,0,1
 323.05859375 335 323.05859375 335 473.211914062 648.5 c 128,-1,2
 623.366210938 962 623.366210938 962 787.365234375 1284 c 1,3,-1
 252.365234375 1284 l 1,4,-1
 288.319335938 1511 l 1,5,-1
 1112.31933594 1511 l 1,6,-1
 1089.19433594 1365 l 1,7,8
 910.819335938 1028 910.819335938 1028 749.498046875 694.5 c 128,-1,9
 588.176757812 361 588.176757812 361 438 0 c 1,10,-1
 175 0 l 1,0,1
EndSplineSet
Substitution2: "'frac' Diagonal Fractions in Latin lookup 24 subtable" seven.numr
Substitution2: "'dnom' Denominators in Latin lookup 22 subtable" seven.dnom
Substitution2: "'numr' Numerators in Latin lookup 21 subtable" seven.numr
Substitution2: "'sups' Superscript in Latin lookup 20 subtable" uni2077
Substitution2: "'subs' Subscript in Latin lookup 19 subtable" uni2087
AlternateSubs2: "'aalt' Access All Alternates in Latin lookup 1 subtable" uni2087 seven.dnom seven.numr uni2077
EndChar

StartChar: eight
Encoding: 56 56 482
Width: 922
VWidth: 2424
GlyphClass: 1
Flags: HW
LayerCount: 2
Fore
SplineSet
478.41015625 192 m 0,0,1
 574.41015625 192 574.41015625 192 633.095703125 250 c 128,-1,2
 691.782226562 308 691.782226562 308 707.462890625 407 c 0,3,4
 723.618164062 509 723.618164062 509 671.837890625 583 c 128,-1,5
 620.05859375 657 620.05859375 657 520.02734375 701 c 1,6,7
 439.7421875 655 439.7421875 655 383.076171875 584.5 c 128,-1,8
 326.409179688 514 326.409179688 514 310.571289062 414 c 0,9,10
 294.416015625 312 294.416015625 312 339.913085938 252 c 128,-1,11
 385.41015625 192 385.41015625 192 478.41015625 192 c 0,0,1
626.645507812 888 m 1,12,13
 692.930664062 934 692.930664062 934 734.780273438 1002.5 c 128,-1,14
 776.629882812 1071 776.629882812 1071 788.666992188 1147 c 0,15,16
 800.0703125 1219 800.0703125 1219 765.990234375 1269 c 128,-1,17
 731.909179688 1319 731.909179688 1319 658.909179688 1319 c 0,18,19
 581.909179688 1319 581.909179688 1319 536.227539062 1270.5 c 128,-1,20
 490.545898438 1222 490.545898438 1222 479.458984375 1152 c 0,21,22
 464.887695312 1060 464.887695312 1060 508.409179688 997 c 128,-1,23
 551.930664062 934 551.930664062 934 626.645507812 888 c 1,12,13
438.723632812 -27 m 0,24,25
 302.723632812 -27 302.723632812 -27 212.197265625 26.5 c 128,-1,26
 121.670898438 80 121.670898438 80 81.400390625 173 c 128,-1,27
 41.1298828125 266 41.1298828125 266 60.13671875 386 c 0,28,29
 83.5771484375 534 83.5771484375 534 169.548828125 638 c 128,-1,30
 255.521484375 742 255.521484375 742 379.81640625 807 c 1,31,32
 303.002929688 865 303.002929688 865 265.756835938 955 c 128,-1,33
 228.51171875 1045 228.51171875 1045 244.983398438 1149 c 0,34,35
 271.1171875 1314 271.1171875 1314 393.5390625 1424 c 128,-1,36
 515.961914062 1534 515.961914062 1534 697.961914062 1534 c 0,37,38
 886.961914062 1534 886.961914062 1534 970.09375 1427.5 c 128,-1,39
 1053.22558594 1321 1053.22558594 1321 1028.359375 1164 c 0,40,41
 1009.66992188 1046 1009.66992188 1046 946.782226562 952 c 128,-1,42
 883.893554688 858 883.893554688 858 788.390625 798 c 1,43,44
 994.642578125 667 994.642578125 667 951.561523438 395 c 0,45,46
 921.944335938 208 921.944335938 208 781.833984375 90.5 c 128,-1,47
 641.723632812 -27 641.723632812 -27 438.723632812 -27 c 0,24,25
EndSplineSet
Substitution2: "'frac' Diagonal Fractions in Latin lookup 24 subtable" eight.numr
Substitution2: "'dnom' Denominators in Latin lookup 22 subtable" eight.dnom
Substitution2: "'numr' Numerators in Latin lookup 21 subtable" eight.numr
Substitution2: "'sups' Superscript in Latin lookup 20 subtable" uni2078
Substitution2: "'subs' Subscript in Latin lookup 19 subtable" uni2088
AlternateSubs2: "'aalt' Access All Alternates in Latin lookup 1 subtable" uni2088 eight.dnom eight.numr uni2078
EndChar

StartChar: nine
Encoding: 57 57 483
Width: 922
VWidth: 2424
GlyphClass: 1
Flags: HW
LayerCount: 2
Fore
SplineSet
408.443359375 1013 m 0,0,1
 388.01171875 884 388.01171875 884 434.55859375 818 c 128,-1,2
 481.10546875 752 481.10546875 752 566.10546875 752 c 0,3,4
 629.10546875 752 629.10546875 752 682.956054688 770 c 128,-1,5
 736.806640625 788 736.806640625 788 783.250976562 835 c 1,6,7
 823.856445312 1104 823.856445312 1104 789.3828125 1211.5 c 128,-1,8
 754.909179688 1319 754.909179688 1319 653.909179688 1319 c 0,9,10
 563.909179688 1319 563.909179688 1319 497.896484375 1240 c 128,-1,11
 431.884765625 1161 431.884765625 1161 408.443359375 1013 c 0,0,1
391.723632812 -27 m 0,12,13
 284.723632812 -27 284.723632812 -27 194.291992188 5 c 128,-1,14
 103.860351562 37 103.860351562 37 39.5810546875 111 c 1,15,-1
 198.673828125 301 l 1,16,-1
 213.682617188 320 l 1,17,-1
 230.782226562 308 l 1,18,19
 229.7734375 289 229.7734375 289 236.081054688 272 c 128,-1,20
 242.387695312 255 242.387695312 255 269.586914062 231 c 0,21,22
 328.092773438 190 328.092773438 190 412.934570312 189 c 0,23,24
 521.934570312 189 521.934570312 189 605.807617188 305 c 128,-1,25
 689.6796875 421 689.6796875 421 739.981445312 606 c 1,26,27
 637.685546875 541 637.685546875 541 512.685546875 541 c 0,28,29
 396.685546875 541 396.685546875 541 310.872070312 599 c 128,-1,30
 225.05859375 657 225.05859375 657 186.584960938 764.5 c 128,-1,31
 148.111328125 872 148.111328125 872 171.551757812 1020 c 0,32,33
 195.309570312 1170 195.309570312 1170 271.682617188 1286 c 128,-1,34
 348.0546875 1402 348.0546875 1402 458.612304688 1465.5 c 128,-1,35
 569.169921875 1529 569.169921875 1529 694.169921875 1529 c 0,36,37
 909.169921875 1529 909.169921875 1529 990.373046875 1353.5 c 128,-1,38
 1071.57714844 1178 1071.57714844 1178 1018.359375 842 c 0,39,40
 949.62109375 408 949.62109375 408 789.831054688 191.5 c 128,-1,41
 630.040039062 -25 630.040039062 -25 391.723632812 -27 c 0,12,13
EndSplineSet
Substitution2: "'frac' Diagonal Fractions in Latin lookup 24 subtable" nine.numr
Substitution2: "'dnom' Denominators in Latin lookup 22 subtable" nine.dnom
Substitution2: "'numr' Numerators in Latin lookup 21 subtable" nine.numr
Substitution2: "'sups' Superscript in Latin lookup 20 subtable" uni2079
Substitution2: "'subs' Subscript in Latin lookup 19 subtable" uni2089
AlternateSubs2: "'aalt' Access All Alternates in Latin lookup 1 subtable" uni2089 nine.dnom nine.numr uni2079
EndChar

StartChar: zero.zero
Encoding: 65541 -1 484
Width: 922
VWidth: 2424
GlyphClass: 1
Flags: HW
LayerCount: 2
Fore
SplineSet
526.881835938 618 m 128,-1,1
 468.881835938 618 468.881835938 618 435.11328125 660.5 c 128,-1,2
 401.344726562 703 401.344726562 703 411.322265625 766 c 0,3,4
 420.508789062 824 420.508789062 824 469.240234375 866.5 c 128,-1,5
 517.971679688 909 517.971679688 909 572.971679688 909 c 0,6,7
 630.971679688 909 630.971679688 909 666.240234375 866.5 c 128,-1,8
 701.508789062 824 701.508789062 824 692.322265625 766 c 0,9,10
 682.819335938 706 682.819335938 706 633.850585938 662 c 128,-1,0
 584.881835938 618 584.881835938 618 526.881835938 618 c 128,-1,1
457.192382812 178 m 0,11,12
 673.192382812 178 673.192382812 178 763.313476562 747 c 0,13,14
 806.235351562 1018 806.235351562 1018 776.334960938 1167 c 128,-1,15
 746.43359375 1316 746.43359375 1316 637.43359375 1316 c 0,16,17
 530.43359375 1316 530.43359375 1316 450.834960938 1167 c 128,-1,18
 371.235351562 1018 371.235351562 1018 328.313476562 747 c 0,19,20
 238.192382812 178 238.192382812 178 457.192382812 178 c 0,11,12
424.723632812 -27 m 128,-1,22
 220.723632812 -27 220.723632812 -27 130.450195312 167 c 128,-1,23
 40.1767578125 361 40.1767578125 361 101.313476562 747 c 0,24,25
 161.182617188 1125 161.182617188 1125 314.17578125 1327 c 128,-1,26
 467.169921875 1529 467.169921875 1529 671.169921875 1529 c 128,-1,27
 875.169921875 1529 875.169921875 1529 963.17578125 1327 c 128,-1,28
 1051.18261719 1125 1051.18261719 1125 991.313476562 747 c 0,29,30
 930.176757812 361 930.176757812 361 779.450195312 167 c 128,-1,21
 628.723632812 -27 628.723632812 -27 424.723632812 -27 c 128,-1,22
EndSplineSet
EndChar

StartChar: zero.ss02
Encoding: 65542 -1 485
Width: 922
VWidth: 2424
GlyphClass: 1
Flags: HW
LayerCount: 2
Fore
SplineSet
457.192382812 178 m 0,0,1
 673.192382812 178 673.192382812 178 763.313476562 747 c 0,2,3
 806.235351562 1018 806.235351562 1018 776.334960938 1167 c 128,-1,4
 746.43359375 1316 746.43359375 1316 637.43359375 1316 c 0,5,6
 530.43359375 1316 530.43359375 1316 450.834960938 1167 c 128,-1,7
 371.235351562 1018 371.235351562 1018 328.313476562 747 c 0,8,9
 238.192382812 178 238.192382812 178 457.192382812 178 c 0,0,1
424.723632812 -27 m 128,-1,11
 220.723632812 -27 220.723632812 -27 130.450195312 167 c 128,-1,12
 40.1767578125 361 40.1767578125 361 101.313476562 747 c 0,13,14
 161.182617188 1125 161.182617188 1125 314.17578125 1327 c 128,-1,15
 467.169921875 1529 467.169921875 1529 671.169921875 1529 c 128,-1,16
 875.169921875 1529 875.169921875 1529 963.17578125 1327 c 128,-1,17
 1051.18261719 1125 1051.18261719 1125 991.313476562 747 c 0,18,19
 930.176757812 361 930.176757812 361 779.450195312 167 c 128,-1,10
 628.723632812 -27 628.723632812 -27 424.723632812 -27 c 128,-1,11
EndSplineSet
EndChar

StartChar: uni2070
Encoding: 8304 8304 516
Width: 922
VWidth: 2424
GlyphClass: 1
Flags: HW
LayerCount: 2
Fore
SplineSet
566.353515625 722 m 0,0,1
 718.360351562 722 718.360351562 722 771.201171875 1055.625 c 0,2,3
 779.950195312 1110.8671875 779.950195312 1110.8671875 784.458984375 1152 c 1,4,-1
 457.567382812 837 l 1,5,6
 478.353515625 722 478.353515625 722 566.353515625 722 c 0,0,1
466.887695312 1060 m 0,7,8
 458.809570312 1009 458.809570312 1009 454.158203125 967 c 1,9,-1
 778.840820312 1287 l 1,10,11
 759.104492188 1396 759.104492188 1396 673.262695312 1397 c 0,12,13
 598.262695312 1397 598.262695312 1397 545.404296875 1309.5 c 128,-1,14
 492.545898438 1222 492.545898438 1222 466.887695312 1060 c 0,7,8
543.705078125 579 m 128,-1,16
 397.705078125 579 397.705078125 579 329.448242188 700.5 c 128,-1,17
 261.192382812 822 261.192382812 822 298.887695312 1060 c 0,18,19
 336.266601562 1296 336.266601562 1296 443.643554688 1421.5 c 128,-1,20
 551.020507812 1547 551.020507812 1547 697.020507812 1547 c 128,-1,21
 843.020507812 1547 843.020507812 1547 909.564453125 1421 c 128,-1,22
 976.107421875 1295 976.107421875 1295 938.887695312 1060 c 0,23,24
 901.192382812 822 901.192382812 822 795.448242188 700.5 c 128,-1,15
 689.705078125 579 689.705078125 579 543.705078125 579 c 128,-1,16
EndSplineSet
Substitution2: "'ss02' Style Set 2 in Latin lookup 36 subtable" uni2070.ss02
Substitution2: "'zero' Slashed Zero in Latin lookup 33 subtable" uni2070.zero
AlternateSubs2: "'aalt' Access All Alternates in Latin lookup 1 subtable" uni2070.ss02 uni2070.zero
EndChar

StartChar: uni00B9
Encoding: 185 185 517
Width: 922
VWidth: 2424
GlyphClass: 1
Flags: HW
LayerCount: 2
Fore
SplineSet
475.555664062 597 m 1,0,-1
 591.809570312 1331 l 1,1,-1
 422.1484375 1270 l 1,2,-1
 403.580078125 1399 l 1,3,-1
 669.961914062 1534 l 1,4,-1
 805.961914062 1534 l 1,5,-1
 657.555664062 597 l 1,6,-1
 475.555664062 597 l 1,0,-1
EndSplineSet
EndChar

StartChar: uni00B2
Encoding: 178 178 518
Width: 922
VWidth: 2424
GlyphClass: 1
Flags: HW
LayerCount: 2
Fore
SplineSet
276.145507812 727 m 1,0,1
 441.794921875 870 441.794921875 870 546.70703125 961 c 128,-1,2
 651.620117188 1052 651.620117188 1052 706.286132812 1122.5 c 128,-1,3
 760.953125 1193 760.953125 1193 776.623046875 1273 c 0,4,5
 795.3125 1391 795.3125 1391 672.470703125 1392 c 0,6,7
 602.470703125 1392 602.470703125 1392 550.403320312 1360 c 1,8,9
 518.651367188 1330 518.651367188 1330 509.038085938 1313.5 c 128,-1,10
 499.424804688 1297 499.424804688 1297 496.256835938 1277 c 1,11,-1
 479.0390625 1263 l 1,12,-1
 464.256835938 1277 l 1,13,-1
 355.194335938 1365 l 1,14,15
 488.020507812 1547 488.020507812 1547 699.020507812 1547 c 0,16,17
 822.020507812 1547 822.020507812 1547 896.038085938 1474.5 c 128,-1,18
 970.0546875 1402 970.0546875 1402 949.940429688 1275 c 0,19,20
 934.893554688 1180 934.893554688 1180 881.9609375 1101.5 c 128,-1,21
 829.02734375 1023 829.02734375 1023 741.9609375 940.5 c 128,-1,22
 654.893554688 858 654.893554688 858 533.629882812 749 c 1,23,-1
 756.629882812 749 l 2,24,25
 797.629882812 749 797.629882812 749 815.421875 754 c 128,-1,26
 833.213867188 759 833.213867188 759 850.114257812 771 c 1,27,-1
 872.114257812 771 l 1,28,-1
 844.555664062 597 l 1,29,-1
 255.555664062 597 l 1,30,-1
 276.145507812 727 l 1,0,1
EndSplineSet
EndChar

StartChar: uni00B3
Encoding: 179 179 519
Width: 922
VWidth: 2424
GlyphClass: 1
Flags: HW
LayerCount: 2
Fore
SplineSet
520.705078125 579 m 0,0,1
 432.705078125 579 432.705078125 579 359.376953125 608.5 c 128,-1,2
 286.048828125 638 286.048828125 638 249.235351562 696 c 1,3,-1
 358.924804688 814 l 1,4,-1
 380.250976562 835 l 1,5,-1
 394.716796875 819 l 1,6,7
 391.708007812 800 391.708007812 800 400.411132812 785.5 c 128,-1,8
 409.114257812 771 409.114257812 771 434.313476562 747 c 1,9,10
 479.987304688 726 479.987304688 726 534.669921875 724 c 0,11,12
 601.669921875 724 601.669921875 724 645.530273438 761 c 128,-1,13
 689.390625 798 689.390625 798 699.685546875 863 c 0,14,15
 714.256835938 955 714.256835938 955 658.904296875 987.5 c 0,16,17
 617.548828125 1011.78125 617.548828125 1011.78125 539.693359375 1011.78125 c 0,18,19
 513.342773438 1011.78125 513.342773438 1011.78125 482.809570312 1009 c 1,20,-1
 505.775390625 1154 l 1,21,22
 520.51171875 1153.42480469 520.51171875 1153.42480469 534.209960938 1153.42480469 c 0,23,24
 639.684570312 1153.42480469 639.684570312 1153.42480469 683.581054688 1187.5 c 0,25,26
 733.1796875 1226 733.1796875 1226 742.365234375 1284 c 0,27,28
 750.443359375 1335 750.443359375 1335 724.853515625 1366 c 128,-1,29
 699.262695312 1397 699.262695312 1397 646.262695312 1397 c 0,30,31
 549.262695312 1397 549.262695312 1397 477.017578125 1326 c 1,32,-1
 384.172851562 1428 l 1,33,34
 447.151367188 1491 447.151367188 1491 524.5859375 1519 c 128,-1,35
 602.020507812 1547 602.020507812 1547 674.020507812 1547 c 0,36,37
 797.020507812 1547 797.020507812 1547 868.646484375 1481.5 c 128,-1,38
 940.272460938 1416 940.272460938 1416 923.008789062 1307 c 0,39,40
 910.337890625 1227 910.337890625 1227 860.206054688 1172.5 c 128,-1,41
 810.07421875 1118 810.07421875 1118 750.588867188 1096 c 1,42,43
 809.788085938 1072 809.788085938 1072 852.259765625 1015 c 128,-1,44
 894.732421875 958 894.732421875 958 878.893554688 858 c 0,45,46
 859.412109375 735 859.412109375 735 763.05859375 657 c 128,-1,47
 666.705078125 579 666.705078125 579 520.705078125 579 c 0,0,1
EndSplineSet
EndChar

StartChar: uni2074
Encoding: 8308 8308 520
Width: 922
VWidth: 2424
GlyphClass: 1
Flags: HW
LayerCount: 2
Fore
SplineSet
475.048828125 960 m 1,0,-1
 655.048828125 960 l 1,1,-1
 697.971679688 1231 l 1,2,-1
 475.048828125 960 l 1,0,-1
594.555664062 597 m 1,3,-1
 628.608398438 812 l 1,4,-1
 265.608398438 812 l 1,5,-1
 284.772460938 933 l 1,6,-1
 784.961914062 1534 l 1,7,-1
 914.961914062 1534 l 1,8,-1
 824.366210938 962 l 1,9,-1
 943.366210938 962 l 1,10,-1
 919.291015625 810 l 1,11,-1
 800.291015625 810 l 1,12,-1
 766.555664062 597 l 1,13,-1
 594.555664062 597 l 1,3,-1
EndSplineSet
EndChar

StartChar: uni2075
Encoding: 8309 8309 521
Width: 922
VWidth: 2424
GlyphClass: 1
Flags: HW
LayerCount: 2
Fore
SplineSet
545.705078125 579 m 0,0,1
 446.705078125 579 446.705078125 579 373.327148438 614.5 c 128,-1,2
 299.950195312 650 299.950195312 650 271.145507812 727 c 1,3,-1
 409.825195312 826 l 1,4,-1
 430.359375 842 l 1,5,-1
 438.508789062 824 l 1,6,7
 435.499023438 805 435.499023438 805 444.361328125 791.5 c 128,-1,8
 453.22265625 778 453.22265625 778 476.10546875 752 c 1,9,10
 513.779296875 731 513.779296875 731 567.461914062 729 c 0,11,12
 630.461914062 729 630.461914062 729 678.827148438 775.5 c 128,-1,13
 727.192382812 822 727.192382812 822 738.75390625 895 c 0,14,15
 751.424804688 975 751.424804688 975 720.02734375 1023 c 128,-1,16
 688.629882812 1071 688.629882812 1071 618.629882812 1071 c 0,17,18
 526.629882812 1071 526.629882812 1071 463.017578125 1004 c 1,19,-1
 355.453125 1032 l 1,20,-1
 468.64453125 1532 l 1,21,-1
 967.64453125 1532 l 1,22,-1
 944.204101562 1384 l 1,23,-1
 597.204101562 1384 l 1,24,-1
 554.685546875 1185 l 1,25,26
 583.903320312 1199 583.903320312 1199 621.486328125 1209 c 128,-1,27
 659.0703125 1219 659.0703125 1219 691.0703125 1219 c 0,28,29
 812.0703125 1219 812.0703125 1219 874.795898438 1141.5 c 128,-1,30
 937.521484375 1064 937.521484375 1064 912.654296875 907 c 0,31,32
 888.10546875 752 888.10546875 752 787.405273438 665.5 c 128,-1,33
 686.705078125 579 686.705078125 579 545.705078125 579 c 0,0,1
EndSplineSet
EndChar

StartChar: uni2076
Encoding: 8310 8310 522
Width: 922
VWidth: 2424
GlyphClass: 1
Flags: HW
LayerCount: 2
Fore
SplineSet
583.461914062 729 m 0,0,1
 636.461914062 729 636.461914062 729 678.485351562 776.5 c 128,-1,2
 720.508789062 824 720.508789062 824 733.654296875 907 c 128,-1,3
 746.80078125 990 746.80078125 990 714.8984375 1028.5 c 128,-1,4
 682.99609375 1067 682.99609375 1067 636.99609375 1067 c 0,5,6
 592.99609375 1067 592.99609375 1067 556.774414062 1043.5 c 128,-1,7
 520.551757812 1020 520.551757812 1020 487.05859375 979 c 1,8,9
 486.010742188 973.025390625 486.010742188 973.025390625 485.0859375 967.18359375 c 0,10,11
 467.73828125 857.658203125 467.73828125 857.658203125 493.416015625 795 c 0,12,13
 520.461914062 729 520.461914062 729 583.461914062 729 c 0,0,1
557.705078125 579 m 0,14,15
 404.705078125 579 404.705078125 579 343.7109375 699 c 128,-1,16
 282.716796875 819 282.716796875 819 315.34375 1025 c 0,17,18
 355.256835938 1277 355.256835938 1277 475.138671875 1412 c 128,-1,19
 595.020507812 1547 595.020507812 1547 750.020507812 1547 c 0,20,21
 813.020507812 1547 813.020507812 1547 874.036132812 1525 c 128,-1,22
 935.051757812 1503 935.051757812 1503 975.1328125 1453 c 1,23,-1
 863.869140625 1344 l 1,24,-1
 844.701171875 1324 l 1,25,-1
 832.91796875 1338 l 1,26,27
 833.927734375 1357 833.927734375 1357 820.615234375 1364.5 c 128,-1,28
 807.303710938 1372 807.303710938 1372 776.154296875 1390 c 1,29,30
 762.470703125 1392 762.470703125 1392 739.470703125 1392 c 0,31,32
 702.470703125 1392 702.470703125 1392 659.278320312 1375 c 128,-1,33
 616.0859375 1358 616.0859375 1358 577.112304688 1304.5 c 128,-1,34
 538.138671875 1251 538.138671875 1251 511.350585938 1145 c 1,35,36
 546.735351562 1179 546.735351562 1179 595.5859375 1197 c 128,-1,37
 644.4375 1215 644.4375 1215 690.4375 1215 c 0,38,39
 801.4375 1215 801.4375 1215 863.479492188 1139.5 c 128,-1,40
 925.521484375 1064 925.521484375 1064 900.971679688 909 c 0,41,42
 877.84765625 763 877.84765625 763 783.276367188 671 c 128,-1,43
 688.705078125 579 688.705078125 579 557.705078125 579 c 0,14,15
EndSplineSet
EndChar

StartChar: uni2077
Encoding: 8311 8311 523
Width: 922
VWidth: 2424
GlyphClass: 1
Flags: HW
LayerCount: 2
Fore
SplineSet
352.555664062 597 m 1,0,1
 449.866210938 801 449.866210938 801 548.721679688 989.5 c 128,-1,2
 647.577148438 1178 647.577148438 1178 756.620117188 1374 c 1,3,-1
 389.620117188 1374 l 1,4,-1
 414.64453125 1532 l 1,5,-1
 985.64453125 1532 l 1,6,-1
 969.172851562 1428 l 1,7,8
 851.545898438 1222 851.545898438 1222 745.630859375 1020.5 c 128,-1,9
 639.716796875 819 639.716796875 819 539.555664062 597 c 1,10,-1
 352.555664062 597 l 1,0,1
EndSplineSet
EndChar

StartChar: uni2078
Encoding: 8312 8312 524
Width: 922
VWidth: 2424
GlyphClass: 1
Flags: HW
LayerCount: 2
Fore
SplineSet
569.9375 732 m 0,0,1
 702.944335938 732 702.944335938 732 721.982421875 852.19921875 c 0,2,3
 731.76953125 913.993164062 731.76953125 913.993164062 693.995117188 956.5 c 128,-1,4
 656.225585938 999 656.225585938 999 587.02734375 1023 c 1,5,6
 531.275390625 993 531.275390625 993 496.177734375 954.5 c 128,-1,7
 461.080078125 916 461.080078125 916 451.893554688 858 c 0,8,9
 442.390625 798 442.390625 798 474.6640625 765 c 128,-1,10
 506.9375 732 506.9375 732 569.9375 732 c 0,0,1
661.983398438 1149 m 1,11,12
 707.259765625 1176 707.259765625 1176 734.75390625 1217 c 128,-1,13
 762.248046875 1258 762.248046875 1258 768.899414062 1300 c 0,14,15
 775.393554688 1341 775.393554688 1341 750.828125 1369 c 128,-1,16
 726.262695312 1397 726.262695312 1397 677.262695312 1397 c 128,-1,17
 628.262695312 1397 628.262695312 1397 596.565429688 1370.5 c 128,-1,18
 564.869140625 1344 564.869140625 1344 558.69140625 1305 c 0,19,20
 550.296875 1252 550.296875 1252 581.778320312 1214 c 128,-1,21
 613.259765625 1176 613.259765625 1176 661.983398438 1149 c 1,11,12
543.705078125 579 m 128,-1,23
 402.705078125 579 402.705078125 579 329.6875 651.5 c 128,-1,24
 256.669921875 724 256.669921875 724 274.567382812 837 c 0,25,26
 289.614257812 932 289.614257812 932 343.513671875 994.5 c 128,-1,27
 397.412109375 1057 397.412109375 1057 480.064453125 1099 c 1,28,29
 429.924804688 1136 429.924804688 1136 405.819335938 1189 c 128,-1,30
 381.713867188 1242 381.713867188 1242 391.69140625 1305 c 0,31,32
 408.638671875 1412 408.638671875 1412 494.567382812 1481 c 128,-1,33
 580.49609375 1550 580.49609375 1550 706.49609375 1550 c 0,34,35
 835.49609375 1550 835.49609375 1550 895.883789062 1483 c 128,-1,36
 956.272460938 1416 956.272460938 1416 940.1171875 1314 c 0,37,38
 916.67578125 1166 916.67578125 1166 791.797851562 1091 c 1,39,40
 923.748046875 1008.56445312 923.748046875 1008.56445312 898.036132812 846.227539062 c 0,41,42
 878.995117188 726.005859375 878.995117188 726.005859375 781.845703125 652.5 c 128,-1,22
 684.705078125 579 684.705078125 579 543.705078125 579 c 128,-1,23
EndSplineSet
EndChar

StartChar: uni2079
Encoding: 8313 8313 525
Width: 922
VWidth: 2424
GlyphClass: 1
Flags: HW
LayerCount: 2
Fore
SplineSet
506.0703125 1219 m 0,0,1
 496.666992188 1147 496.666992188 1147 528.6484375 1109 c 128,-1,2
 560.629882812 1071 560.629882812 1071 618.629882812 1071 c 0,3,4
 657.629882812 1071 657.629882812 1071 693.213867188 1081 c 128,-1,5
 728.797851562 1091 728.797851562 1091 759.07421875 1118 c 1,6,7
 782.415039062 1278 782.415039062 1278 757.998046875 1338.5 c 128,-1,8
 733.580078125 1399 733.580078125 1399 668.580078125 1399 c 0,9,10
 608.580078125 1399 608.580078125 1399 564.293945312 1353 c 128,-1,11
 520.008789062 1307 520.008789062 1307 506.0703125 1219 c 0,0,1
504.705078125 579 m 0,12,13
 432.705078125 579 432.705078125 579 367.29296875 598.5 c 128,-1,14
 301.881835938 618 301.881835938 618 256.484375 666 c 1,15,-1
 369.390625 798 l 1,16,-1
 387.400390625 817 l 1,17,-1
 401.499023438 805 l 1,18,19
 403.490234375 786 403.490234375 786 414.010742188 773.5 c 128,-1,20
 424.530273438 761 424.530273438 761 452.204101562 740 c 1,21,22
 482.779296875 731 482.779296875 731 521.461914062 729 c 0,23,24
 588.461914062 729 588.461914062 729 642.361328125 791.5 c 128,-1,25
 696.260742188 854 696.260742188 854 727.048828125 960 c 1,26,27
 661.188476562 923 661.188476562 923 578.188476562 923 c 0,28,29
 457.188476562 923 457.188476562 923 387.359375 1003 c 128,-1,30
 317.530273438 1083 317.530273438 1083 340.1796875 1226 c 128,-1,31
 362.828125 1369 362.828125 1369 465.424804688 1458 c 128,-1,32
 568.020507812 1547 568.020507812 1547 697.020507812 1547 c 0,33,34
 995.020507812 1547 995.020507812 1547 926.282226562 1113 c 0,35,36
 884.151367188 847 884.151367188 847 776.927734375 713 c 128,-1,37
 669.705078125 579 669.705078125 579 504.705078125 579 c 0,12,13
EndSplineSet
EndChar

StartChar: fraction
Encoding: 8260 8260 526
Width: 922
VWidth: 2424
GlyphClass: 1
Flags: HW
LayerCount: 2
Fore
SplineSet
158.528320312 -104 m 1,0,-1
 27.990234375 -19 l 1,1,-1
 970.69140625 1627 l 1,2,-1
 1100.75390625 1539 l 1,3,-1
 158.528320312 -104 l 1,0,-1
EndSplineSet
EndChar

StartChar: onehalf
Encoding: 189 189 527
Width: 922
VWidth: 2424
GlyphClass: 1
Flags: HW
LayerCount: 2
Fore
SplineSet
386.233398438 -169 m 1,0,-1
 403.813476562 -58 l 1,1,2
 516.869140625 56 516.869140625 56 588.53515625 126.5 c 128,-1,3
 660.202148438 197 660.202148438 197 697.095703125 250 c 128,-1,4
 733.990234375 303 733.990234375 303 743.96875 366 c 0,5,6
 749.829101562 403 749.829101562 403 734.971679688 426 c 128,-1,7
 720.114257812 449 720.114257812 449 679.114257812 449 c 128,-1,8
 638.114257812 449 638.114257812 449 607.184570312 430.5 c 128,-1,9
 576.25390625 412 576.25390625 412 544.493164062 363 c 1,10,-1
 466.005859375 442 l 1,11,12
 511.30078125 507 511.30078125 507 572.240234375 544.5 c 128,-1,13
 633.1796875 582 633.1796875 582 702.1796875 582 c 0,14,15
 786.1796875 582 786.1796875 582 836.151367188 525 c 128,-1,16
 886.124023438 468 886.124023438 468 870.28515625 368 c 0,17,18
 858.40625 293 858.40625 293 825.482421875 233.5 c 128,-1,19
 792.55859375 174 792.55859375 174 735.16015625 111.5 c 128,-1,20
 677.760742188 49 677.760742188 49 593.823242188 -39 c 1,21,-1
 807.823242188 -39 l 1,22,-1
 787.233398438 -169 l 1,23,-1
 386.233398438 -169 l 1,0,-1
117.528320312 -104 m 1,24,-1
 9.990234375 -19 l 1,25,-1
 849.69140625 1627 l 1,26,-1
 957.75390625 1539 l 1,27,-1
 117.528320312 -104 l 1,24,-1
202.872070312 921 m 1,28,-1
 292.67578125 1488 l 1,29,-1
 181.232421875 1441 l 1,30,-1
 170.604492188 1557 l 1,31,-1
 354.393554688 1663 l 1,32,-1
 454.393554688 1663 l 1,33,-1
 336.872070312 921 l 1,34,-1
 202.872070312 921 l 1,28,-1
EndSplineSet
EndChar

StartChar: onequarter
Encoding: 188 188 528
Width: 922
VWidth: 2424
GlyphClass: 1
Flags: HW
LayerCount: 2
Fore
SplineSet
525.797851562 125 m 1,0,-1
 630.797851562 125 l 1,1,-1
 660.890625 315 l 1,2,-1
 525.797851562 125 l 1,0,-1
579.233398438 -169 m 1,3,-1
 605.68359375 -2 l 1,4,-1
 372.68359375 -2 l 1,5,-1
 389.155273438 102 l 1,6,-1
 727.595703125 572 l 1,7,-1
 823.595703125 572 l 1,8,-1
 753.431640625 129 l 1,9,-1
 831.431640625 129 l 1,10,-1
 810.68359375 -2 l 1,11,-1
 732.68359375 -2 l 1,12,-1
 706.233398438 -169 l 1,13,-1
 579.233398438 -169 l 1,3,-1
113.528320312 -104 m 1,14,-1
 5.990234375 -19 l 1,15,-1
 843.69140625 1627 l 1,16,-1
 950.75390625 1539 l 1,17,-1
 113.528320312 -104 l 1,14,-1
198.872070312 921 m 1,18,-1
 288.67578125 1488 l 1,19,-1
 178.232421875 1441 l 1,20,-1
 167.604492188 1557 l 1,21,-1
 350.393554688 1663 l 1,22,-1
 449.393554688 1663 l 1,23,-1
 331.872070312 921 l 1,24,-1
 198.872070312 921 l 1,18,-1
EndSplineSet
EndChar

StartChar: threequarters
Encoding: 190 190 529
Width: 922
VWidth: 2424
GlyphClass: 1
Flags: HW
LayerCount: 2
Fore
SplineSet
606.797851562 125 m 1,0,-1
 636.890625 315 l 1,1,-1
 505.797851562 125 l 1,2,-1
 606.797851562 125 l 1,0,-1
581.68359375 -2 m 1,3,-1
 356.68359375 -2 l 1,4,-1
 373.155273438 102 l 1,5,-1
 702.595703125 572 l 1,6,-1
 795.595703125 572 l 1,7,-1
 725.431640625 129 l 1,8,-1
 801.431640625 129 l 1,9,-1
 780.68359375 -2 l 1,10,-1
 704.68359375 -2 l 1,11,-1
 678.233398438 -169 l 1,12,-1
 555.233398438 -169 l 1,13,-1
 581.68359375 -2 l 1,3,-1
105.528320312 -104 m 1,14,-1
 1.990234375 -19 l 1,15,-1
 820.69140625 1627 l 1,16,-1
 923.75390625 1539 l 1,17,-1
 105.528320312 -104 l 1,14,-1
226.654296875 907 m 0,18,19
 169.654296875 907 169.654296875 907 120.297851562 930 c 128,-1,20
 70.9404296875 953 70.9404296875 953 49.2255859375 999 c 1,21,-1
 128.698242188 1103 l 1,22,-1
 144.70703125 1122 l 1,23,-1
 155.806640625 1110 l 1,24,25
 153.114257812 1093 153.114257812 1093 160.055664062 1080 c 128,-1,26
 166.99609375 1067 166.99609375 1067 187.51171875 1045 c 1,27,28
 207.611328125 1033 207.611328125 1033 240.453125 1032 c 0,29,30
 325.453125 1032 325.453125 1032 341.291015625 1132 c 0,31,32
 352.377929688 1202 352.377929688 1202 320.49609375 1228 c 128,-1,33
 298.681640625 1245.7890625 298.681640625 1245.7890625 254.388671875 1245.7890625 c 0,0,0
 233.9453125 1245.7890625 233.9453125 1245.7890625 208.713867188 1242 c 1,34,-1
 228.194335938 1365 l 1,35,36
 233.665039062 1364.86425781 233.665039062 1364.86425781 238.916992188 1364.86425781 c 0,0,0
 311.139648438 1364.86425781 311.139648438 1364.86425781 342.233398438 1390.5 c 128,-1,37
 375.588867188 1418 375.588867188 1418 382.241210938 1460 c 0,38,39
 395.704101562 1545 395.704101562 1545 321.704101562 1545 c 0,40,41
 260.704101562 1545 260.704101562 1545 213.67578125 1488 c 1,42,-1
 152.930664062 1578 l 1,43,44
 194.69140625 1627 194.69140625 1627 247.333984375 1650 c 128,-1,45
 299.977539062 1673 299.977539062 1673 347.977539062 1673 c 0,46,47
 428.977539062 1673 428.977539062 1673 475.741210938 1621 c 128,-1,48
 522.504882812 1569 522.504882812 1569 508.567382812 1481 c 0,49,50
 498.588867188 1418 498.588867188 1418 463.857421875 1375.5 c 128,-1,51
 429.125976562 1333 429.125976562 1333 394.43359375 1316 c 1,52,53
 429.424804688 1297 429.424804688 1297 455.796875 1252 c 128,-1,54
 482.169921875 1207 482.169921875 1207 469.499023438 1127 c 0,55,56
 454.135742188 1030 454.135742188 1030 387.895507812 968.5 c 128,-1,57
 321.654296875 907 321.654296875 907 226.654296875 907 c 0,18,19
EndSplineSet
EndChar

StartChar: uni2070.ss02
Encoding: 65566 -1 533
Width: 922
VWidth: 2424
GlyphClass: 1
Flags: HW
LayerCount: 2
Fore
SplineSet
566.353515625 722 m 0,0,1
 718.360351562 722 718.360351562 722 771.201171875 1055.625 c 0,2,3
 797.549804688 1221.984375 797.549804688 1221.984375 773.904296875 1309.5 c 128,-1,4
 750.262695312 1397 750.262695312 1397 673.262695312 1397 c 0,5,6
 598.262695312 1397 598.262695312 1397 545.404296875 1309.5 c 128,-1,7
 492.545898438 1222 492.545898438 1222 466.887695312 1060 c 0,8,9
 413.353515625 722 413.353515625 722 566.353515625 722 c 0,0,1
543.705078125 579 m 128,-1,11
 397.705078125 579 397.705078125 579 329.448242188 700.5 c 128,-1,12
 261.192382812 822 261.192382812 822 298.887695312 1060 c 0,13,14
 336.266601562 1296 336.266601562 1296 443.643554688 1421.5 c 128,-1,15
 551.020507812 1547 551.020507812 1547 697.020507812 1547 c 128,-1,16
 843.020507812 1547 843.020507812 1547 909.564453125 1421 c 128,-1,17
 976.107421875 1295 976.107421875 1295 938.887695312 1060 c 0,18,19
 901.192382812 822 901.192382812 822 795.448242188 700.5 c 128,-1,10
 689.705078125 579 689.705078125 579 543.705078125 579 c 128,-1,11
EndSplineSet
EndChar

StartChar: uni2070.zero
Encoding: 65570 -1 537
Width: 922
VWidth: 2424
GlyphClass: 1
Flags: HW
LayerCount: 2
Fore
SplineSet
615.334960938 1006 m 128,-1,1
 581.334960938 1006 581.334960938 1006 561.21484375 1030.5 c 128,-1,2
 541.095703125 1055 541.095703125 1055 546.48046875 1089 c 128,-1,3
 551.866210938 1123 551.866210938 1123 579.666992188 1147 c 128,-1,4
 607.467773438 1171 607.467773438 1171 641.467773438 1171 c 128,-1,5
 675.467773438 1171 675.467773438 1171 697.587890625 1146.5 c 128,-1,6
 719.70703125 1122 719.70703125 1122 714.48046875 1089 c 0,7,8
 709.095703125 1055 709.095703125 1055 679.21484375 1030.5 c 128,-1,0
 649.334960938 1006 649.334960938 1006 615.334960938 1006 c 128,-1,1
566.353515625 722 m 0,9,10
 718.360351562 722 718.360351562 722 771.201171875 1055.625 c 0,11,12
 797.549804688 1221.984375 797.549804688 1221.984375 773.904296875 1309.5 c 128,-1,13
 750.262695312 1397 750.262695312 1397 673.262695312 1397 c 0,14,15
 598.262695312 1397 598.262695312 1397 545.404296875 1309.5 c 128,-1,16
 492.545898438 1222 492.545898438 1222 466.887695312 1060 c 0,17,18
 413.353515625 722 413.353515625 722 566.353515625 722 c 0,9,10
543.705078125 579 m 128,-1,20
 397.705078125 579 397.705078125 579 329.448242188 700.5 c 128,-1,21
 261.192382812 822 261.192382812 822 298.887695312 1060 c 0,22,23
 336.266601562 1296 336.266601562 1296 443.643554688 1421.5 c 128,-1,24
 551.020507812 1547 551.020507812 1547 697.020507812 1547 c 128,-1,25
 843.020507812 1547 843.020507812 1547 909.564453125 1421 c 128,-1,26
 976.107421875 1295 976.107421875 1295 938.887695312 1060 c 0,27,28
 901.192382812 822 901.192382812 822 795.448242188 700.5 c 128,-1,19
 689.705078125 579 689.705078125 579 543.705078125 579 c 128,-1,20
EndSplineSet
EndChar

StartChar: period
Encoding: 46 46 538
Width: 922
VWidth: 2590
GlyphClass: 1
Flags: HW
LayerCount: 2
Fore
SplineSet
450.540039062 136 m 0,0,1
 378.540039062 136 378.540039062 136 336.959960938 186 c 128,-1,2
 295.37890625 236 295.37890625 236 306.940429688 309 c 0,3,4
 318.02734375 379 318.02734375 379 375.447265625 429 c 128,-1,5
 432.866210938 479 432.866210938 479 504.866210938 479 c 0,6,7
 574.866210938 479 574.866210938 479 617.447265625 429 c 128,-1,8
 660.02734375 379 660.02734375 379 648.940429688 309 c 0,9,10
 637.537109375 237 637.537109375 237 579.0390625 186.5 c 128,-1,11
 520.540039062 136 520.540039062 136 450.540039062 136 c 0,0,1
EndSplineSet
EndChar

StartChar: comma
Encoding: 44 44 539
Width: 922
VWidth: 2590
GlyphClass: 1
Flags: HW
LayerCount: 2
Fore
SplineSet
337.037109375 -246 m 1,0,-1
 215.092773438 -132 l 1,1,2
 288.071289062 -69 288.071289062 -69 333.049804688 -6 c 128,-1,3
 378.028320312 57 378.028320312 57 384.997070312 101 c 0,4,5
 390.381835938 135 390.381835938 135 369.712890625 165.5 c 128,-1,6
 349.04296875 196 349.04296875 196 329.0078125 230.5 c 128,-1,7
 308.971679688 265 308.971679688 265 317.841796875 321 c 0,8,9
 329.720703125 396 329.720703125 396 387.451171875 438.5 c 128,-1,10
 445.182617188 481 445.182617188 481 516.182617188 481 c 0,11,12
 599.182617188 481 599.182617188 481 641.942382812 419.5 c 128,-1,13
 684.701171875 358 684.701171875 358 668.229492188 254 c 0,14,15
 631.959960938 25 631.959960938 25 337.037109375 -246 c 1,0,-1
EndSplineSet
EndChar

StartChar: colon
Encoding: 58 58 540
Width: 922
VWidth: 2699
GlyphClass: 1
Flags: HW
LayerCount: 2
Fore
SplineSet
458.803710938 245 m 128,-1,1
 386.803710938 245 386.803710938 245 345.881835938 296 c 128,-1,2
 304.958984375 347 304.958984375 347 315.887695312 416 c 0,3,4
 326.974609375 486 326.974609375 486 385.369140625 539 c 128,-1,5
 443.763671875 592 443.763671875 592 513.763671875 592 c 0,6,7
 578.763671875 592 578.763671875 592 624.52734375 540 c 128,-1,8
 670.291992188 488 670.291992188 488 658.887695312 416 c 0,9,10
 648.592773438 351 648.592773438 351 589.698242188 298 c 128,-1,0
 530.803710938 245 530.803710938 245 458.803710938 245 c 128,-1,1
576.80078125 990 m 0,11,12
 506.80078125 990 506.80078125 990 465.036132812 1042 c 128,-1,13
 423.272460938 1094 423.272460938 1094 434.201171875 1163 c 0,14,15
 444.8125 1230 444.8125 1230 503.127929688 1282.5 c 128,-1,16
 561.443359375 1335 561.443359375 1335 631.443359375 1335 c 0,17,18
 696.443359375 1335 696.443359375 1335 742.524414062 1285 c 128,-1,19
 788.604492188 1235 788.604492188 1235 777.201171875 1163 c 0,20,21
 766.588867188 1096 766.588867188 1096 707.6953125 1043 c 128,-1,22
 648.80078125 990 648.80078125 990 576.80078125 990 c 0,11,12
EndSplineSet
EndChar

StartChar: semicolon
Encoding: 59 59 541
Width: 922
VWidth: 2699
GlyphClass: 1
Flags: HW
LayerCount: 2
Fore
SplineSet
347.301757812 -137 m 1,0,-1
 224.357421875 -23 l 1,1,2
 297.334960938 40 297.334960938 40 342.813476562 103 c 128,-1,3
 388.291992188 166 388.291992188 166 395.260742188 210 c 0,4,5
 400.645507812 244 400.645507812 244 379.9765625 274.5 c 128,-1,6
 359.307617188 305 359.307617188 305 339.271484375 339.5 c 128,-1,7
 319.235351562 374 319.235351562 374 328.10546875 430 c 0,8,9
 339.984375 505 339.984375 505 397.715820312 547.5 c 128,-1,10
 455.447265625 590 455.447265625 590 525.447265625 590 c 0,11,12
 610.447265625 590 610.447265625 590 652.706054688 528.5 c 128,-1,13
 694.965820312 467 694.965820312 467 678.493164062 363 c 0,14,15
 642.223632812 134 642.223632812 134 347.301757812 -137 c 1,0,-1
576.80078125 990 m 0,16,17
 506.80078125 990 506.80078125 990 465.036132812 1042 c 128,-1,18
 423.272460938 1094 423.272460938 1094 434.201171875 1163 c 0,19,20
 444.8125 1230 444.8125 1230 503.127929688 1282.5 c 128,-1,21
 561.443359375 1335 561.443359375 1335 631.443359375 1335 c 0,22,23
 696.443359375 1335 696.443359375 1335 742.524414062 1285 c 128,-1,24
 788.604492188 1235 788.604492188 1235 777.201171875 1163 c 0,25,26
 766.588867188 1096 766.588867188 1096 707.6953125 1043 c 128,-1,27
 648.80078125 990 648.80078125 990 576.80078125 990 c 0,16,17
EndSplineSet
EndChar

StartChar: ellipsis
Encoding: 8230 8230 542
Width: 922
VWidth: 2424
GlyphClass: 1
Flags: HW
LayerCount: 2
Fore
SplineSet
44.7236328125 -27 m 0,0,1
 -8.2763671875 -27 -8.2763671875 -27 -38.1494140625 18 c 128,-1,2
 -68.021484375 63 -68.021484375 63 -58.2021484375 125 c 0,3,4
 -48.2236328125 188 -48.2236328125 188 -4.017578125 233.5 c 128,-1,5
 40.189453125 279 40.189453125 279 93.189453125 279 c 0,6,7
 144.189453125 279 144.189453125 279 175.561523438 234 c 128,-1,8
 206.934570312 189 206.934570312 189 196.797851562 125 c 0,9,10
 186.8203125 62 186.8203125 62 141.271484375 17.5 c 128,-1,11
 95.7236328125 -27 95.7236328125 -27 44.7236328125 -27 c 0,0,1
361.723632812 -27 m 0,12,13
 308.723632812 -27 308.723632812 -27 278.850585938 18 c 128,-1,14
 248.978515625 63 248.978515625 63 258.797851562 125 c 0,15,16
 268.776367188 188 268.776367188 188 312.482421875 233.5 c 128,-1,17
 356.189453125 279 356.189453125 279 410.189453125 279 c 0,18,19
 461.189453125 279 461.189453125 279 492.061523438 234 c 128,-1,20
 522.934570312 189 522.934570312 189 512.797851562 125 c 0,21,22
 502.8203125 62 502.8203125 62 457.771484375 17.5 c 128,-1,23
 412.723632812 -27 412.723632812 -27 361.723632812 -27 c 0,12,13
682.723632812 -27 m 0,24,25
 629.723632812 -27 629.723632812 -27 599.350585938 18 c 128,-1,26
 568.978515625 63 568.978515625 63 578.797851562 125 c 0,27,28
 588.776367188 188 588.776367188 188 632.982421875 233.5 c 128,-1,29
 677.189453125 279 677.189453125 279 731.189453125 279 c 0,30,31
 782.189453125 279 782.189453125 279 812.061523438 234 c 128,-1,32
 841.934570312 189 841.934570312 189 831.797851562 125 c 0,33,34
 821.8203125 62 821.8203125 62 777.771484375 17.5 c 128,-1,35
 733.723632812 -27 733.723632812 -27 682.723632812 -27 c 0,24,25
EndSplineSet
EndChar

StartChar: exclam
Encoding: 33 33 543
Width: 922
VWidth: 2424
GlyphClass: 1
Flags: HW
LayerCount: 2
Fore
SplineSet
424.723632812 -27 m 0,0,1
 352.723632812 -27 352.723632812 -27 307.063476562 22.5 c 128,-1,2
 261.403320312 72 261.403320312 72 273.124023438 146 c 0,3,4
 283.736328125 213 283.736328125 213 345.471679688 265 c 128,-1,5
 407.208007812 317 407.208007812 317 479.208007812 317 c 0,6,7
 554.208007812 317 554.208007812 317 598.313476562 264 c 128,-1,8
 642.418945312 211 642.418945312 211 632.124023438 146 c 0,9,10
 621.037109375 76 621.037109375 76 557.880859375 24.5 c 128,-1,11
 494.723632812 -27 494.723632812 -27 424.723632812 -27 c 0,0,1
419.192382812 500 m 1,12,-1
 502.064453125 1421 l 2,13,14
 503.189453125 1431.19628906 503.189453125 1431.19628906 504.719726562 1440.85839844 c 0,15,16
 518.798828125 1529.75488281 518.798828125 1529.75488281 567.217773438 1573.5 c 0,17,18
 620.899414062 1622 620.899414062 1622 685.899414062 1622 c 128,-1,19
 750.899414062 1622 750.899414062 1622 791.217773438 1573.5 c 0,20,21
 827.056640625 1530.38867188 827.056640625 1530.38867188 811.78125 1433.94433594 c 0,22,23
 809.872070312 1421.88867188 809.872070312 1421.88867188 807.1640625 1409 c 2,24,-1
 596.192382812 500 l 1,25,-1
 419.192382812 500 l 1,12,-1
EndSplineSet
EndChar

StartChar: question
Encoding: 63 63 545
Width: 922
VWidth: 2424
GlyphClass: 1
Flags: HW
LayerCount: 2
Fore
SplineSet
475.248046875 -30 m 128,-1,1
 405.248046875 -30 405.248046875 -30 363.66796875 20 c 128,-1,2
 322.086914062 70 322.086914062 70 333.649414062 143 c 0,3,4
 344.736328125 213 344.736328125 213 402.155273438 263 c 128,-1,5
 459.57421875 313 459.57421875 313 529.57421875 313 c 128,-1,6
 599.57421875 313 599.57421875 313 642.155273438 263 c 128,-1,7
 684.736328125 213 684.736328125 213 673.649414062 143 c 0,8,9
 662.245117188 71 662.245117188 71 603.747070312 20.5 c 128,-1,0
 545.248046875 -30 545.248046875 -30 475.248046875 -30 c 128,-1,1
461.080078125 594 m 2,10,11
 477.235351562 696 477.235351562 696 515.426757812 763.5 c 128,-1,12
 553.6171875 831 553.6171875 831 603.95703125 880.5 c 128,-1,13
 654.297851562 930 654.297851562 930 703.162109375 976.5 c 128,-1,14
 752.02734375 1023 752.02734375 1023 789.817382812 1078.5 c 128,-1,15
 827.608398438 1134 827.608398438 1134 840.75390625 1217 c 0,16,17
 856.1171875 1314 856.1171875 1314 807.640625 1361.5 c 128,-1,18
 759.1640625 1409 759.1640625 1409 677.1640625 1409 c 0,19,20
 566.1640625 1409 566.1640625 1409 468.017578125 1326 c 1,21,22
 438.94921875 1294 438.94921875 1294 429.8359375 1277.5 c 128,-1,23
 420.72265625 1261 420.72265625 1261 419.713867188 1242 c 1,24,-1
 404.862304688 1224 l 1,25,-1
 388.23828125 1239 l 1,26,-1
 250.0859375 1358 l 1,27,28
 344.567382812 1481 344.567382812 1481 460.49609375 1550 c 128,-1,29
 576.424804688 1619 576.424804688 1619 729.424804688 1619 c 0,30,31
 916.424804688 1619 916.424804688 1619 1008.84375 1508 c 128,-1,32
 1101.26269531 1397 1101.26269531 1397 1073.54589844 1222 c 0,33,34
 1056.28222656 1113 1056.28222656 1113 1015.95703125 1041.5 c 128,-1,35
 975.6328125 970 975.6328125 970 924.213867188 920 c 128,-1,36
 872.794921875 870 872.794921875 870 821.166992188 825 c 128,-1,37
 769.540039062 780 769.540039062 780 731.645507812 727 c 128,-1,38
 693.750976562 674 693.750976562 674 681.080078125 594 c 2,39,-1
 662.549804688 477 l 1,40,-1
 442.549804688 477 l 1,41,-1
 461.080078125 594 l 2,10,11
EndSplineSet
EndChar

StartChar: periodcentered
Encoding: 183 183 547
Width: 922
VWidth: 2424
GlyphClass: 1
Flags: HW
LayerCount: 2
Fore
SplineSet
530.048828125 638 m 0,0,1
 458.048828125 638 458.048828125 638 416.46875 688 c 128,-1,2
 374.887695312 738 374.887695312 738 386.291015625 810 c 0,3,4
 397.377929688 880 397.377929688 880 455.71875 929.5 c 128,-1,5
 514.05859375 979 514.05859375 979 584.05859375 979 c 0,6,7
 651.05859375 979 651.05859375 979 695.21875 929.5 c 128,-1,8
 739.377929688 880 739.377929688 880 728.291015625 810 c 0,9,10
 716.887695312 738 716.887695312 738 658.46875 688 c 128,-1,11
 600.048828125 638 600.048828125 638 530.048828125 638 c 0,0,1
EndSplineSet
Substitution2: "Single Substitution lookup 11 subtable" periodcentered.loclCAT
Substitution2: "Single Substitution lookup 10 subtable" periodcentered.loclCAT
Substitution2: "'aalt' Access All Alternates in Latin lookup 0 subtable" periodcentered.loclCAT
EndChar

StartChar: bullet
Encoding: 8226 8226 548
Width: 922
VWidth: 2424
GlyphClass: 1
Flags: HW
LayerCount: 2
Fore
SplineSet
528.7578125 472 m 0,0,1
 424.7578125 472 424.7578125 472 364.819335938 545 c 128,-1,2
 304.881835938 618 304.881835938 618 320.561523438 717 c 0,3,4
 331.173828125 784 331.173828125 784 373.859375 842 c 128,-1,5
 416.545898438 900 416.545898438 900 479.193359375 932.5 c 128,-1,6
 541.840820312 965 541.840820312 965 606.840820312 965 c 0,7,8
 705.840820312 965 705.840820312 965 768.779296875 892 c 128,-1,9
 831.716796875 819 831.716796875 819 815.561523438 717 c 0,10,11
 799.881835938 618 799.881835938 618 715.319335938 545 c 128,-1,12
 630.7578125 472 630.7578125 472 528.7578125 472 c 0,0,1
EndSplineSet
EndChar

StartChar: asterisk
Encoding: 42 42 549
Width: 922
VWidth: 2424
GlyphClass: 1
Flags: HW
LayerCount: 2
Fore
SplineSet
263.813476562 264 m 1,0,-1
 101.421875 432 l 1,1,-1
 401.10546875 752 l 1,2,-1
 104.577148438 856 l 1,3,-1
 226.380859375 1101 l 1,4,-1
 476.98046875 928 l 1,5,-1
 495.1171875 1314 l 1,6,-1
 767.1171875 1314 l 1,7,-1
 649.98046875 928 l 1,8,-1
 947.530273438 1083 l 1,9,-1
 993.78515625 851 l 1,10,-1
 663.421875 754 l 1,11,-1
 855.421875 432 l 1,12,-1
 637.813476562 264 l 1,13,-1
 511.990234375 625 l 1,14,-1
 263.813476562 264 l 1,0,-1
EndSplineSet
Substitution2: "'ss01' Style Set 1 in Latin lookup 35 subtable" asterisk.ss01
Substitution2: "'salt' Stylistic Alternatives in Latin lookup 34 subtable" asterisk.ss01
Substitution2: "'aalt' Access All Alternates in Latin lookup 0 subtable" asterisk.ss01
EndChar

StartChar: uni2E12
Encoding: 11794 11794 550
Width: 922
VWidth: 2175
GlyphClass: 1
Flags: HW
LayerCount: 2
Fore
SplineSet
252.037109375 -246 m 1,0,-1
 275.953125 -95 l 1,1,2
 334.953125 -95 334.953125 -95 377.10546875 -53 c 128,-1,3
 419.2578125 -11 419.2578125 -11 429.236328125 52 c 0,4,5
 439.055664062 114 439.055664062 114 411.524414062 158 c 128,-1,6
 383.994140625 202 383.994140625 202 322.994140625 202 c 1,7,-1
 346.276367188 349 l 1,8,9
 474.276367188 349 474.276367188 349 537.7890625 267 c 128,-1,10
 601.30078125 185 601.30078125 185 579.918945312 50 c 0,11,12
 559.329101562 -80 559.329101562 -80 470.68359375 -163 c 128,-1,13
 382.037109375 -246 382.037109375 -246 252.037109375 -246 c 1,0,-1
EndSplineSet
EndChar

StartChar: numbersign
Encoding: 35 35 551
Width: 922
VWidth: 2424
GlyphClass: 1
Flags: HW
LayerCount: 2
Fore
SplineSet
385.189453125 601 m 1,0,-1
 541.189453125 601 l 1,1,-1
 629.040039062 941 l 1,2,-1
 473.040039062 941 l 1,3,-1
 385.189453125 601 l 1,0,-1
396.326171875 21 m 1,4,-1
 499.36328125 419 l 1,5,-1
 341.36328125 419 l 1,6,-1
 243.068359375 32 l 1,7,-1
 67.751953125 30 l 1,8,-1
 166.045898438 417 l 1,9,-1
 4.0458984375 417 l 1,10,-1
 40.5556640625 597 l 1,11,-1
 211.555664062 597 l 1,12,-1
 297.72265625 939 l 1,13,-1
 113.72265625 939 l 1,14,-1
 148.390625 1120 l 1,15,-1
 341.390625 1120 l 1,16,-1
 439.952148438 1515 l 1,17,-1
 617.427734375 1518 l 1,18,-1
 517.182617188 1125 l 1,19,-1
 672.182617188 1125 l 1,20,-1
 769.319335938 1511 l 1,21,-1
 955.635742188 1513 l 1,22,-1
 857.81640625 1129 l 1,23,-1
 1006.81640625 1129 l 1,24,-1
 963.83203125 946 l 1,25,-1
 812.83203125 946 l 1,26,-1
 725.297851562 608 l 1,27,-1
 888.297851562 608 l 1,28,-1
 849.471679688 426 l 1,29,-1
 684.471679688 426 l 1,30,-1
 582.384765625 34 l 1,31,-1
 396.326171875 21 l 1,4,-1
EndSplineSet
EndChar

StartChar: slash
Encoding: 47 47 552
Width: 922
VWidth: 2424
GlyphClass: 1
Flags: HW
LayerCount: 2
Fore
SplineSet
222.528320312 -104 m 1,0,-1
 3.8916015625 -7 l 1,1,-1
 920.791015625 1615 l 1,2,-1
 1133.52734375 1506 l 1,3,-1
 222.528320312 -104 l 1,0,-1
EndSplineSet
Substitution2: "'frac' Diagonal Fractions in Latin lookup 23 subtable" fraction
Substitution2: "'aalt' Access All Alternates in Latin lookup 0 subtable" fraction
EndChar

StartChar: backslash
Encoding: 92 92 553
Width: 922
VWidth: 2424
GlyphClass: 1
Flags: HW
LayerCount: 2
Fore
SplineSet
651.052734375 -107 m 1,0,-1
 246.319335938 1511 l 1,1,-1
 493.791015625 1615 l 1,2,-1
 896.208007812 -5 l 1,3,-1
 651.052734375 -107 l 1,0,-1
EndSplineSet
EndChar

StartChar: asterisk.ss01
Encoding: 65572 -1 555
Width: 922
VWidth: 2424
GlyphClass: 1
Flags: HW
LayerCount: 2
Fore
SplineSet
286.9375 410 m 1,0,-1
 124.387695312 577 l 1,1,-1
 424.071289062 897 l 1,2,-1
 127.701171875 1002 l 1,3,-1
 249.505859375 1247 l 1,4,-1
 500.104492188 1074 l 1,5,-1
 518.241210938 1460 l 1,6,-1
 790.241210938 1460 l 1,7,-1
 673.104492188 1074 l 1,8,-1
 970.654296875 1229 l 1,9,-1
 1016.90917969 997 l 1,10,-1
 686.545898438 900 l 1,11,-1
 878.387695312 577 l 1,12,-1
 660.9375 410 l 1,13,-1
 535.114257812 771 l 1,14,-1
 286.9375 410 l 1,0,-1
EndSplineSet
EndChar

StartChar: parenleft
Encoding: 40 40 556
Width: 922
VWidth: 2429
GlyphClass: 1
Flags: HW
LayerCount: 2
Fore
SplineSet
718.037109375 -246 m 1,0,1
 528.717773438 -147 528.717773438 -147 411.979492188 12.5 c 128,-1,2
 295.2421875 172 295.2421875 172 253.181640625 370.5 c 128,-1,3
 211.12109375 569 211.12109375 569 245.490234375 786 c 0,4,5
 279.54296875 1001 279.54296875 1001 382.927734375 1196 c 128,-1,6
 486.3125 1391 486.3125 1391 650.362304688 1546 c 128,-1,7
 814.412109375 1701 814.412109375 1701 1030.6171875 1797 c 1,8,-1
 1070.88085938 1584 l 1,9,10
 838.083007812 1459 838.083007812 1459 686.430664062 1256 c 128,-1,11
 534.779296875 1053 534.779296875 1053 491.381835938 779 c 0,12,13
 449.250976562 513 449.250976562 513 537.9609375 296.5 c 128,-1,14
 626.670898438 80 626.670898438 80 827.189453125 -43 c 1,15,-1
 718.037109375 -246 l 1,0,1
EndSplineSet
EndChar

StartChar: parenright
Encoding: 41 41 557
Width: 922
VWidth: 2429
GlyphClass: 1
Flags: HW
LayerCount: 2
Fore
SplineSet
160.037109375 -246 m 1,0,1
 380.717773438 -147 380.717773438 -147 548.05859375 13 c 0,2,3
 715.2421875 172 715.2421875 172 819.602539062 370 c 0,4,5
 923.961914062 568 923.961914062 568 958.490234375 786 c 0,6,7
 992.54296875 1001 992.54296875 1001 951.427734375 1196 c 0,8,9
 910.3125 1391 910.3125 1391 795.704101562 1545 c 0,10,11
 681.25390625 1700 681.25390625 1700 495.6171875 1797 c 1,12,-1
 386.880859375 1584 l 1,13,14
 580.083007812 1459 580.083007812 1459 666.930664062 1256 c 0,15,16
 753.779296875 1053 753.779296875 1053 711.381835938 779 c 0,17,18
 669.250976562 513 669.250976562 513 512.040039062 297 c 0,19,20
 354.829101562 81 354.829101562 81 114.189453125 -43 c 1,21,-1
 160.037109375 -246 l 1,0,1
EndSplineSet
EndChar

StartChar: braceleft
Encoding: 123 123 558
Width: 922
VWidth: 2469
GlyphClass: 1
Flags: HW
LayerCount: 2
Fore
SplineSet
682.708007812 -166 m 2,0,1
 527.708007812 -166 527.708007812 -166 420.147460938 -128.5 c 128,-1,2
 312.586914062 -91 312.586914062 -91 266.0546875 3.5 c 128,-1,3
 221.685546875 93.6044921875 221.685546875 93.6044921875 247.116210938 254.16796875 c 0,0,0
 248.357421875 262 248.357421875 262 249.763671875 270 c 2,4,-1
 294.2421875 494 l 1,5,6
 316.57421875 635 316.57421875 635 280.48828125 675.5 c 128,-1,7
 244.403320312 716 244.403320312 716 169.403320312 716 c 2,8,-1
 99.4033203125 716 l 1,9,-1
 132.505859375 925 l 1,10,-1
 200.505859375 925 l 2,11,12
 283.505859375 925 283.505859375 925 331.6328125 970 c 128,-1,13
 379.759765625 1015 379.759765625 1015 398.924804688 1136 c 2,14,-1
 427.443359375 1335 l 2,15,16
 461.178710938 1548 461.178710938 1548 596.284179688 1656 c 128,-1,17
 731.390625 1764 731.390625 1764 934.390625 1764 c 2,18,-1
 1092.390625 1764 l 1,19,-1
 1059.76269531 1558 l 1,20,-1
 867.762695312 1558 l 2,21,22
 702.762695312 1558 702.762695312 1558 671.561523438 1361 c 1,23,-1
 645.517578125 1165 l 2,24,25
 626.353515625 1044 626.353515625 1044 566.495117188 956.5 c 128,-1,26
 506.635742188 869 506.635742188 869 416.875 820 c 1,27,28
 490.381835938 779 490.381835938 779 520.310546875 687 c 128,-1,29
 550.23828125 595 550.23828125 595 528.698242188 459 c 2,30,-1
 494.763671875 270 l 2,31,32
 474.965820312 145 474.965820312 145 519.4921875 91.5 c 128,-1,33
 564.018554688 38 564.018554688 38 685.018554688 38 c 2,34,-1
 816.018554688 38 l 1,35,-1
 783.708007812 -166 l 1,36,-1
 682.708007812 -166 l 2,0,1
EndSplineSet
EndChar

StartChar: braceright
Encoding: 125 125 559
Width: 922
VWidth: 2469
GlyphClass: 1
Flags: HW
LayerCount: 2
Fore
SplineSet
94.7080078125 -166 m 2,0,1
 249.708007812 -166 249.708007812 -166 369.7265625 -128 c 0,2,3
 487.745117188 -90 487.745117188 -90 564.633789062 4 c 0,4,5
 638.124023438 94.615234375 638.124023438 94.615234375 663.427734375 254.376953125 c 0,0,0
 664.65234375 262.107421875 664.65234375 262.107421875 665.763671875 270 c 2,1,-1
 692.2421875 494 l 1,2,3
 714.57421875 635 714.57421875 635 763.909179688 675 c 0,4,5
 813.403320312 716 813.403320312 716 887.403320312 716 c 2,6,-1
 958.403320312 716 l 1,7,-1
 991.505859375 925 l 1,8,-1
 922.505859375 925 l 2,9,10
 839.505859375 925 839.505859375 925 806.6328125 970 c 0,11,12
 772.759765625 1015 772.759765625 1015 791.924804688 1136 c 2,13,-1
 825.443359375 1335 l 2,14,15
 859.178710938 1548 859.178710938 1548 759.284179688 1656 c 0,16,17
 659.390625 1764 659.390625 1764 454.390625 1764 c 2,18,-1
 296.390625 1764 l 1,19,-1
 263.762695312 1558 l 1,20,-1
 455.762695312 1558 l 2,21,22
 620.762695312 1558 620.762695312 1558 589.561523438 1361 c 1,23,-1
 553.517578125 1165 l 2,24,25
 534.353515625 1044 534.353515625 1044 566.57421875 957 c 0,26,27
 598.635742188 869 598.635742188 869 673.875 820 c 1,28,29
 587.381835938 779 587.381835938 779 527.96875 688 c 0,30,31
 468.397460938 596 468.397460938 596 446.698242188 459 c 2,32,-1
 420.763671875 270 l 2,33,34
 400.965820312 145 400.965820312 145 339.413085938 91 c 0,35,36
 278.018554688 38 278.018554688 38 157.018554688 38 c 2,37,-1
 26.0185546875 38 l 1,38,-1
 -6.2919921875 -166 l 1,39,-1
 94.7080078125 -166 l 2,0,1
EndSplineSet
EndChar

StartChar: bracketleft
Encoding: 91 91 560
Width: 922
VWidth: 2499
GlyphClass: 1
Flags: HW
LayerCount: 2
Fore
SplineSet
133.826171875 -140 m 1,0,-1
 425.094726562 1699 l 1,1,-1
 1108.09472656 1699 l 1,2,-1
 1073.56738281 1481 l 1,3,-1
 632.567382812 1481 l 1,4,-1
 409.086914062 70 l 1,5,-1
 853.086914062 70 l 1,6,-1
 819.826171875 -140 l 1,7,-1
 133.826171875 -140 l 1,0,-1
EndSplineSet
EndChar

StartChar: bracketright
Encoding: 93 93 561
Width: 922
VWidth: 2499
GlyphClass: 1
Flags: HW
LayerCount: 2
Fore
SplineSet
819.826171875 -140 m 1,0,-1
 1111.09472656 1699 l 1,1,-1
 427.094726562 1699 l 1,2,-1
 392.567382812 1481 l 1,3,-1
 834.567382812 1481 l 1,4,-1
 611.086914062 70 l 1,5,-1
 167.086914062 70 l 1,6,-1
 133.826171875 -140 l 1,7,-1
 819.826171875 -140 l 1,0,-1
EndSplineSet
EndChar

StartChar: hyphen
Encoding: 45 45 562
Width: 922
VWidth: 2424
GlyphClass: 1
Flags: HW
LayerCount: 2
Fore
SplineSet
238.850585938 662 m 1,0,-1
 273.6953125 882 l 1,1,-1
 913.6953125 882 l 1,2,-1
 878.850585938 662 l 1,3,-1
 238.850585938 662 l 1,0,-1
EndSplineSet
EndChar

StartChar: endash
Encoding: 8211 8211 564
Width: 922
VWidth: 2424
GlyphClass: 1
Flags: HW
LayerCount: 2
Fore
SplineSet
151.850585938 662 m 1,0,-1
 186.6953125 882 l 1,1,-1
 1003.6953125 882 l 1,2,-1
 968.850585938 662 l 1,3,-1
 151.850585938 662 l 1,0,-1
EndSplineSet
EndChar

StartChar: emdash
Encoding: 8212 8212 565
Width: 922
VWidth: 2424
GlyphClass: 1
Flags: HW
LayerCount: 2
Fore
SplineSet
28.8505859375 662 m 1,0,-1
 63.6953125 882 l 1,1,-1
 953.6953125 882 l 1,2,-1
 918.850585938 662 l 1,3,-1
 28.8505859375 662 l 1,0,-1
EndSplineSet
EndChar

StartChar: underscore
Encoding: 95 95 569
Width: 922
VWidth: 2424
GlyphClass: 1
Flags: HW
LayerCount: 2
Fore
SplineSet
-69.4873046875 -243 m 1,0,-1
 -36.068359375 -32 l 1,1,-1
 853.931640625 -32 l 1,2,-1
 820.512695312 -243 l 1,3,-1
 -69.4873046875 -243 l 1,0,-1
EndSplineSet
EndChar

StartChar: quotedblleft
Encoding: 8220 8220 572
Width: 922
VWidth: 2424
GlyphClass: 1
Flags: HW
LayerCount: 2
Fore
SplineSet
547.030273438 1566 m 1,0,-1
 655.1328125 1453 l 1,1,2
 585.154296875 1390 585.154296875 1390 534.596679688 1326.5 c 128,-1,3
 484.0390625 1263 484.0390625 1263 474.853515625 1205 c 0,4,5
 468.359375 1164 468.359375 1164 489.8203125 1138.5 c 128,-1,6
 511.282226562 1113 511.282226562 1113 532.688476562 1084 c 128,-1,7
 554.095703125 1055 554.095703125 1055 545.701171875 1002 c 0,8,9
 535.08984375 935 535.08984375 935 480.987304688 887 c 128,-1,10
 426.884765625 839 426.884765625 839 351.884765625 839 c 0,11,12
 284.884765625 839 284.884765625 839 236.571289062 897 c 128,-1,13
 188.256835938 955 188.256835938 955 202.987304688 1048 c 0,14,15
 238.940429688 1275 238.940429688 1275 547.030273438 1566 c 1,0,-1
998.030273438 1566 m 1,16,-1
 1108.1328125 1453 l 1,17,18
 1035.15429688 1390 1035.15429688 1390 985.096679688 1326.5 c 128,-1,19
 935.0390625 1263 935.0390625 1263 925.853515625 1205 c 0,20,21
 919.359375 1164 919.359375 1164 940.8203125 1138.5 c 128,-1,22
 962.282226562 1113 962.282226562 1113 982.688476562 1084 c 128,-1,23
 1003.09570312 1055 1003.09570312 1055 994.701171875 1002 c 0,24,25
 984.08984375 935 984.08984375 935 930.987304688 887 c 128,-1,26
 877.884765625 839 877.884765625 839 804.884765625 839 c 0,27,28
 734.884765625 839 734.884765625 839 687.071289062 897 c 128,-1,29
 639.256835938 955 639.256835938 955 653.987304688 1048 c 0,30,31
 689.940429688 1275 689.940429688 1275 998.030273438 1566 c 1,16,-1
EndSplineSet
EndChar

StartChar: quoteleft
Encoding: 8216 8216 574
Width: 922
VWidth: 2424
GlyphClass: 1
Flags: HW
LayerCount: 2
Fore
SplineSet
765.030273438 1566 m 1,0,-1
 876.1328125 1453 l 1,1,2
 806.154296875 1390 806.154296875 1390 754.596679688 1326.5 c 128,-1,3
 703.0390625 1263 703.0390625 1263 693.853515625 1205 c 0,4,5
 687.359375 1164 687.359375 1164 708.8203125 1138.5 c 128,-1,6
 730.282226562 1113 730.282226562 1113 750.688476562 1084 c 128,-1,7
 771.095703125 1055 771.095703125 1055 762.701171875 1002 c 0,8,9
 752.08984375 935 752.08984375 935 698.487304688 887 c 128,-1,10
 644.884765625 839 644.884765625 839 570.884765625 839 c 0,11,12
 500.884765625 839 500.884765625 839 452.571289062 897 c 128,-1,13
 404.256835938 955 404.256835938 955 418.987304688 1048 c 0,14,15
 454.940429688 1275 454.940429688 1275 765.030273438 1566 c 1,0,-1
EndSplineSet
EndChar

StartChar: quoteright
Encoding: 8217 8217 575
Width: 922
VWidth: 2424
GlyphClass: 1
Flags: HW
LayerCount: 2
Fore
SplineSet
482.884765625 839 m 1,0,-1
 371.940429688 953 l 1,1,2
 444.918945312 1016 444.918945312 1016 494.896484375 1079 c 128,-1,3
 544.875 1142 544.875 1142 554.061523438 1200 c 0,4,5
 560.5546875 1241 560.5546875 1241 539.172851562 1267 c 128,-1,6
 517.791015625 1293 517.791015625 1293 496.883789062 1322 c 128,-1,7
 475.977539062 1351 475.977539062 1351 484.372070312 1404 c 0,8,9
 494.983398438 1471 494.983398438 1471 549.006835938 1518.5 c 128,-1,10
 603.030273438 1566 603.030273438 1566 677.030273438 1566 c 0,11,12
 747.030273438 1566 747.030273438 1566 795.34375 1508 c 128,-1,13
 843.657226562 1450 843.657226562 1450 829.0859375 1358 c 0,14,15
 792.974609375 1130 792.974609375 1130 482.884765625 839 c 1,0,-1
EndSplineSet
EndChar

StartChar: guillemotleft
Encoding: 171 171 576
Width: 922
VWidth: 2424
GlyphClass: 1
Flags: HW
LayerCount: 2
Fore
SplineSet
782.055664062 114 m 1,0,-1
 488.111328125 550 l 1,1,-1
 500.782226562 630 l 1,2,-1
 917.443359375 1013 l 1,3,-1
 1018.5859375 875 l 1,4,-1
 701.971679688 587 l 1,5,-1
 934.487304688 243 l 1,6,-1
 782.055664062 114 l 1,0,-1
414.055664062 114 m 1,7,-1
 116.111328125 550 l 1,8,-1
 128.782226562 630 l 1,9,-1
 549.443359375 1013 l 1,10,-1
 642.6953125 882 l 1,11,-1
 333.971679688 587 l 1,12,-1
 557.012695312 240 l 1,13,-1
 414.055664062 114 l 1,7,-1
EndSplineSet
EndChar

StartChar: guilsinglleft
Encoding: 8249 8249 578
Width: 922
VWidth: 2424
GlyphClass: 1
Flags: HW
LayerCount: 2
Fore
SplineSet
552.471679688 104 m 1,0,-1
 257.685546875 541 l 1,1,-1
 270.673828125 623 l 1,2,-1
 690.809570312 1009 l 1,3,-1
 813.46875 849 l 1,4,-1
 520.705078125 579 l 1,5,-1
 732.129882812 266 l 1,6,-1
 552.471679688 104 l 1,0,-1
EndSplineSet
EndChar

StartChar: guilsinglright
Encoding: 8250 8250 579
Width: 922
VWidth: 2424
GlyphClass: 1
Flags: HW
LayerCount: 2
Fore
SplineSet
343.471679688 104 m 1,0,-1
 217.129882812 266 l 1,1,-1
 525.705078125 579 l 1,2,-1
 319.46875 849 l 1,3,-1
 491.809570312 1009 l 1,4,-1
 790.673828125 623 l 1,5,-1
 777.685546875 541 l 1,6,-1
 343.471679688 104 l 1,0,-1
EndSplineSet
EndChar

StartChar: quotedbl
Encoding: 34 34 580
Width: 922
VWidth: 2424
GlyphClass: 1
Flags: HW
LayerCount: 2
Fore
SplineSet
416.315429688 1612 m 1,0,-1
 649.315429688 1612 l 1,1,2
 626.19140625 1466 626.19140625 1466 608.412109375 1379 c 0,3,4
 590.474609375 1291 590.474609375 1291 575.129882812 1232 c 0,5,6
 559.78515625 1173 559.78515625 1173 544.232421875 1119 c 0,7,8
 528.6796875 1065 528.6796875 1065 506.325195312 987 c 1,9,-1
 360.325195312 987 l 1,10,11
 363.6796875 1065 363.6796875 1065 365.232421875 1119 c 0,12,13
 366.78515625 1173 366.78515625 1173 368.971679688 1231 c 0,14,15
 372.157226562 1289 372.157226562 1289 382.25390625 1378 c 0,16,17
 393.19140625 1466 393.19140625 1466 416.315429688 1612 c 1,0,-1
765.315429688 1612 m 1,18,-1
 998.315429688 1612 l 1,19,20
 975.19140625 1466 975.19140625 1466 956.412109375 1379 c 0,21,22
 938.474609375 1291 938.474609375 1291 924.129882812 1232 c 0,23,24
 908.78515625 1173 908.78515625 1173 893.232421875 1119 c 0,25,26
 877.6796875 1065 877.6796875 1065 855.325195312 987 c 1,27,-1
 710.325195312 987 l 1,28,29
 713.6796875 1065 713.6796875 1065 713.232421875 1119 c 0,30,31
 714.78515625 1173 714.78515625 1173 717.971679688 1231 c 0,32,33
 721.157226562 1289 721.157226562 1289 731.25390625 1378 c 0,34,35
 742.19140625 1466 742.19140625 1466 765.315429688 1612 c 1,18,-1
EndSplineSet
Substitution2: "'ss03' Style Set 3 in Latin lookup 37 subtable" quotedbl.ss03
Substitution2: "'aalt' Access All Alternates in Latin lookup 0 subtable" quotedbl.ss03
EndChar

StartChar: quotesingle
Encoding: 39 39 581
Width: 922
VWidth: 2424
GlyphClass: 1
Flags: HW
LayerCount: 2
Fore
SplineSet
590.315429688 1612 m 1,0,-1
 823.315429688 1612 l 1,1,2
 800.19140625 1466 800.19140625 1466 782.991210938 1379.5 c 128,-1,3
 765.791015625 1293 765.791015625 1293 750.288085938 1233 c 128,-1,4
 734.78515625 1173 734.78515625 1173 718.153320312 1118.5 c 128,-1,5
 701.521484375 1064 701.521484375 1064 680.325195312 987 c 1,6,-1
 534.325195312 987 l 1,7,8
 537.6796875 1065 537.6796875 1065 539.232421875 1119 c 128,-1,9
 540.78515625 1173 540.78515625 1173 544.05078125 1231.5 c 128,-1,10
 547.31640625 1290 547.31640625 1290 557.25390625 1378 c 128,-1,11
 567.19140625 1466 567.19140625 1466 590.315429688 1612 c 1,0,-1
EndSplineSet
Substitution2: "'ss03' Style Set 3 in Latin lookup 37 subtable" quotesingle.ss03
Substitution2: "'aalt' Access All Alternates in Latin lookup 0 subtable" quotesingle.ss03
EndChar

StartChar: quotesingle.ss03
Encoding: 65574 -1 583
Width: 922
VWidth: 2424
GlyphClass: 1
Flags: HW
LayerCount: 2
Fore
SplineSet
658.158203125 967 m 1,0,-1
 468.443359375 1013 l 1,1,2
 519.70703125 1122 519.70703125 1122 539.532226562 1193.5 c 0,3,4
 557.26953125 1257.47363281 557.26953125 1257.47363281 566.006835938 1312.64160156 c 0,5,6
 567.03515625 1319.13183594 567.03515625 1319.13183594 567.938476562 1325.5 c 0,7,8
 576.520507812 1386 576.520507812 1386 588.875 1464 c 0,9,10
 602.020507812 1547 602.020507812 1547 645.856445312 1587 c 128,-1,11
 689.69140625 1627 689.69140625 1627 753.69140625 1627 c 0,12,13
 813.69140625 1627 813.69140625 1627 847.09375 1588.5 c 128,-1,14
 880.49609375 1550 880.49609375 1550 867.349609375 1467 c 0,15,16
 853.887695312 1382 853.887695312 1382 802.885742188 1271.5 c 128,-1,17
 751.884765625 1161 751.884765625 1161 658.158203125 967 c 1,0,-1
EndSplineSet
EndChar

StartChar: hyphen_greater.dlig
Encoding: 65575 -1 584
Width: 922
VWidth: 2424
GlyphClass: 1
Flags: HW
LayerCount: 2
Fore
SplineSet
47.958984375 669 m 1,0,-1
 82.169921875 885 l 1,1,-1
 638.169921875 885 l 1,2,-1
 603.958984375 669 l 1,3,-1
 47.958984375 669 l 1,0,-1
330.403320312 72 m 1,4,-1
 370.791992188 327 l 1,5,-1
 820.22265625 778 l 1,6,-1
 508.953125 1193 l 1,7,-1
 548.548828125 1443 l 1,8,-1
 967.577148438 856 l 1,9,-1
 943.819335938 706 l 1,10,-1
 330.403320312 72 l 1,4,-1
EndSplineSet
Ligature2: "'dlig' Discretionary Ligatures in Latin lookup 32 subtable" hyphen greater
EndChar

